<?xml version="1.0" encoding="UTF-8" standalone="no"?>
<svg
   enable-background="new 0 0 26 26"
   id="Слой_1"
   version="1.1"
   viewBox="0 0 26 26"
   xml:space="preserve"
   sodipodi:docname="clear.svg"
   inkscape:version="1.1.1 (3bf5ae0d25, 2021-09-20)"
   xmlns:inkscape="http://www.inkscape.org/namespaces/inkscape"
   xmlns:sodipodi="http://sodipodi.sourceforge.net/DTD/sodipodi-0.dtd"
   xmlns="http://www.w3.org/2000/svg"
   xmlns:svg="http://www.w3.org/2000/svg"
   xmlns:rdf="http://www.w3.org/1999/02/22-rdf-syntax-ns#"
   xmlns:cc="http://creativecommons.org/ns#"
   xmlns:dc="http://purl.org/dc/elements/1.1/"><metadata
     id="metadata3753"><rdf:RDF><cc:Work
         rdf:about=""><dc:format>image/svg+xml</dc:format><dc:type
           rdf:resource="http://purl.org/dc/dcmitype/StillImage" /><dc:title /></cc:Work></rdf:RDF></metadata><defs
     id="defs3751" /><sodipodi:namedview
     pagecolor="#ffffff"
     bordercolor="#666666"
     borderopacity="1"
     objecttolerance="10"
     gridtolerance="10"
     guidetolerance="10"
     inkscape:pageopacity="0"
     inkscape:pageshadow="2"
     inkscape:window-width="2560"
     inkscape:window-height="1283"
     id="namedview3749"
     showgrid="true"
     inkscape:zoom="32"
     inkscape:cx="17.703125"
     inkscape:cy="15.78125"
     inkscape:window-x="0"
     inkscape:window-y="32"
     inkscape:window-maximized="1"
     inkscape:current-layer="Слой_1"
     showguides="true"
     inkscape:guide-bbox="true"
     inkscape:pagecheckerboard="1"><inkscape:grid
       type="xygrid"
       id="grid3755" /></sodipodi:namedview><path
     inkscape:connector-curvature="0"
     d="M 9.214782,2.78125 8.914312,3.3821899 H 4.793519 c -0.772658,0 -1.373598,0.6438694 -1.373598,1.3735979 0,0.7726579 0.60094,1.3735977 1.373598,1.3735977 h 16.483172 c 0.729658,0 1.373598,-0.6009398 1.373598,-1.3735977 0,-0.7297285 -0.64394,-1.3735979 -1.373598,-1.3735979 H 17.155898 L 16.8125,2.78125 C 16.597854,2.309062 16.125702,2.0085921 15.610511,2.0085921 h -5.193832 c -0.515096,0 -0.987267,0.3004699 -1.201897,0.7726579 z M 21.276691,7.5029834 H 4.793519 L 5.694947,22.054591 c 0.04291,1.116095 0.94434,1.931646 2.060397,1.931646 h 10.51665 c 1.116094,0 2.017358,-0.815551 2.060395,-1.931646 z"
     id="path4"
     style="fill:#959595;fill-opacity:1;stroke-width:1.83146" /></svg>
