<?xml version="1.0" encoding="UTF-8" standalone="no"?>
<svg
   viewBox="0 0 20 20"
   version="1.1"
   id="svg13"
   sodipodi:docname="warning.svg"
   width="20"
   height="20"
   inkscape:version="1.1.1 (3bf5ae0d25, 2021-09-20)"
   xmlns:inkscape="http://www.inkscape.org/namespaces/inkscape"
   xmlns:sodipodi="http://sodipodi.sourceforge.net/DTD/sodipodi-0.dtd"
   xmlns="http://www.w3.org/2000/svg"
   xmlns:svg="http://www.w3.org/2000/svg">
  <sodipodi:namedview
     id="namedview15"
     pagecolor="#ffffff"
     bordercolor="#111111"
     borderopacity="1"
     inkscape:pageshadow="0"
     inkscape:pageopacity="0"
     inkscape:pagecheckerboard="1"
     showgrid="true"
     width="20px"
     inkscape:zoom="38.581514"
     inkscape:cx="4.6265681"
     inkscape:cy="10.263983"
     inkscape:window-width="2560"
     inkscape:window-height="1283"
     inkscape:window-x="0"
     inkscape:window-y="32"
     inkscape:window-maximized="1"
     inkscape:current-layer="svg13">
    <inkscape:grid
       type="xygrid"
       id="grid912" />
  </sodipodi:namedview>
  <defs
     id="defs4">
    <style
       id="style2">.cls-1{fill:#999;}</style>
  </defs>
  <path
     d="m 10.000187,3.0020598 c 0.437423,0 0.843587,0.2499532 1.062298,0.624875 L 17.81122,15.124781 c 0.218663,0.40618 0.218663,0.874845 0,1.249783 -0.218711,0.406164 -0.624875,0.624875 -1.062297,0.624875 H 3.2514515 c -0.4686627,0 -0.8748362,-0.218711 -1.0935453,-0.624875 -0.218709,-0.374938 -0.218709,-0.843603 0,-1.249783 L 8.9066483,3.6269348 c 0.218695,-0.3749218 0.624875,-0.624875 1.0935387,-0.624875 z m 0,3.999251 c -0.4374216,0 -0.7498591,0.3436796 -0.7498591,0.7498595 v 3.4993447 c 0,0.437422 0.3124375,0.74986 0.7498591,0.74986 0.40618,0 0.74986,-0.312438 0.74986,-0.74986 V 7.7511703 c 0,-0.4061799 -0.34368,-0.7498595 -0.74986,-0.7498595 z M 11,14 c 0,-0.531149 -0.468664,-0.999813 -0.999813,-0.999813 -0.5623902,0 -0.9998122,0.468664 -0.9998122,0.999813 0,0.562391 0.437422,0.999813 0.9998122,0.999813 C 10.531336,14.999813 11,14.562391 11,14 Z"
     id="path2"
     style="stroke-width:1.5997;fill:#fcfcfc;fill-opacity:1" />
</svg>
