<?xml version="1.0" encoding="UTF-8" standalone="no"?>
<!-- Created with Inkscape (http://www.inkscape.org/) -->

<svg
   id="svg2"
   viewBox="0 0 900 900"
   version="1.0"
   width="900"
   height="900"
   xmlns="http://www.w3.org/2000/svg"
   xmlns:svg="http://www.w3.org/2000/svg"
   xmlns:rdf="http://www.w3.org/1999/02/22-rdf-syntax-ns#"
   xmlns:cc="http://creativecommons.org/ns#"
   xmlns:dc="http://purl.org/dc/elements/1.1/">
  <title
     id="title1681">Polo-Short front</title>
  <defs
     id="defs32" />
  <g
     id="layer1"
     transform="translate(-21.75,-11.093)">
    <g
       id="g3327"
       transform="matrix(5.4671367,0,0,5.4671367,-297.17249,-3894.5691)"
       style="fill:#0000ff;fill-opacity:1">
      <path
         id="path3292"
         style="fill:#0000ff;fill-opacity:1;fill-rule:evenodd;stroke:#000000;stroke-width:2"
         d="m 126,724.61 c 11.26,1.51 20.64,1.15 29.25,0 l 5.25,7.25 c 22.64,8.58 35.77,7.65 60,21 -3.12,10.49 -3.71,21.99 -13,30 -7.75,-6.09 -15.5,-4.8 -23.25,-6.75 v 88.25 c -29.13,5.3 -58.04,6.67 -86.5,0 v -88.25 c -6.741,0.75 -12.342,0.2 -23.5,6 -8.376,-6.98 -10.991,-18.45 -13.5,-30 25.954,-11.67 39.005,-13.26 60.25,-19.75 z" />
      <path
         id="path3296"
         style="fill:#0000ff;fill-opacity:1;stroke:#000000;stroke-width:1px"
         d="m 125.5,725.61 c 2.74,8.06 6.68,14.68 12.75,18.75 l -7,7.75 c -7.73,-5.93 -8.17,-12.68 -10.25,-19.25" />
      <path
         id="path3298"
         style="fill:#0000ff;fill-opacity:1;stroke:#000000;stroke-width:1px"
         d="m 98.5,739.36 c 2.06,11.05 6.24,24.83 -0.25,36.5" />
      <path
         id="path3300"
         style="fill:#0000ff;fill-opacity:1;stroke:#000000;stroke-width:1px"
         d="m 100,745.86 22,-7.5" />
      <path
         id="path3302"
         style="fill:#0000ff;fill-opacity:1;stroke:#000000;stroke-width:1px"
         d="m 64.75,751 c 1.429,11.5 6.974,20.65 13,28.86" />
      <path
         id="path3304"
         style="fill:#0000ff;fill-opacity:1;stroke:#000000;stroke-width:1px"
         d="m 97.75,860.86 c 28.75,4.1 57.5,5.84 86.25,0" />
      <path
         id="path3314"
         style="fill:#0000ff;fill-opacity:1;stroke:#000000;stroke-width:1px"
         d="m 155.5,725.11 c -2.74,8.06 -6.68,14.68 -12.75,18.75 l 7,7.75 c 7.73,-5.93 8.17,-12.68 10.25,-19.25" />
      <path
         id="path3316"
         style="fill:#0000ff;fill-opacity:1;stroke:#000000;stroke-width:1px"
         d="m 183.5,739.11 c -2.06,11.05 -6.24,24.83 0.25,36.5" />
      <path
         id="path3318"
         style="fill:#0000ff;fill-opacity:1;stroke:#000000;stroke-width:1px"
         d="m 182,745.86 -23.5,-8" />
      <path
         id="path3320"
         style="fill:#0000ff;fill-opacity:1;stroke:#000000;stroke-width:1px"
         d="m 216.5,751.36 c -1.43,11.49 -6.97,20.04 -13,28.25" />
      <path
         id="path3322"
         style="fill:#0000ff;fill-opacity:1;stroke:#000000;stroke-width:1px"
         d="m 128.75,733.36 c 7.4,-2.31 14.94,-1.99 23,0" />
      <path
         id="rect3324"
         style="fill:#0000ff;fill-opacity:1;stroke:#000000;stroke-linecap:round"
         d="m 138.5,744.11 h 3.75 v 23.25 h -3.75 z" />
    </g>
  </g>
  <metadata
     id="metadata29">
    <rdf:RDF>
      <cc:Work>
        <dc:format>image/svg+xml</dc:format>
        <dc:type
           rdf:resource="http://purl.org/dc/dcmitype/StillImage" />
        <cc:license
           rdf:resource="http://creativecommons.org/publicdomain/zero/1.0/" />
        <dc:publisher>
          <cc:Agent
             rdf:about="http://openclipart.org/">
            <dc:title>Openclipart</dc:title>
          </cc:Agent>
        </dc:publisher>
        <dc:description>A polo shirt front</dc:description>
        <dc:source>https://openclipart.org/detail/12465/polo-shirt-template-by-nicubunu</dc:source>
        <dc:creator>
          <cc:Agent>
            <dc:title>nicubunu, Hartmut Goebel</dc:title>
          </cc:Agent>
        </dc:creator>
        <dc:subject>
          <rdf:Bag>
            <rdf:li>shirt</rdf:li>
            <rdf:li>polo-shirt</rdf:li>
          </rdf:Bag>
        </dc:subject>
        <dc:title>Polo-Short front</dc:title>
        <dc:date>2024-06-03</dc:date>
      </cc:Work>
      <cc:License
         rdf:about="http://creativecommons.org/publicdomain/zero/1.0/">
        <cc:permits
           rdf:resource="http://creativecommons.org/ns#Reproduction" />
        <cc:permits
           rdf:resource="http://creativecommons.org/ns#Distribution" />
        <cc:permits
           rdf:resource="http://creativecommons.org/ns#DerivativeWorks" />
      </cc:License>
    </rdf:RDF>
  </metadata>
</svg>
