<?xml version="1.0" encoding="UTF-8" standalone="no"?>
<!DOCTYPE svg PUBLIC "-//W3C//DTD SVG 1.1//EN"
 "http://www.w3.org/Graphics/SVG/1.1/DTD/svg11.dtd">
<!-- Generated by graphviz version 12.1.0 (20240811.2233)
 -->
<!-- Pages: 1 -->
<svg width="258pt" height="441pt"
 viewBox="0.00 0.00 258.35 440.52" xmlns="http://www.w3.org/2000/svg" xmlns:xlink="http://www.w3.org/1999/xlink">
<g id="graph0" class="graph" transform="scale(1 1) rotate(0) translate(4 436.52)">
<polygon fill="white" stroke="none" points="-4,4 -4,-436.52 254.35,-436.52 254.35,4 -4,4"/>
<g id="clust1" class="cluster">
<title>cluster_standalone</title>
<polygon fill="white" stroke="lightgrey" points="64.34,-8 64.34,-352.64 242.34,-352.64 242.34,-8 64.34,-8"/>
<text text-anchor="middle" x="153.34" y="-335.34" font-family="Times,serif" font-size="14.00">Standalone</text>
<text text-anchor="middle" x="153.34" y="-318.84" font-family="Times,serif" font-size="14.00">Trees &amp; Blobs</text>
</g>
<!-- 5ed380ef1d428a13bac2fa5fefc82d5a9c414818 -->
<g id="node1" class="node">
<title>5ed380ef1d428a13bac2fa5fefc82d5a9c414818</title>
<g id="a_node1"><a xlink:title="author: First Last &lt;first.last.mail.com&gt;&#10;Wed Mar 26 21:28:54 2025 +0100&#10;committer: Nom Prenom &lt;nom.prenom@mail.com&gt;&#10;Wed Mar 26 21:28:54 2025 +0100&#10;&#10;Third commit">
<polygon fill="darkorange" stroke="darkorange" points="171.19,-432.52 119.5,-432.52 119.5,-414.58 171.19,-414.58 171.19,-432.52"/>
<text text-anchor="middle" x="145.34" y="-418.5" font-family="Times,serif" font-size="14.00">5ed380ef</text>
</a>
</g>
</g>
<!-- ce29b5d39756a5dff91c556e632199cc88e909ed -->
<g id="node3" class="node">
<title>ce29b5d39756a5dff91c556e632199cc88e909ed</title>
<g id="a_node3"><a xlink:title="author: First Last &lt;first.last.mail.com&gt;&#10;Wed Mar 26 21:28:54 2025 +0100&#10;committer: Nom Prenom &lt;nom.prenom@mail.com&gt;&#10;Wed Mar 26 21:28:54 2025 +0100&#10;&#10;Second commit">
<polygon fill="darkorange" stroke="darkorange" points="145.31,-378.58 91.38,-378.58 91.38,-360.64 145.31,-360.64 145.31,-378.58"/>
<text text-anchor="middle" x="118.34" y="-364.56" font-family="Times,serif" font-size="14.00">ce29b5d3</text>
</a>
</g>
</g>
<!-- 5ed380ef1d428a13bac2fa5fefc82d5a9c414818&#45;&gt;ce29b5d39756a5dff91c556e632199cc88e909ed -->
<g id="edge7" class="edge">
<title>5ed380ef1d428a13bac2fa5fefc82d5a9c414818&#45;&gt;ce29b5d39756a5dff91c556e632199cc88e909ed</title>
<path fill="none" stroke="#1a1a1a" d="M141.13,-414.43C136.95,-406.4 130.48,-393.95 125.5,-384.37"/>
<polygon fill="#1a1a1a" stroke="#1a1a1a" points="127.18,-383.81 123.32,-380.18 124.07,-385.43 127.18,-383.81"/>
</g>
<!-- 3c4e9cd789d88d8d89c1073707c3585e41b0e614 -->
<g id="node7" class="node">
<title>3c4e9cd789d88d8d89c1073707c3585e41b0e614</title>
<g id="a_node7"><a xlink:title="3c4e9cd789d88d8d89c1073707c3585e41b0e614">
<polygon fill="#00688b" stroke="#00688b" points="210.94,-249.7 209.44,-251.69 198.98,-251.69 197.49,-249.7 157.75,-249.7 157.75,-231.76 210.94,-231.76 210.94,-249.7"/>
<text text-anchor="middle" x="184.34" y="-235.68" font-family="Times,serif" font-size="14.00">3c4e9cd7</text>
</a>
</g>
</g>
<!-- 5ed380ef1d428a13bac2fa5fefc82d5a9c414818&#45;&gt;3c4e9cd789d88d8d89c1073707c3585e41b0e614 -->
<g id="edge6" class="edge">
<title>5ed380ef1d428a13bac2fa5fefc82d5a9c414818&#45;&gt;3c4e9cd789d88d8d89c1073707c3585e41b0e614</title>
<path fill="none" stroke="#1a1a1a" d="M147.12,-414.31C153.24,-385.95 173.47,-292.15 181.25,-256.06"/>
<polygon fill="#1a1a1a" stroke="#1a1a1a" points="182.89,-256.75 182.24,-251.5 179.47,-256.02 182.89,-256.75"/>
</g>
<!-- 89d48e2d82dc8b351afdf65bc477d46ab30b1163 -->
<g id="node2" class="node">
<title>89d48e2d82dc8b351afdf65bc477d46ab30b1163</title>
<g id="a_node2"><a xlink:title="author: First Last &lt;first.last.mail.com&gt;&#10;Wed Mar 26 21:28:54 2025 +0100&#10;committer: Nom Prenom &lt;nom.prenom@mail.com&gt;&#10;Wed Mar 26 21:28:54 2025 +0100&#10;&#10;First commit">
<polygon fill="darkorange" stroke="darkorange" points="54.69,-249.7 0,-249.7 0,-231.76 54.69,-231.76 54.69,-249.7"/>
<text text-anchor="middle" x="27.34" y="-235.68" font-family="Times,serif" font-size="14.00">89d48e2d</text>
</a>
</g>
</g>
<!-- d8329fc1cc938780ffdd9f94e0d364e0ea74f579 -->
<g id="node8" class="node">
<title>d8329fc1cc938780ffdd9f94e0d364e0ea74f579</title>
<g id="a_node8"><a xlink:title="bak">
<polygon fill="#00688b" stroke="#00688b" points="214.56,-195.76 213.07,-197.75 202.61,-197.75 201.11,-195.76 162.12,-195.76 162.12,-177.82 214.56,-177.82 214.56,-195.76"/>
<text text-anchor="middle" x="188.34" y="-181.74" font-family="Times,serif" font-size="14.00">d8329fc1</text>
</a>
</g>
</g>
<!-- 89d48e2d82dc8b351afdf65bc477d46ab30b1163&#45;&gt;d8329fc1cc938780ffdd9f94e0d364e0ea74f579 -->
<g id="edge8" class="edge">
<title>89d48e2d82dc8b351afdf65bc477d46ab30b1163&#45;&gt;d8329fc1cc938780ffdd9f94e0d364e0ea74f579</title>
<path fill="none" stroke="#1a1a1a" d="M53.57,-231.27C81.64,-222.21 126.18,-207.84 156.31,-198.13"/>
<polygon fill="#1a1a1a" stroke="#1a1a1a" points="156.47,-199.91 160.69,-196.71 155.39,-196.58 156.47,-199.91"/>
</g>
<!-- ce29b5d39756a5dff91c556e632199cc88e909ed&#45;&gt;89d48e2d82dc8b351afdf65bc477d46ab30b1163 -->
<g id="edge10" class="edge">
<title>ce29b5d39756a5dff91c556e632199cc88e909ed&#45;&gt;89d48e2d82dc8b351afdf65bc477d46ab30b1163</title>
<path fill="none" stroke="#1a1a1a" d="M90.98,-366.74C80.2,-364.68 68.48,-360.61 60.34,-352.64 33.7,-326.54 28.35,-279.96 27.42,-256.33"/>
<polygon fill="#1a1a1a" stroke="#1a1a1a" points="29.17,-256.52 27.29,-251.56 25.67,-256.61 29.17,-256.52"/>
</g>
<!-- 0155eb4229851634a0f03eb265b69f5a2d56f341 -->
<g id="node4" class="node">
<title>0155eb4229851634a0f03eb265b69f5a2d56f341</title>
<g id="a_node4"><a xlink:title="0155eb4229851634a0f03eb265b69f5a2d56f341">
<polygon fill="#00688b" stroke="#00688b" points="145.69,-303.64 144.19,-305.63 133.73,-305.63 132.23,-303.64 91,-303.64 91,-285.7 145.69,-285.7 145.69,-303.64"/>
<text text-anchor="middle" x="118.34" y="-289.62" font-family="Times,serif" font-size="14.00">0155eb42</text>
</a>
</g>
</g>
<!-- ce29b5d39756a5dff91c556e632199cc88e909ed&#45;&gt;0155eb4229851634a0f03eb265b69f5a2d56f341 -->
<g id="edge9" class="edge">
<title>ce29b5d39756a5dff91c556e632199cc88e909ed&#45;&gt;0155eb4229851634a0f03eb265b69f5a2d56f341</title>
<path fill="none" stroke="#1a1a1a" d="M118.34,-360.24C118.34,-348.04 118.34,-325.19 118.34,-310.21"/>
<polygon fill="#1a1a1a" stroke="#1a1a1a" points="120.1,-310.45 118.35,-305.45 116.6,-310.45 120.1,-310.45"/>
</g>
<!-- 1f7a7a472abf3dd9643fd615f6da379c4acb3e3a -->
<g id="node5" class="node">
<title>1f7a7a472abf3dd9643fd615f6da379c4acb3e3a</title>
<g id="a_node5"><a xlink:title="test.txt">
<polygon fill="gray" stroke="gray" points="141.2,-195.76 92.5,-195.76 92.5,-177.82 144.19,-177.82 144.19,-192.77 141.2,-195.76"/>
<polyline fill="none" stroke="gray" points="141.2,-195.76 141.2,-192.77"/>
<polyline fill="none" stroke="gray" points="144.19,-192.77 141.2,-192.77"/>
<text text-anchor="middle" x="118.34" y="-181.74" font-family="Times,serif" font-size="14.00">1f7a7a47</text>
</a>
</g>
</g>
<!-- 0155eb4229851634a0f03eb265b69f5a2d56f341&#45;&gt;1f7a7a472abf3dd9643fd615f6da379c4acb3e3a -->
<g id="edge1" class="edge">
<title>0155eb4229851634a0f03eb265b69f5a2d56f341&#45;&gt;1f7a7a472abf3dd9643fd615f6da379c4acb3e3a</title>
<path fill="none" stroke="#1a1a1a" d="M118.34,-285.36C118.34,-267.42 118.34,-224.88 118.34,-202.36"/>
<polygon fill="#1a1a1a" stroke="#1a1a1a" points="120.1,-202.57 118.35,-197.57 116.6,-202.57 120.1,-202.57"/>
</g>
<!-- fa49b077972391ad58037050f2a75f74e3671e92 -->
<g id="node6" class="node">
<title>fa49b077972391ad58037050f2a75f74e3671e92</title>
<g id="a_node6"><a xlink:title="new.txt">
<polygon fill="gray" stroke="gray" points="176.57,-33.94 127.12,-33.94 127.12,-16 179.56,-16 179.56,-30.95 176.57,-33.94"/>
<polyline fill="none" stroke="gray" points="176.57,-33.94 176.57,-30.95"/>
<polyline fill="none" stroke="gray" points="179.56,-30.95 176.57,-30.95"/>
<text text-anchor="middle" x="153.34" y="-19.92" font-family="Times,serif" font-size="14.00">fa49b077</text>
</a>
</g>
</g>
<!-- 0155eb4229851634a0f03eb265b69f5a2d56f341&#45;&gt;fa49b077972391ad58037050f2a75f74e3671e92 -->
<g id="edge2" class="edge">
<title>0155eb4229851634a0f03eb265b69f5a2d56f341&#45;&gt;fa49b077972391ad58037050f2a75f74e3671e92</title>
<path fill="none" stroke="#1a1a1a" d="M112.09,-285.4C99.72,-268.21 73.34,-226.94 73.34,-187.79 73.34,-187.79 73.34,-187.79 73.34,-131.85 73.34,-90.73 112.24,-55.47 135.79,-37.9"/>
<polygon fill="#1a1a1a" stroke="#1a1a1a" points="136.61,-39.47 139.62,-35.11 134.55,-36.64 136.61,-39.47"/>
</g>
<!-- 0155eb4229851634a0f03eb265b69f5a2d56f341&#45;&gt;3c4e9cd789d88d8d89c1073707c3585e41b0e614 -->
<!-- 83baae61804e65cc73a7201a7252750c76066a30 -->
<g id="node9" class="node">
<title>83baae61804e65cc73a7201a7252750c76066a30</title>
<g id="a_node9"><a xlink:title="test.txt">
<polygon fill="gray" stroke="gray" points="176.95,-141.82 126.75,-141.82 126.75,-123.88 179.94,-123.88 179.94,-138.83 176.95,-141.82"/>
<polyline fill="none" stroke="gray" points="176.95,-141.82 176.95,-138.83"/>
<polyline fill="none" stroke="gray" points="179.94,-138.83 176.95,-138.83"/>
<text text-anchor="middle" x="153.34" y="-127.8" font-family="Times,serif" font-size="14.00">83baae61</text>
</a>
</g>
</g>
<!-- 1f7a7a472abf3dd9643fd615f6da379c4acb3e3a&#45;&gt;83baae61804e65cc73a7201a7252750c76066a30 -->
<!-- 3c4e9cd789d88d8d89c1073707c3585e41b0e614&#45;&gt;1f7a7a472abf3dd9643fd615f6da379c4acb3e3a -->
<g id="edge3" class="edge">
<title>3c4e9cd789d88d8d89c1073707c3585e41b0e614&#45;&gt;1f7a7a472abf3dd9643fd615f6da379c4acb3e3a</title>
<path fill="none" stroke="#1a1a1a" d="M173.74,-231.38C162.9,-222.85 145.95,-209.52 133.66,-199.84"/>
<polygon fill="#1a1a1a" stroke="#1a1a1a" points="134.91,-198.6 129.89,-196.88 132.74,-201.35 134.91,-198.6"/>
</g>
<!-- 3c4e9cd789d88d8d89c1073707c3585e41b0e614&#45;&gt;fa49b077972391ad58037050f2a75f74e3671e92 -->
<g id="edge5" class="edge">
<title>3c4e9cd789d88d8d89c1073707c3585e41b0e614&#45;&gt;fa49b077972391ad58037050f2a75f74e3671e92</title>
<path fill="none" stroke="#1a1a1a" d="M195.33,-231.35C204.79,-223.38 217.77,-210.45 223.34,-195.76 226.17,-188.31 224.52,-185.71 223.34,-177.82 215.93,-128.23 214.3,-113.99 190.34,-69.94 183.99,-58.26 174.22,-46.82 166.31,-38.54"/>
<polygon fill="#1a1a1a" stroke="#1a1a1a" points="167.96,-37.71 163.21,-35.36 165.45,-40.16 167.96,-37.71"/>
</g>
<!-- 3c4e9cd789d88d8d89c1073707c3585e41b0e614&#45;&gt;d8329fc1cc938780ffdd9f94e0d364e0ea74f579 -->
<g id="edge4" class="edge">
<title>3c4e9cd789d88d8d89c1073707c3585e41b0e614&#45;&gt;d8329fc1cc938780ffdd9f94e0d364e0ea74f579</title>
<path fill="none" stroke="#1a1a1a" d="M179.91,-231.61C178.69,-223.73 179.28,-211.6 181.14,-202.09"/>
<polygon fill="#1a1a1a" stroke="#1a1a1a" points="182.78,-202.76 182.26,-197.49 179.38,-201.93 182.78,-202.76"/>
</g>
<!-- 3c4e9cd789d88d8d89c1073707c3585e41b0e614&#45;&gt;d8329fc1cc938780ffdd9f94e0d364e0ea74f579 -->
<!-- d8329fc1cc938780ffdd9f94e0d364e0ea74f579&#45;&gt;83baae61804e65cc73a7201a7252750c76066a30 -->
<g id="edge11" class="edge">
<title>d8329fc1cc938780ffdd9f94e0d364e0ea74f579&#45;&gt;83baae61804e65cc73a7201a7252750c76066a30</title>
<path fill="none" stroke="#1a1a1a" d="M182.88,-177.67C177.41,-169.57 168.91,-156.95 162.43,-147.34"/>
<polygon fill="#1a1a1a" stroke="#1a1a1a" points="163.98,-146.5 159.74,-143.34 161.08,-148.46 163.98,-146.5"/>
</g>
<!-- d670460b4b4aece5915caf5c68d12f560a9fe3e4 -->
<g id="node10" class="node">
<title>d670460b4b4aece5915caf5c68d12f560a9fe3e4</title>
<g id="a_node10"><a xlink:title="d670460b4b4aece5915caf5c68d12f560a9fe3e4">
<polygon fill="gray" stroke="gray" points="178.07,-87.88 125.62,-87.88 125.62,-69.94 181.06,-69.94 181.06,-84.89 178.07,-87.88"/>
<polyline fill="none" stroke="gray" points="178.07,-87.88 178.07,-84.89"/>
<polyline fill="none" stroke="gray" points="181.06,-84.89 178.07,-84.89"/>
<text text-anchor="middle" x="153.34" y="-73.86" font-family="Times,serif" font-size="14.00">d670460b</text>
</a>
</g>
</g>
<!-- 83baae61804e65cc73a7201a7252750c76066a30&#45;&gt;d670460b4b4aece5915caf5c68d12f560a9fe3e4 -->
<!-- d670460b4b4aece5915caf5c68d12f560a9fe3e4&#45;&gt;fa49b077972391ad58037050f2a75f74e3671e92 -->
</g>
</svg>
