<?xml version="1.0" encoding="UTF-8" standalone="no"?>
<!DOCTYPE svg PUBLIC "-//W3C//DTD SVG 1.1//EN"
 "http://www.w3.org/Graphics/SVG/1.1/DTD/svg11.dtd">
<!-- Generated by graphviz version 12.1.0 (20240811.2233)
 -->
<!-- Pages: 1 -->
<svg width="218pt" height="188pt"
 viewBox="0.00 0.00 218.31 187.76" xmlns="http://www.w3.org/2000/svg" xmlns:xlink="http://www.w3.org/1999/xlink">
<g id="graph0" class="graph" transform="scale(1 1) rotate(0) translate(4 183.76)">
<polygon fill="white" stroke="none" points="-4,4 -4,-183.76 214.31,-183.76 214.31,4 -4,4"/>
<!-- 5ed380ef1d428a13bac2fa5fefc82d5a9c414818 -->
<g id="node1" class="node">
<title>5ed380ef1d428a13bac2fa5fefc82d5a9c414818</title>
<g id="a_node1"><a xlink:title="author: First Last &lt;first.last.mail.com&gt;&#10;Wed Mar 26 21:28:54 2025 +0100&#10;committer: Nom Prenom &lt;nom.prenom@mail.com&gt;&#10;Wed Mar 26 21:28:54 2025 +0100&#10;&#10;Third commit">
<polygon fill="#cdad00" stroke="#cdad00" points="199.06,-125.82 147.38,-125.82 147.38,-107.88 199.06,-107.88 199.06,-125.82"/>
<text text-anchor="middle" x="173.22" y="-111.8" font-family="Times,serif" font-size="14.00">5ed380ef</text>
</a>
</g>
</g>
<!-- ce29b5d39756a5dff91c556e632199cc88e909ed -->
<g id="node4" class="node">
<title>ce29b5d39756a5dff91c556e632199cc88e909ed</title>
<g id="a_node4"><a xlink:title="author: First Last &lt;first.last.mail.com&gt;&#10;Wed Mar 26 21:28:54 2025 +0100&#10;committer: Nom Prenom &lt;nom.prenom@mail.com&gt;&#10;Wed Mar 26 21:28:54 2025 +0100&#10;&#10;Second commit">
<polygon fill="#cdad00" stroke="#cdad00" points="142.19,-71.88 88.25,-71.88 88.25,-53.94 142.19,-53.94 142.19,-71.88"/>
<text text-anchor="middle" x="115.22" y="-57.86" font-family="Times,serif" font-size="14.00">ce29b5d3</text>
</a>
</g>
</g>
<!-- 5ed380ef1d428a13bac2fa5fefc82d5a9c414818&#45;&gt;ce29b5d39756a5dff91c556e632199cc88e909ed -->
<g id="edge1" class="edge">
<title>5ed380ef1d428a13bac2fa5fefc82d5a9c414818&#45;&gt;ce29b5d39756a5dff91c556e632199cc88e909ed</title>
<path fill="none" stroke="#1a1a1a" d="M163.9,-107.5C154.46,-99.05 139.75,-85.88 128.97,-76.22"/>
<polygon fill="#1a1a1a" stroke="#1a1a1a" points="130.34,-75.1 125.45,-73.07 128.01,-77.71 130.34,-75.1"/>
</g>
<!-- 89d48e2d82dc8b351afdf65bc477d46ab30b1163 -->
<g id="node2" class="node">
<title>89d48e2d82dc8b351afdf65bc477d46ab30b1163</title>
<g id="a_node2"><a xlink:title="author: First Last &lt;first.last.mail.com&gt;&#10;Wed Mar 26 21:28:54 2025 +0100&#10;committer: Nom Prenom &lt;nom.prenom@mail.com&gt;&#10;Wed Mar 26 21:28:54 2025 +0100&#10;&#10;First commit">
<polygon fill="#cdad00" stroke="#cdad00" points="102.56,-17.94 47.88,-17.94 47.88,0 102.56,0 102.56,-17.94"/>
<text text-anchor="middle" x="75.22" y="-3.92" font-family="Times,serif" font-size="14.00">89d48e2d</text>
</a>
</g>
</g>
<!-- HEAD -->
<g id="node3" class="node">
<title>HEAD</title>
<g id="a_node3"><a xlink:title="ce29b5d39756a5dff91c556e632199cc88e909ed">
<polygon fill="cornflowerblue" stroke="black" points="82.69,-125.82 43.75,-125.82 43.75,-107.88 82.69,-107.88 82.69,-125.82"/>
<text text-anchor="middle" x="63.22" y="-111.8" font-family="Times,serif" font-size="14.00">HEAD</text>
</a>
</g>
</g>
<!-- HEAD&#45;&gt;ce29b5d39756a5dff91c556e632199cc88e909ed -->
<g id="edge3" class="edge">
<title>HEAD&#45;&gt;ce29b5d39756a5dff91c556e632199cc88e909ed</title>
<path fill="none" stroke="#1a1a1a" d="M71.34,-107.73C79.69,-99.4 92.8,-86.3 102.52,-76.6"/>
<polygon fill="#1a1a1a" stroke="#1a1a1a" points="103.61,-77.98 105.91,-73.21 101.14,-75.51 103.61,-77.98"/>
</g>
<!-- ce29b5d39756a5dff91c556e632199cc88e909ed&#45;&gt;89d48e2d82dc8b351afdf65bc477d46ab30b1163 -->
<g id="edge4" class="edge">
<title>ce29b5d39756a5dff91c556e632199cc88e909ed&#45;&gt;89d48e2d82dc8b351afdf65bc477d46ab30b1163</title>
<path fill="none" stroke="#1a1a1a" d="M108.97,-53.79C102.67,-45.61 92.83,-32.84 85.4,-23.19"/>
<polygon fill="#1a1a1a" stroke="#1a1a1a" points="86.92,-22.29 82.48,-19.4 84.15,-24.43 86.92,-22.29"/>
</g>
<!-- 84051e4627444424724803d87d65f68ea2aaca2d -->
<g id="node5" class="node">
<title>84051e4627444424724803d87d65f68ea2aaca2d</title>
<g id="a_node5"><a xlink:title="Dimitar Dimitrov &lt;mail.mitko@gmail.com&gt;&#10;Wed Mar 26 21:28:54 2025 +0100&#10;&#10;First commit&#10;">
<polygon fill="pink" stroke="pink" points="70.44,-71.88 0,-71.88 0,-53.94 70.44,-53.94 70.44,-71.88"/>
<text text-anchor="middle" x="35.22" y="-57.86" font-family="Times,serif" font-size="14.00">first&#45;commit</text>
</a>
</g>
</g>
<!-- 84051e4627444424724803d87d65f68ea2aaca2d&#45;&gt;89d48e2d82dc8b351afdf65bc477d46ab30b1163 -->
<g id="edge2" class="edge">
<title>84051e4627444424724803d87d65f68ea2aaca2d&#45;&gt;89d48e2d82dc8b351afdf65bc477d46ab30b1163</title>
<path fill="none" stroke="#1a1a1a" d="M41.47,-53.79C47.77,-45.61 57.61,-32.84 65.04,-23.19"/>
<polygon fill="#1a1a1a" stroke="#1a1a1a" points="66.29,-24.43 67.96,-19.4 63.52,-22.29 66.29,-24.43"/>
</g>
<!-- local&#45;branch&#45;main -->
<g id="node6" class="node">
<title>local&#45;branch&#45;main</title>
<g id="a_node6"><a xlink:title="&#45;&gt; None">
<polygon fill="forestgreen" stroke="forestgreen" points="129.81,-125.82 100.62,-125.82 100.62,-107.88 129.81,-107.88 129.81,-125.82"/>
<text text-anchor="middle" x="115.22" y="-111.8" font-family="Times,serif" font-size="14.00">main</text>
</a>
</g>
</g>
<!-- local&#45;branch&#45;main&#45;&gt;ce29b5d39756a5dff91c556e632199cc88e909ed -->
<g id="edge5" class="edge">
<title>local&#45;branch&#45;main&#45;&gt;ce29b5d39756a5dff91c556e632199cc88e909ed</title>
<path fill="none" stroke="#1a1a1a" d="M115.22,-107.73C115.22,-99.93 115.22,-87.95 115.22,-78.49"/>
<polygon fill="#1a1a1a" stroke="#1a1a1a" points="116.97,-78.65 115.22,-73.65 113.47,-78.65 116.97,-78.65"/>
</g>
<!-- lwt&#45;third&#45;commit&#45;5ed380ef1d428a13bac2fa5fefc82d5a9c414818 -->
<g id="node7" class="node">
<title>lwt&#45;third&#45;commit&#45;5ed380ef1d428a13bac2fa5fefc82d5a9c414818</title>
<g id="a_node7"><a xlink:title="5ed380ef1d428a13bac2fa5fefc82d5a9c414818">
<polygon fill="lightcoral" stroke="lightcoral" points="210.31,-179.76 136.12,-179.76 136.12,-161.82 210.31,-161.82 210.31,-179.76"/>
<text text-anchor="middle" x="173.22" y="-165.74" font-family="Times,serif" font-size="14.00">third&#45;commit</text>
</a>
</g>
</g>
<!-- lwt&#45;third&#45;commit&#45;5ed380ef1d428a13bac2fa5fefc82d5a9c414818&#45;&gt;5ed380ef1d428a13bac2fa5fefc82d5a9c414818 -->
<g id="edge6" class="edge">
<title>lwt&#45;third&#45;commit&#45;5ed380ef1d428a13bac2fa5fefc82d5a9c414818&#45;&gt;5ed380ef1d428a13bac2fa5fefc82d5a9c414818</title>
<path fill="none" stroke="#1a1a1a" d="M173.22,-161.67C173.22,-153.87 173.22,-141.89 173.22,-132.43"/>
<polygon fill="#1a1a1a" stroke="#1a1a1a" points="174.97,-132.59 173.22,-127.59 171.47,-132.59 174.97,-132.59"/>
</g>
</g>
</svg>
