# Blender v2.82 (sub 7) OBJ File: ''
# www.blender.org
mtllib flamingo.mtl
o flamingo
v -0.260766 0.592077 0.038007
v -0.160766 0.630855 0.076917
v -0.139069 0.725969 0.134677
v -0.259440 0.708833 0.074206
v 0.048787 0.642156 0.076917
v 0.044903 0.725969 0.142838
v 0.137850 0.676315 0.048981
v 0.146243 0.725969 0.132942
v 0.036371 0.609025 0.003194
v 0.146482 0.648753 0.003707
v 0.355043 0.640113 0.012767
v 0.276637 0.704750 0.064889
v 0.355043 0.640113 0.003707
v -0.116222 0.831352 0.146088
v -0.213607 0.829174 0.094177
v 0.031212 0.831231 0.135076
v 0.119141 0.796814 0.119918
v 0.196723 0.746216 0.085321
v 0.302363 0.724757 0.003707
v 0.212900 0.779957 0.003707
v 0.146845 0.834242 0.003707
v 0.095903 0.870386 0.003707
v 0.095903 0.850475 0.070365
v -0.125940 0.884787 0.071396
v -0.191731 0.869922 0.060815
v 0.027457 0.871068 0.070365
v -0.322073 0.638064 0.046334
v -0.333281 0.590955 0.038007
v -0.283771 0.770239 0.003707
v -0.317272 0.667977 0.003707
v -0.390225 0.672324 0.042338
v -0.412666 0.656191 0.025341
v -0.369888 0.697715 0.003707
v -0.410066 0.750165 0.031343
v -0.435051 0.751101 0.025341
v -0.383317 0.749052 0.003707
v -0.369810 0.830245 0.023179
v -0.392878 0.843032 0.020558
v -0.353347 0.814238 0.004179
v -0.299342 0.919549 0.019177
v -0.319493 0.933407 0.017884
v -0.288533 0.907150 0.003457
v -0.260352 1.001296 0.018513
v -0.291049 1.001936 0.023765
v -0.248267 0.999469 0.003251
v -0.279061 1.057150 0.029129
v -0.307500 1.026772 0.038007
v -0.263956 1.076361 0.004632
v -0.334024 1.108859 0.037362
v -0.341725 1.038168 0.037749
v -0.320935 1.127755 0.003707
v -0.366239 1.084163 0.032943
v -0.366969 1.097753 0.032527
v -0.379245 1.096204 0.030668
v -0.380564 1.083543 0.030747
v -0.363786 1.130014 0.003707
v -0.377239 1.111170 0.030644
v -0.408525 1.099498 0.019584
v -0.388879 1.040984 0.030412
v -0.411973 1.038694 0.028000
v -0.408525 1.099498 0.003707
v -0.445822 1.077932 0.025269
v -0.431101 1.031685 0.022747
v -0.447876 1.087961 0.003707
v -0.475269 1.050946 0.014359
v -0.459412 1.023311 0.019992
v -0.485389 1.061286 0.003707
v -0.488441 1.007340 0.011047
v -0.478988 0.996781 0.019462
v -0.497691 1.010581 0.003707
v -0.496985 0.955843 0.003707
v -0.496950 0.962919 0.003707
v -0.147923 0.600429 -0.000261
v -0.072710 0.578876 0.018586
v -0.072710 0.578876 0.040099
v -0.045785 0.578876 0.040099
v -0.260814 0.579577 0.001406
v -0.156975 0.923352 0.003707
v -0.223138 0.876712 0.003707
v -0.004107 0.904726 0.003707
v -0.259249 0.836028 0.003707
v -0.333281 0.583494 0.003707
v -0.418083 0.652786 0.003707
v -0.442458 0.751038 0.003707
v -0.398643 0.845965 0.003707
v -0.324580 0.934875 0.003707
v -0.297413 1.000168 0.003707
v -0.307500 1.026773 0.003707
v -0.341765 1.023318 0.003707
v -0.389048 1.031552 0.003707
v -0.411973 1.038694 0.003707
v -0.428915 1.023114 0.003707
v -0.446831 1.020185 0.003707
v -0.472572 0.992418 0.003707
v -0.045546 0.578876 0.018586
v -0.260766 0.592077 -0.030594
v -0.259440 0.708833 -0.066793
v -0.139069 0.725969 -0.127264
v -0.160766 0.631294 -0.071005
v 0.044903 0.725969 -0.135425
v 0.048787 0.641539 -0.069957
v 0.146243 0.725969 -0.125529
v 0.137850 0.676315 -0.041567
v 0.276637 0.704750 -0.057476
v 0.355043 0.640113 -0.005354
v -0.213607 0.829174 -0.086764
v -0.116222 0.831352 -0.138675
v 0.031212 0.831231 -0.127663
v 0.119141 0.796814 -0.112504
v 0.196723 0.746216 -0.077907
v 0.095903 0.850475 -0.062951
v -0.191731 0.869922 -0.053402
v -0.125940 0.884787 -0.063983
v 0.027457 0.871068 -0.062951
v -0.333281 0.590955 -0.030594
v -0.322073 0.638064 -0.038921
v -0.413389 0.656113 -0.019471
v -0.388779 0.672481 -0.031838
v -0.433969 0.751531 -0.016367
v -0.410062 0.749541 -0.022419
v -0.392277 0.842620 -0.011149
v -0.369749 0.830126 -0.015414
v -0.319241 0.933139 -0.008356
v -0.299818 0.919930 -0.012342
v -0.291049 1.001936 -0.016352
v -0.261552 1.001063 -0.010188
v -0.307500 1.026772 -0.030594
v -0.278456 1.057265 -0.022179
v -0.341725 1.038168 -0.030335
v -0.334024 1.108859 -0.029948
v -0.366239 1.084163 -0.025529
v -0.380564 1.083543 -0.023334
v -0.379245 1.096204 -0.023255
v -0.366969 1.097753 -0.025114
v -0.377239 1.111170 -0.023231
v -0.388879 1.040984 -0.022999
v -0.411973 1.038694 -0.020586
v -0.408525 1.099498 -0.012171
v -0.431101 1.031685 -0.015333
v -0.445822 1.077932 -0.017856
v -0.459412 1.023311 -0.012579
v -0.475269 1.050946 -0.006946
v -0.478988 0.996781 -0.012049
v -0.488441 1.007340 -0.003633
v 0.016410 0.582405 -0.037857
v 0.016410 0.582405 -0.016345
v 0.031652 0.604602 -0.037857
v 0.220280 0.541160 -0.037857
v 0.220280 0.541160 -0.016345
v 0.274744 0.545302 -0.016345
v 0.031787 0.604799 -0.016345
v 0.274265 0.545266 -0.037857
v -0.093567 0.418473 -0.037858
v -0.093566 0.418473 -0.016345
v -0.078195 0.396075 -0.016345
v -0.078331 0.396272 -0.037858
v -0.119228 0.339048 -0.037858
v -0.119228 0.339048 -0.016345
v -0.083000 0.394627 -0.016345
v -0.083228 0.394697 -0.037857
v -0.168720 0.244791 -0.047255
v -0.168721 0.244792 -0.008043
v -0.082609 0.372949 -0.008043
v -0.083853 0.371244 -0.047255
v -0.166427 0.243117 -0.047255
v -0.166428 0.243117 -0.008043
v -0.075446 0.367719 -0.008043
v -0.076690 0.366014 -0.047255
v -0.077098 0.272068 0.018586
v -0.077098 0.272068 0.040099
v -0.049934 0.272068 0.018586
v -0.050173 0.272068 0.040099
v -0.079013 -0.039442 0.018586
v -0.079013 -0.039442 0.040099
v -0.051849 -0.039442 0.018586
v -0.052088 -0.039442 0.040099
v -0.083997 -0.049190 0.018586
v -0.083997 -0.049190 0.040099
v -0.056832 -0.049190 0.018586
v -0.057071 -0.049190 0.040099
v -0.202599 -0.060720 0.010239
v -0.202640 -0.060721 0.048446
v -0.050282 -0.055233 0.010239
v -0.050467 -0.055234 0.048446
v -0.202599 -0.064102 0.010239
v -0.202640 -0.064103 0.048446
v -0.050282 -0.064102 0.010239
v -0.050467 -0.064103 0.048446
vt 0.000000 0.000000
vt 1.000000 0.000000
vt 1.000000 1.000000
vt 0.000000 1.000000
vt 0.372000 0.628000
vt 1.000000 1.000000
vt 0.000000 1.000000
vt 1.000000 1.000000
vt 0.000000 1.000000
vt 1.000000 1.000000
vt 0.000000 1.000000
vt 1.000000 1.000000
vt 1.000000 1.000000
vt 1.000000 1.000000
vt 1.000000 0.057100
vt 1.000000 0.043400
vt 1.000000 1.000000
vt 1.000000 0.030600
vt 1.000000 0.052700
vt 1.000000 1.000000
vt 0.000000 1.000000
vt 1.000000 1.000000
vt 1.000000 1.000000
vt 0.000000 1.000000
vt 0.000000 0.000000
vt 0.000000 0.044400
vt 0.000000 0.092100
vt 0.000000 1.000000
vt 0.000000 0.000000
vt 0.000000 0.103300
vt 0.000000 1.000000
vt 0.000000 0.000000
vt 0.000000 0.131400
vt 0.000000 1.000000
vt 0.000000 0.000000
vt 0.000000 0.193300
vt 0.000000 1.000000
vt 0.000000 0.000000
vt 0.000000 0.169900
vt 0.000000 1.000000
vt 0.000000 0.000000
vt 0.000000 0.169900
vt 0.000000 1.000000
vt 0.000000 0.000000
vt 0.000000 0.125200
vt 0.000000 1.000000
vt 0.000000 0.000000
vt 0.000000 0.125200
vt 0.000000 0.125200
vt 0.000000 1.000000
vt 0.000000 0.812400
vt 0.000000 1.000000
vt 0.000000 0.595300
vt 0.000000 0.000000
vt 0.000000 0.000000
vt 0.000000 0.247200
vt 1.000000 0.027500
vt 1.000000 0.000000
vt 1.000000 1.000000
vt 1.000000 1.000000
vt 0.744000 1.000000
vt 0.000000 0.692500
vt 0.000000 0.850100
vt 0.000000 0.290300
vt 0.000000 0.051900
vt 1.000000 0.060900
vt 1.000000 0.052700
vt 1.000000 0.040700
vt 0.000000 1.000000
vt 0.000000 1.000000
vt 0.000000 0.127900
vt 0.000000 0.097500
vt 0.000000 1.000000
vt 0.000000 0.170600
vt 0.000000 1.000000
vt 0.000000 0.170600
vt 0.000000 1.000000
vt 0.000000 0.200700
vt 0.000000 1.000000
vt 0.000000 0.164400
vt 0.000000 1.000000
vt 0.000000 0.132200
vt 0.000000 1.000000
vt 0.000000 0.097500
vt 0.000000 1.000000
vt 0.000000 0.097500
vt 0.000000 1.000000
vt 0.000000 0.097500
vt 0.000000 1.000000
vt 0.000000 0.156300
vt 0.741900 0.000000
vt 0.559900 0.023100
vt 0.744000 1.000000
vt 0.000000 0.000000
vt 0.000000 1.000000
vt 1.000000 1.000000
vt 1.000000 0.000000
vt 1.000000 1.000000
vt 0.372000 0.628000
vt 1.000000 1.000000
vt 0.000000 1.000000
vt 1.000000 1.000000
vt 0.000000 1.000000
vt 1.000000 1.000000
vt 0.000000 1.000000
vt 1.000000 1.000000
vt 1.000000 1.000000
vt 1.000000 1.000000
vt 1.000000 1.000000
vt 1.000000 1.000000
vt 0.000000 1.000000
vt 1.000000 1.000000
vt 0.000000 0.000000
vt 0.000000 1.000000
vt 0.000000 0.000000
vt 0.000000 1.000000
vt 0.000000 0.000000
vt 0.000000 1.000000
vt 0.000000 0.000000
vt 0.000000 1.000000
vt 0.000000 0.000000
vt 0.000000 1.000000
vt 0.000000 0.000000
vt 0.000000 1.000000
vt 0.000000 0.000000
vt 0.000000 1.000000
vt 0.000000 0.000000
vt 0.000000 1.000000
vt 0.000000 1.000000
vt 0.000000 0.000000
vt 0.000000 0.000000
vt 0.000000 1.000000
vt 0.000000 0.595300
vt 0.000000 0.812400
vt 0.000000 0.850100
vt 0.000000 0.692500
vt 0.000000 1.000000
vt 0.000000 1.000000
vt 0.000000 1.000000
vt 0.000000 1.000000
vt 0.000000 1.000000
vt 0.000000 1.000000
vt 0.000000 1.000000
vt 0.000000 1.000000
vt 0.000000 1.000000
vt 0.000000 1.000000
vt 0.000000 1.000000
vt 1.000000 1.000000
vt 1.000000 1.000000
vt 1.000000 0.000000
vt 1.000000 0.014300
vt 0.496000 0.752000
vt 0.744000 1.000000
vt 0.741900 0.000000
vt 0.371000 0.044800
vt 0.000000 0.067400
vt 0.000000 0.223800
vt 0.000000 0.287200
vt 0.000000 1.000000
vt 0.000000 1.000000
vt 0.000000 0.335500
vt 0.000000 1.000000
vt 0.000000 0.462400
vt 0.000000 0.000000
vt 0.000000 0.626700
vt 0.000000 0.778100
vt 0.000000 0.190400
vt 0.000000 1.000000
vt 0.000000 0.577500
vt 0.000000 1.000000
vt 0.000000 1.000000
vt 0.000000 1.000000
vt 0.000000 0.000000
vt 1.000000 0.055000
vt 0.000000 1.000000
vt 0.000000 0.000000
vt 0.000000 0.000000
vt 0.000000 1.000000
vt 0.000000 0.174000
vt 0.000000 1.000000
vt 0.000000 0.187400
vt 0.000000 0.000000
vt 0.000000 0.000000
vt 0.000000 1.000000
vt 0.000000 1.000000
vt 1.000000 1.000000
vt 1.000000 0.000000
vt 0.741900 0.000000
vt 0.744000 1.000000
vt 1.000000 1.000000
vt 1.000000 0.000000
vt 0.741900 0.000000
vt 0.744000 1.000000
vt 1.000000 1.000000
vt 1.000000 0.000000
vt 0.741900 0.000000
vt 0.744000 1.000000
vt 1.000000 1.000000
vt 1.000000 0.000000
vt 0.741900 0.000000
vt 0.744000 1.000000
vt 1.000000 1.000000
vt 1.000000 0.000000
vt 0.741900 0.000000
vt 0.744000 1.000000
vt 1.000000 0.000000
vt 1.000000 1.000000
vt 0.741900 0.000000
vt 0.744000 1.000000
vt 1.000000 0.000000
vt 1.000000 1.000000
vt 0.741900 0.000000
vt 0.744000 1.000000
vt 1.000000 0.000000
vt 1.000000 1.000000
vt 0.741900 0.000000
vt 0.744000 1.000000
vt 1.000000 0.000000
vt 1.000000 1.000000
vt 0.741900 0.000000
vt 0.744000 1.000000
vt 1.000000 0.000000
vt 1.000000 1.000000
vt 0.741900 0.000000
vt 0.744000 1.000000
vn -0.0077 -0.7456 0.6664
vn -0.1235 -0.6241 0.7715
vn -0.2115 -0.2404 0.9474
vn -0.6089 -0.0076 0.7932
vn 0.2328 -0.7505 0.6185
vn 0.1161 -0.3077 0.9444
vn 0.1831 -0.8104 0.5565
vn 0.3502 -0.2001 0.9151
vn 0.4863 -0.2936 0.8230
vn 0.5260 0.0579 0.8485
vn -0.1642 0.4237 0.8908
vn -0.5973 0.4072 0.6910
vn 0.1529 0.5091 0.8470
vn 0.4200 0.5266 0.7391
vn 0.7013 0.7128 0.0000
vn 0.6006 0.7996 0.0000
vn 0.5487 0.6049 0.5772
vn 0.6632 0.7484 -0.0000
vn 0.4861 0.8739 -0.0000
vn 0.4580 0.7933 0.4011
vn -0.1626 0.8340 0.5272
vn -0.4614 0.7288 0.5060
vn 0.2063 0.8680 0.4518
vn -0.2127 0.0641 0.9750
vn -0.2957 -0.6967 0.6536
vn -0.9394 0.3427 0.0000
vn -0.4786 0.8780 -0.0038
vn 0.0051 0.1494 0.9888
vn -0.6814 -0.3986 0.6139
vn 0.7745 0.6324 -0.0118
vn 0.1507 0.0384 0.9878
vn -0.7329 0.0813 0.6755
vn 0.9994 -0.0315 -0.0116
vn 0.2610 -0.1155 0.9584
vn -0.5434 0.3717 0.7527
vn 0.8797 -0.4756 0.0018
vn 0.3661 -0.1953 0.9099
vn -0.4766 0.2812 0.8330
vn 0.8622 -0.5065 -0.0127
vn 0.5685 -0.0899 0.8178
vn -0.3979 -0.1795 0.8997
vn 0.9939 -0.1095 -0.0116
vn 0.5081 0.1863 0.8409
vn -0.0868 -0.4834 0.8711
vn 0.8565 0.5160 0.0097
vn 0.1493 0.4820 0.8633
vn -0.0787 -0.5277 0.8458
vn 0.4009 0.9161 0.0039
vn -0.1829 0.9831 0.0000
vn -0.3148 0.5628 0.7643
vn -0.2521 0.0339 0.9671
vn -0.3955 0.6168 0.6806
vn -0.2132 0.0504 0.9757
vn -0.2061 -0.5437 0.8136
vn 0.0229 -0.5433 0.8393
vn -0.4460 0.8950 0.0000
vn -0.0499 -0.9970 -0.0594
vn -0.4176 -0.6085 -0.6748
vn -0.3982 -0.5446 0.7381
vn 0.4319 -0.5290 0.7305
vn -0.1524 0.0220 0.9881
vn 0.8752 -0.4829 0.0286
vn -0.2305 0.9731 0.0011
vn -0.6048 0.7934 0.0681
vn 0.1795 0.9838 0.0000
vn -0.8706 0.4919 0.0000
vn -0.3377 -0.9412 0.0018
vn 0.1156 -0.9932 -0.0151
vn -0.8484 -0.5294 0.0004
vn -0.9957 0.0906 -0.0168
vn -0.8451 0.5333 -0.0363
vn -0.8565 0.5153 -0.0299
vn -0.9987 -0.0509 -0.0082
vn -0.5604 -0.8282 0.0000
vn -0.1307 -0.9914 0.0000
vn -0.1308 -0.9914 0.0000
vn 0.2084 -0.9780 0.0000
vn 0.4681 -0.5935 -0.6547
vn 0.4310 -0.8812 0.1941
vn -0.0230 -0.7319 -0.6810
vn -0.5829 0.0280 -0.8121
vn -0.2100 -0.2396 -0.9479
vn -0.1564 -0.6893 -0.7074
vn 0.1171 -0.3049 -0.9452
vn 0.2502 -0.6977 -0.6713
vn 0.3511 -0.1989 -0.9150
vn 0.1856 -0.8098 -0.5565
vn 0.5513 0.0463 -0.8330
vn 0.4602 -0.3496 -0.8161
vn -0.5973 0.4072 -0.6910
vn -0.1642 0.4237 -0.8908
vn 0.1529 0.5091 -0.8470
vn 0.4200 0.5266 -0.7391
vn 0.5487 0.6049 -0.5771
vn 0.4580 0.7933 -0.4011
vn -0.4604 0.7296 -0.5057
vn -0.1126 0.8142 -0.5695
vn 0.2063 0.8680 -0.4518
vn -0.2950 -0.6880 -0.6631
vn -0.2093 0.0759 -0.9749
vn -0.6697 -0.3803 -0.6379
vn 0.0324 0.1773 -0.9836
vn -0.7089 0.0954 -0.6989
vn 0.1503 0.0503 -0.9874
vn -0.5373 0.3659 -0.7599
vn 0.2320 -0.0998 -0.9676
vn -0.4854 0.2817 -0.8277
vn 0.3297 -0.1744 -0.9278
vn -0.3949 -0.1862 -0.8996
vn 0.5533 -0.0879 -0.8283
vn -0.0842 -0.4881 -0.8687
vn 0.5138 0.1858 -0.8376
vn -0.0813 -0.5280 -0.8453
vn 0.1522 0.4858 -0.8607
vn -0.3148 0.5628 -0.7643
vn -0.2061 -0.5436 -0.8136
vn 0.0229 -0.5433 -0.8393
vn -0.3955 0.6168 -0.6806
vn -0.2132 0.0504 -0.9757
vn -0.2521 0.0339 -0.9671
vn -0.1524 0.0220 -0.9881
vn -0.0867 -0.7792 -0.6207
vn -0.0846 -0.8855 0.4568
vn 0.5105 -0.1604 -0.8448
vn 0.6673 -0.2223 0.7108
vn 0.1664 -0.9861 0.0013
vn -0.5214 0.8533 0.0000
vn -0.8336 0.5524 0.0000
vn -0.4806 0.2233 0.8480
vn -0.3294 0.4317 0.8397
vn -0.9929 0.1189 0.0000
vn -0.5499 0.0697 0.8323
vn -0.3276 -0.9448 0.0000
vn 0.0655 -0.3112 0.9481
vn -1.0000 0.0033 0.0000
vn 0.7997 -0.6004 0.0000
vn -0.3294 0.4317 -0.8397
vn -0.4806 0.2233 -0.8480
vn -0.5499 0.0697 -0.8323
vn 0.0655 -0.3112 -0.9481
vn 0.1746 -0.5788 0.7966
vn 0.0630 -0.3462 0.9360
vn 0.3628 -0.9319 -0.0000
vn 0.4273 -0.9041 0.0000
vn 0.1746 -0.5788 -0.7966
vn 0.0630 -0.3462 -0.9360
vn -0.1529 -0.0133 -0.9882
vn -0.1529 -0.0133 0.9882
vn 0.8439 0.0676 0.5322
vn 0.8293 0.0665 -0.5548
vn -0.5700 0.5367 -0.6222
vn -0.5700 0.5367 0.6222
vn 0.2483 -0.6778 0.6920
vn 0.2453 -0.6702 -0.7005
vn -0.7937 0.4022 -0.4564
vn -0.7819 0.3934 0.4836
vn 0.5429 -0.3388 0.7684
vn 0.5333 -0.3278 -0.7798
vn -0.7892 -0.1813 -0.5867
vn -0.7893 -0.1815 0.5866
vn 0.2429 0.4990 0.8319
vn 0.1843 0.5018 -0.8451
vn 0.1258 -0.8067 -0.5774
vn 0.1258 -0.8068 0.5773
vn 0.8144 0.1410 0.5630
vn 0.7990 0.1103 -0.5912
vn -0.7080 0.0072 -0.7062
vn -0.7080 0.0072 0.7062
vn 0.7101 -0.0073 -0.7041
vn 0.7022 -0.0072 0.7119
vn -0.6280 0.1533 -0.7630
vn -0.6280 0.1533 0.7630
vn 0.7345 -0.1790 -0.6546
vn 0.7276 -0.1779 0.6626
vn -0.2808 0.8026 -0.5264
vn -0.2808 0.8026 0.5262
vn 0.5635 0.5056 -0.6533
vn 0.5570 0.5024 0.6613
vn -0.6005 0.5472 -0.5831
vn -0.6012 0.5470 0.5825
vn 0.6299 0.4150 -0.6565
vn 0.6282 0.4139 0.6588
vn -0.5770 -0.5774 -0.5776
vn -0.5777 -0.5773 0.5771
vn 0.5789 -0.5771 -0.5761
vn 0.5758 -0.5776 0.5786
g flamingo_flamingo_01___Default
usemtl 01___Default
s 1
f 1/1/1 2/2/2 3/3/3 4/4/4
f 3/3/3 2/2/2 5/5/5 6/6/6
f 6/6/6 5/5/5 7/7/7 8/8/8
f 8/8/8 7/7/7 11/9/9 12/10/10
f 4/4/4 3/3/3 14/11/11 15/12/12
f 3/3/3 6/6/6 16/13/13 14/11/11
f 6/6/6 8/8/8 17/14/14 16/13/13
f 12/10/10 19/15/15 20/16/16 18/17/17
f 21/18/18 22/19/19 23/20/20 17/14/14
f 15/12/12 14/11/11 24/21/21 25/22/22
f 14/11/11 16/13/13 26/23/23 24/21/21
f 16/13/13 17/14/14 23/20/20 26/23/23
f 1/1/1 4/4/4 27/24/24 28/25/25
f 4/4/4 29/26/26 30/27/27 27/24/24
f 28/25/25 27/24/24 31/28/28 32/29/29
f 30/27/27 33/30/30 31/28/28 27/24/24
f 32/29/29 31/28/28 34/31/31 35/32/32
f 33/30/30 36/33/33 34/31/31 31/28/28
f 35/32/32 34/31/31 37/34/34 38/35/35
f 36/33/33 39/36/36 37/34/34 34/31/31
f 38/35/35 37/34/34 40/37/37 41/38/38
f 37/34/34 39/36/36 42/39/39 40/37/37
f 41/38/38 40/37/37 43/40/40 44/41/41
f 40/37/37 42/39/39 45/42/42 43/40/40
f 44/41/41 43/40/40 46/43/43 47/44/44
f 45/42/42 48/45/45 46/43/43 43/40/40
f 47/44/44 46/43/43 49/46/46 50/47/47
f 48/45/45 51/48/48 49/46/46 46/43/43
f 49/46/46 51/48/48 56/49/49 57/50/50
f 54/51/51 57/50/50 58/52/52 55/53/53
f 59/54/54 55/53/53 58/52/52 60/55/55
f 57/50/50 56/49/49 61/56/56 58/52/52
f 73/57/57 74/58/58 75/59/59 2/60/2
f 5/5/5 2/2/2 75/59/59 76/61/60
f 52/62/61 55/53/53 59/54/54 50/47/47
f 52/62/61 50/47/47 49/46/46 53/63/61
f 53/63/61 49/46/46 57/50/50 54/51/51
f 19/15/15 12/10/10 11/9/9 13/64/62
f 25/22/22 24/21/21 78/65/63 79/66/64
f 24/21/21 26/23/23 80/67/65 78/65/63
f 26/23/23 23/20/20 22/19/19 80/67/65
f 21/18/18 17/14/14 18/17/17 20/16/16
f 29/26/26 4/4/4 15/12/12 81/68/66
f 81/68/66 15/12/12 25/22/22 79/66/64
f 1/69/1 28/70/25 82/71/67 77/72/68
f 82/71/67 28/70/25 32/73/29 83/74/69
f 32/73/29 35/75/32 84/76/70 83/74/69
f 35/75/32 38/77/35 85/78/71 84/76/70
f 38/77/35 41/79/38 86/80/72 85/78/71
f 41/79/38 44/81/41 87/82/73 86/80/72
f 44/81/41 47/83/44 88/84/74 87/82/73
f 47/83/44 50/85/47 89/86/75 88/84/74
f 50/85/47 59/87/54 90/88/76 89/86/75
f 90/88/76 59/87/54 60/89/55 91/90/77
f 95/91/78 74/58/58 73/57/57 9/92/79
f 76/61/60 95/91/78 9/92/79 5/93/5
f 96/94/80 97/95/81 98/96/82 99/97/83
f 98/96/82 100/98/84 101/99/85 99/97/83
f 100/98/84 102/100/86 103/101/87 101/99/85
f 102/100/86 104/102/88 105/103/89 103/101/87
f 97/95/81 106/104/90 107/105/91 98/96/82
f 98/96/82 107/105/91 108/106/92 100/98/84
f 100/98/84 108/106/92 109/107/93 102/100/86
f 104/102/88 110/108/94 20/16/16 19/15/15
f 21/18/18 109/107/93 111/109/95 22/19/19
f 106/104/90 112/110/96 113/111/97 107/105/91
f 107/105/91 113/111/97 114/112/98 108/106/92
f 108/106/92 114/112/98 111/109/95 109/107/93
f 96/94/80 115/113/99 116/114/100 97/95/81
f 97/95/81 116/114/100 30/27/27 29/26/26
f 115/113/99 117/115/101 118/116/102 116/114/100
f 30/27/27 116/114/100 118/116/102 33/30/30
f 117/115/101 119/117/103 120/118/104 118/116/102
f 33/30/30 118/116/102 120/118/104 36/33/33
f 119/117/103 121/119/105 122/120/106 120/118/104
f 36/33/33 120/118/104 122/120/106 39/36/36
f 121/119/105 123/121/107 124/122/108 122/120/106
f 122/120/106 124/122/108 42/39/39 39/36/36
f 123/121/107 125/123/109 126/124/110 124/122/108
f 124/122/108 126/124/110 45/42/42 42/39/39
f 125/123/109 127/125/111 128/126/112 126/124/110
f 45/42/42 126/124/110 128/126/112 48/45/45
f 127/125/111 129/127/113 130/128/114 128/126/112
f 48/45/45 128/126/112 130/128/114 51/48/48
f 130/128/114 135/129/115 56/49/49 51/48/48
f 136/130/116 137/131/117 138/132/118 132/133/119
f 138/132/118 135/129/115 133/134/120 132/133/119
f 135/129/115 138/132/118 61/56/56 56/49/49
f 134/135/121 133/134/120 135/129/115 130/128/114
f 136/130/116 132/133/119 131/136/121 129/127/113
f 130/128/114 129/127/113 131/136/121 134/135/121
f 19/15/15 13/64/62 105/103/89 104/102/88
f 112/110/96 79/66/64 78/65/63 113/111/97
f 113/111/97 78/65/63 80/67/65 114/112/98
f 114/112/98 80/67/65 22/19/19 111/109/95
f 21/18/18 20/16/16 110/108/94 109/107/93
f 29/26/26 81/68/66 106/104/90 97/95/81
f 81/68/66 79/66/64 112/110/96 106/104/90
f 96/137/80 77/72/68 82/71/67 115/138/99
f 82/71/67 83/74/69 117/139/101 115/138/99
f 117/139/101 83/74/69 84/76/70 119/140/103
f 119/140/103 84/76/70 85/78/71 121/141/105
f 121/141/105 85/78/71 86/80/72 123/142/107
f 123/142/107 86/80/72 87/82/73 125/143/109
f 125/143/109 87/82/73 88/84/74 127/144/111
f 127/144/111 88/84/74 89/86/75 129/145/113
f 129/145/113 89/86/75 90/88/76 136/146/116
f 90/88/76 91/90/77 137/147/117 136/146/116
f 99/148/83 145/149/122 146/150/123 73/151/57
f 99/97/83 101/152/85 147/153/124 145/149/122
f 151/154/125 9/92/79 73/151/57 146/150/123
f 9/92/79 151/154/125 147/153/124 101/152/85
g flamingo_flamingo_03___Default
usemtl 03___Default
f 9/155/79 10/156/126 7/7/7 5/5/5
f 10/156/126 13/64/62 11/9/9 7/7/7
f 52/62/61 53/63/61 54/51/51 55/53/53
f 64/157/127 67/158/128 65/159/129 62/160/130
f 65/159/129 67/158/128 70/161/131 68/162/132
f 71/163/133 69/164/134 68/162/132 72/165/135
f 68/162/132 70/161/131 72/166/135
f 73/57/57 2/60/2 1/69/1 77/72/68
f 94/167/136 69/168/134 71/169/133
f 9/155/79 101/99/85 103/101/87 10/156/126
f 10/156/126 103/101/87 105/103/89 13/64/62
f 131/136/121 132/133/119 133/134/120 134/135/121
f 64/157/127 140/170/137 142/171/138 67/158/128
f 142/171/138 144/172/139 70/161/131 67/158/128
f 71/163/133 72/165/135 144/172/139 143/173/140
f 144/172/139 72/166/135 70/161/131
f 73/174/57 77/72/68 96/137/80 99/148/83
f 94/167/136 71/169/133 143/175/140
g flamingo_flamingo_01___Pink
usemtl 01___Pink
f 8/8/8 12/10/10 18/17/17 17/14/14
f 60/55/55 58/52/52 62/160/130 63/176/141
f 58/52/52 61/56/56 64/157/127 62/160/130
f 63/176/141 62/160/130 65/159/129 66/177/142
f 66/177/142 65/159/129 68/162/132 69/164/134
f 91/90/77 60/89/55 63/178/141 92/179/143
f 63/178/141 66/180/142 93/181/144 92/179/143
f 66/180/142 69/168/134 94/167/136 93/181/144
f 102/100/86 109/107/93 110/108/94 104/102/88
f 137/131/117 139/182/145 140/170/137 138/132/118
f 138/132/118 140/170/137 64/157/127 61/56/56
f 139/182/145 141/183/146 142/171/138 140/170/137
f 141/183/146 143/173/140 144/172/139 142/171/138
f 91/90/77 92/179/143 139/184/145 137/147/117
f 139/184/145 92/179/143 93/181/144 141/185/146
f 141/185/146 93/181/144 94/167/136 143/175/140
f 145/149/122 148/186/147 149/187/148 146/150/123
f 146/150/123 149/187/148 150/188/149 151/154/125
f 151/154/125 150/188/149 152/189/150 147/153/124
f 147/153/124 152/189/150 148/186/147 145/149/122
f 148/186/147 153/190/151 154/191/152 149/187/148
f 149/187/148 154/191/152 155/192/153 150/188/149
f 150/188/149 155/192/153 156/193/154 152/189/150
f 152/189/150 156/193/154 153/190/151 148/186/147
f 153/190/151 157/194/155 158/195/156 154/191/152
f 154/191/152 158/195/156 159/196/157 155/192/153
f 155/192/153 159/196/157 160/197/158 156/193/154
f 156/193/154 160/197/158 157/194/155 153/190/151
f 157/194/155 161/198/159 162/199/160 158/195/156
f 158/195/156 162/199/160 163/200/161 159/196/157
f 159/196/157 163/200/161 164/201/162 160/197/158
f 160/197/158 164/201/162 161/198/159 157/194/155
f 161/198/159 165/202/163 166/203/164 162/199/160
f 162/199/160 166/203/164 167/204/165 163/200/161
f 163/200/161 167/204/165 168/205/166 164/201/162
f 164/201/162 168/205/166 165/202/163 161/198/159
f 167/204/165 166/203/164 165/202/163 168/205/166
f 75/59/59 74/58/58 169/206/167 170/207/168
f 74/58/58 95/91/78 171/208/169 169/206/167
f 95/91/78 76/61/60 172/209/170 171/208/169
f 76/61/60 75/59/59 170/207/168 172/209/170
f 170/207/168 169/206/167 173/210/171 174/211/172
f 169/206/167 171/208/169 175/212/173 173/210/171
f 171/208/169 172/209/170 176/213/174 175/212/173
f 172/209/170 170/207/168 174/211/172 176/213/174
f 174/211/172 173/210/171 177/214/175 178/215/176
f 173/210/171 175/212/173 179/216/177 177/214/175
f 175/212/173 176/213/174 180/217/178 179/216/177
f 176/213/174 174/211/172 178/215/176 180/217/178
f 178/215/176 177/214/175 181/218/179 182/219/180
f 177/214/175 179/216/177 183/220/181 181/218/179
f 179/216/177 180/217/178 184/221/182 183/220/181
f 180/217/178 178/215/176 182/219/180 184/221/182
f 182/219/180 181/218/179 185/222/183 186/223/184
f 181/218/179 183/220/181 187/224/185 185/222/183
f 183/220/181 184/221/182 188/225/186 187/224/185
f 184/221/182 182/219/180 186/223/184 188/225/186
f 187/224/185 188/225/186 186/223/184 185/222/183
