<svg class="rich-terminal" viewBox="0 0 1214 684.4" xmlns="http://www.w3.org/2000/svg">
    <!-- Generated with Rich https://www.textualize.io -->
    <style>

    @font-face {
        font-family: "Fira Code";
        src: local("FiraCode-Regular"),
                url("https://cdnjs.cloudflare.com/ajax/libs/firacode/6.2.0/woff2/FiraCode-Regular.woff2") format("woff2"),
                url("https://cdnjs.cloudflare.com/ajax/libs/firacode/6.2.0/woff/FiraCode-Regular.woff") format("woff");
        font-style: normal;
        font-weight: 400;
    }
    @font-face {
        font-family: "Fira Code";
        src: local("FiraCode-Bold"),
                url("https://cdnjs.cloudflare.com/ajax/libs/firacode/6.2.0/woff2/FiraCode-Bold.woff2") format("woff2"),
                url("https://cdnjs.cloudflare.com/ajax/libs/firacode/6.2.0/woff/FiraCode-Bold.woff") format("woff");
        font-style: bold;
        font-weight: 700;
    }

    .terminal-1031983630-matrix {
        font-family: Fira Code, monospace;
        font-size: 20px;
        line-height: 24.4px;
        font-variant-east-asian: full-width;
    }

    .terminal-1031983630-title {
        font-size: 18px;
        font-weight: bold;
        font-family: arial;
    }

    .terminal-1031983630-r1 { fill: #e1e1e1 }
.terminal-1031983630-r2 { fill: #c5c8c6 }
.terminal-1031983630-r3 { fill: #777a7e }
.terminal-1031983630-r4 { fill: #e2e3e3 }
.terminal-1031983630-r5 { fill: #1e1e1e }
.terminal-1031983630-r6 { fill: #121212 }
.terminal-1031983630-r7 { fill: #1a1000;font-weight: bold }
.terminal-1031983630-r8 { fill: #e2e2e2 }
.terminal-1031983630-r9 { fill: #0178d4 }
.terminal-1031983630-r10 { fill: #151515 }
.terminal-1031983630-r11 { fill: #fea62b;font-weight: bold }
.terminal-1031983630-r12 { fill: #a7a9ab }
.terminal-1031983630-r13 { fill: #4c5055 }
    </style>

    <defs>
    <clipPath id="terminal-1031983630-clip-terminal">
      <rect x="0" y="0" width="1194.6" height="633.4" />
    </clipPath>
    <clipPath id="terminal-1031983630-line-0">
    <rect x="0" y="1.5" width="1195.6" height="24.65"/>
            </clipPath>
<clipPath id="terminal-1031983630-line-1">
    <rect x="0" y="25.9" width="1195.6" height="24.65"/>
            </clipPath>
<clipPath id="terminal-1031983630-line-2">
    <rect x="0" y="50.3" width="1195.6" height="24.65"/>
            </clipPath>
<clipPath id="terminal-1031983630-line-3">
    <rect x="0" y="74.7" width="1195.6" height="24.65"/>
            </clipPath>
<clipPath id="terminal-1031983630-line-4">
    <rect x="0" y="99.1" width="1195.6" height="24.65"/>
            </clipPath>
<clipPath id="terminal-1031983630-line-5">
    <rect x="0" y="123.5" width="1195.6" height="24.65"/>
            </clipPath>
<clipPath id="terminal-1031983630-line-6">
    <rect x="0" y="147.9" width="1195.6" height="24.65"/>
            </clipPath>
<clipPath id="terminal-1031983630-line-7">
    <rect x="0" y="172.3" width="1195.6" height="24.65"/>
            </clipPath>
<clipPath id="terminal-1031983630-line-8">
    <rect x="0" y="196.7" width="1195.6" height="24.65"/>
            </clipPath>
<clipPath id="terminal-1031983630-line-9">
    <rect x="0" y="221.1" width="1195.6" height="24.65"/>
            </clipPath>
<clipPath id="terminal-1031983630-line-10">
    <rect x="0" y="245.5" width="1195.6" height="24.65"/>
            </clipPath>
<clipPath id="terminal-1031983630-line-11">
    <rect x="0" y="269.9" width="1195.6" height="24.65"/>
            </clipPath>
<clipPath id="terminal-1031983630-line-12">
    <rect x="0" y="294.3" width="1195.6" height="24.65"/>
            </clipPath>
<clipPath id="terminal-1031983630-line-13">
    <rect x="0" y="318.7" width="1195.6" height="24.65"/>
            </clipPath>
<clipPath id="terminal-1031983630-line-14">
    <rect x="0" y="343.1" width="1195.6" height="24.65"/>
            </clipPath>
<clipPath id="terminal-1031983630-line-15">
    <rect x="0" y="367.5" width="1195.6" height="24.65"/>
            </clipPath>
<clipPath id="terminal-1031983630-line-16">
    <rect x="0" y="391.9" width="1195.6" height="24.65"/>
            </clipPath>
<clipPath id="terminal-1031983630-line-17">
    <rect x="0" y="416.3" width="1195.6" height="24.65"/>
            </clipPath>
<clipPath id="terminal-1031983630-line-18">
    <rect x="0" y="440.7" width="1195.6" height="24.65"/>
            </clipPath>
<clipPath id="terminal-1031983630-line-19">
    <rect x="0" y="465.1" width="1195.6" height="24.65"/>
            </clipPath>
<clipPath id="terminal-1031983630-line-20">
    <rect x="0" y="489.5" width="1195.6" height="24.65"/>
            </clipPath>
<clipPath id="terminal-1031983630-line-21">
    <rect x="0" y="513.9" width="1195.6" height="24.65"/>
            </clipPath>
<clipPath id="terminal-1031983630-line-22">
    <rect x="0" y="538.3" width="1195.6" height="24.65"/>
            </clipPath>
<clipPath id="terminal-1031983630-line-23">
    <rect x="0" y="562.7" width="1195.6" height="24.65"/>
            </clipPath>
<clipPath id="terminal-1031983630-line-24">
    <rect x="0" y="587.1" width="1195.6" height="24.65"/>
            </clipPath>
    </defs>

    <rect fill="#292929" stroke="rgba(255,255,255,0.35)" stroke-width="1" x="1" y="1" width="1212" height="682.4" rx="8"/><text class="terminal-1031983630-title" fill="#c5c8c6" text-anchor="middle" x="606" y="27">EpisodeNames</text>
            <g transform="translate(26,22)">
            <circle cx="0" cy="0" r="7" fill="#ff5f57"/>
            <circle cx="22" cy="0" r="7" fill="#febc2e"/>
            <circle cx="44" cy="0" r="7" fill="#28c840"/>
            </g>
        
    <g transform="translate(9, 41)" clip-path="url(#terminal-1031983630-clip-terminal)">
    <rect fill="#1e1e1e" x="0" y="1.5" width="183" height="24.65" shape-rendering="crispEdges"/><rect fill="#1e1e1e" x="183" y="1.5" width="1012.6" height="24.65" shape-rendering="crispEdges"/><rect fill="#24292f" x="0" y="25.9" width="24.4" height="24.65" shape-rendering="crispEdges"/><rect fill="#24292f" x="24.4" y="25.9" width="231.8" height="24.65" shape-rendering="crispEdges"/><rect fill="#24292f" x="256.2" y="25.9" width="109.8" height="24.65" shape-rendering="crispEdges"/><rect fill="#24292f" x="366" y="25.9" width="24.4" height="24.65" shape-rendering="crispEdges"/><rect fill="#121212" x="390.4" y="25.9" width="12.2" height="24.65" shape-rendering="crispEdges"/><rect fill="#262626" x="402.6" y="25.9" width="780.8" height="24.65" shape-rendering="crispEdges"/><rect fill="#1e1e1e" x="1183.4" y="25.9" width="12.2" height="24.65" shape-rendering="crispEdges"/><rect fill="#cf7e00" x="0" y="50.3" width="170.8" height="24.65" shape-rendering="crispEdges"/><rect fill="#24292f" x="170.8" y="50.3" width="219.6" height="24.65" shape-rendering="crispEdges"/><rect fill="#121212" x="390.4" y="50.3" width="12.2" height="24.65" shape-rendering="crispEdges"/><rect fill="#262626" x="402.6" y="50.3" width="24.4" height="24.65" shape-rendering="crispEdges"/><rect fill="#262626" x="427" y="50.3" width="158.6" height="24.65" shape-rendering="crispEdges"/><rect fill="#262626" x="585.6" y="50.3" width="573.4" height="24.65" shape-rendering="crispEdges"/><rect fill="#262626" x="1159" y="50.3" width="24.4" height="24.65" shape-rendering="crispEdges"/><rect fill="#1e1e1e" x="1183.4" y="50.3" width="12.2" height="24.65" shape-rendering="crispEdges"/><rect fill="#24292f" x="0" y="74.7" width="170.8" height="24.65" shape-rendering="crispEdges"/><rect fill="#24292f" x="170.8" y="74.7" width="219.6" height="24.65" shape-rendering="crispEdges"/><rect fill="#121212" x="390.4" y="74.7" width="12.2" height="24.65" shape-rendering="crispEdges"/><rect fill="#262626" x="402.6" y="74.7" width="780.8" height="24.65" shape-rendering="crispEdges"/><rect fill="#1e1e1e" x="1183.4" y="74.7" width="12.2" height="24.65" shape-rendering="crispEdges"/><rect fill="#24292f" x="0" y="99.1" width="390.4" height="24.65" shape-rendering="crispEdges"/><rect fill="#0178d4" x="390.4" y="99.1" width="12.2" height="24.65" shape-rendering="crispEdges"/><rect fill="#1e1e1e" x="402.6" y="99.1" width="780.8" height="24.65" shape-rendering="crispEdges"/><rect fill="#1e1e1e" x="1183.4" y="99.1" width="12.2" height="24.65" shape-rendering="crispEdges"/><rect fill="#24292f" x="0" y="123.5" width="390.4" height="24.65" shape-rendering="crispEdges"/><rect fill="#0178d4" x="390.4" y="123.5" width="12.2" height="24.65" shape-rendering="crispEdges"/><rect fill="#1e1e1e" x="402.6" y="123.5" width="12.2" height="24.65" shape-rendering="crispEdges"/><rect fill="#1e1e1e" x="414.8" y="123.5" width="0" height="24.65" shape-rendering="crispEdges"/><rect fill="#d8d8d8" x="414.8" y="123.5" width="12.2" height="24.65" shape-rendering="crispEdges"/><rect fill="#262626" x="427" y="123.5" width="744.2" height="24.65" shape-rendering="crispEdges"/><rect fill="#1e1e1e" x="1171.2" y="123.5" width="12.2" height="24.65" shape-rendering="crispEdges"/><rect fill="#1e1e1e" x="1183.4" y="123.5" width="12.2" height="24.65" shape-rendering="crispEdges"/><rect fill="#24292f" x="0" y="147.9" width="390.4" height="24.65" shape-rendering="crispEdges"/><rect fill="#0178d4" x="390.4" y="147.9" width="12.2" height="24.65" shape-rendering="crispEdges"/><rect fill="#1e1e1e" x="402.6" y="147.9" width="12.2" height="24.65" shape-rendering="crispEdges"/><rect fill="#1e1e1e" x="414.8" y="147.9" width="12.2" height="24.65" shape-rendering="crispEdges"/><rect fill="#1e1e1e" x="427" y="147.9" width="744.2" height="24.65" shape-rendering="crispEdges"/><rect fill="#1e1e1e" x="1171.2" y="147.9" width="12.2" height="24.65" shape-rendering="crispEdges"/><rect fill="#1e1e1e" x="1183.4" y="147.9" width="12.2" height="24.65" shape-rendering="crispEdges"/><rect fill="#24292f" x="0" y="172.3" width="390.4" height="24.65" shape-rendering="crispEdges"/><rect fill="#0178d4" x="390.4" y="172.3" width="12.2" height="24.65" shape-rendering="crispEdges"/><rect fill="#1e1e1e" x="402.6" y="172.3" width="12.2" height="24.65" shape-rendering="crispEdges"/><rect fill="#1e1e1e" x="414.8" y="172.3" width="683.2" height="24.65" shape-rendering="crispEdges"/><rect fill="#1e1e1e" x="1098" y="172.3" width="73.2" height="24.65" shape-rendering="crispEdges"/><rect fill="#1e1e1e" x="1171.2" y="172.3" width="12.2" height="24.65" shape-rendering="crispEdges"/><rect fill="#1e1e1e" x="1183.4" y="172.3" width="12.2" height="24.65" shape-rendering="crispEdges"/><rect fill="#24292f" x="0" y="196.7" width="390.4" height="24.65" shape-rendering="crispEdges"/><rect fill="#0178d4" x="390.4" y="196.7" width="12.2" height="24.65" shape-rendering="crispEdges"/><rect fill="#1e1e1e" x="402.6" y="196.7" width="12.2" height="24.65" shape-rendering="crispEdges"/><rect fill="#1e1e1e" x="414.8" y="196.7" width="146.4" height="24.65" shape-rendering="crispEdges"/><rect fill="#1e1e1e" x="561.2" y="196.7" width="610" height="24.65" shape-rendering="crispEdges"/><rect fill="#1e1e1e" x="1171.2" y="196.7" width="12.2" height="24.65" shape-rendering="crispEdges"/><rect fill="#1e1e1e" x="1183.4" y="196.7" width="12.2" height="24.65" shape-rendering="crispEdges"/><rect fill="#24292f" x="0" y="221.1" width="390.4" height="24.65" shape-rendering="crispEdges"/><rect fill="#0178d4" x="390.4" y="221.1" width="12.2" height="24.65" shape-rendering="crispEdges"/><rect fill="#1e1e1e" x="402.6" y="221.1" width="12.2" height="24.65" shape-rendering="crispEdges"/><rect fill="#1e1e1e" x="414.8" y="221.1" width="12.2" height="24.65" shape-rendering="crispEdges"/><rect fill="#1e1e1e" x="427" y="221.1" width="744.2" height="24.65" shape-rendering="crispEdges"/><rect fill="#1e1e1e" x="1171.2" y="221.1" width="12.2" height="24.65" shape-rendering="crispEdges"/><rect fill="#1e1e1e" x="1183.4" y="221.1" width="12.2" height="24.65" shape-rendering="crispEdges"/><rect fill="#24292f" x="0" y="245.5" width="390.4" height="24.65" shape-rendering="crispEdges"/><rect fill="#0178d4" x="390.4" y="245.5" width="12.2" height="24.65" shape-rendering="crispEdges"/><rect fill="#1e1e1e" x="402.6" y="245.5" width="12.2" height="24.65" shape-rendering="crispEdges"/><rect fill="#1e1e1e" x="414.8" y="245.5" width="390.4" height="24.65" shape-rendering="crispEdges"/><rect fill="#1e1e1e" x="805.2" y="245.5" width="366" height="24.65" shape-rendering="crispEdges"/><rect fill="#1e1e1e" x="1171.2" y="245.5" width="12.2" height="24.65" shape-rendering="crispEdges"/><rect fill="#1e1e1e" x="1183.4" y="245.5" width="12.2" height="24.65" shape-rendering="crispEdges"/><rect fill="#24292f" x="0" y="269.9" width="390.4" height="24.65" shape-rendering="crispEdges"/><rect fill="#0178d4" x="390.4" y="269.9" width="12.2" height="24.65" shape-rendering="crispEdges"/><rect fill="#1e1e1e" x="402.6" y="269.9" width="12.2" height="24.65" shape-rendering="crispEdges"/><rect fill="#1e1e1e" x="414.8" y="269.9" width="512.4" height="24.65" shape-rendering="crispEdges"/><rect fill="#1e1e1e" x="927.2" y="269.9" width="244" height="24.65" shape-rendering="crispEdges"/><rect fill="#1e1e1e" x="1171.2" y="269.9" width="12.2" height="24.65" shape-rendering="crispEdges"/><rect fill="#1e1e1e" x="1183.4" y="269.9" width="12.2" height="24.65" shape-rendering="crispEdges"/><rect fill="#24292f" x="0" y="294.3" width="390.4" height="24.65" shape-rendering="crispEdges"/><rect fill="#0178d4" x="390.4" y="294.3" width="12.2" height="24.65" shape-rendering="crispEdges"/><rect fill="#1e1e1e" x="402.6" y="294.3" width="12.2" height="24.65" shape-rendering="crispEdges"/><rect fill="#1e1e1e" x="414.8" y="294.3" width="122" height="24.65" shape-rendering="crispEdges"/><rect fill="#1e1e1e" x="536.8" y="294.3" width="634.4" height="24.65" shape-rendering="crispEdges"/><rect fill="#1e1e1e" x="1171.2" y="294.3" width="12.2" height="24.65" shape-rendering="crispEdges"/><rect fill="#1e1e1e" x="1183.4" y="294.3" width="12.2" height="24.65" shape-rendering="crispEdges"/><rect fill="#24292f" x="0" y="318.7" width="390.4" height="24.65" shape-rendering="crispEdges"/><rect fill="#0178d4" x="390.4" y="318.7" width="12.2" height="24.65" shape-rendering="crispEdges"/><rect fill="#1e1e1e" x="402.6" y="318.7" width="12.2" height="24.65" shape-rendering="crispEdges"/><rect fill="#1e1e1e" x="414.8" y="318.7" width="744.2" height="24.65" shape-rendering="crispEdges"/><rect fill="#1e1e1e" x="1159" y="318.7" width="12.2" height="24.65" shape-rendering="crispEdges"/><rect fill="#1e1e1e" x="1171.2" y="318.7" width="12.2" height="24.65" shape-rendering="crispEdges"/><rect fill="#1e1e1e" x="1183.4" y="318.7" width="12.2" height="24.65" shape-rendering="crispEdges"/><rect fill="#24292f" x="0" y="343.1" width="390.4" height="24.65" shape-rendering="crispEdges"/><rect fill="#0178d4" x="390.4" y="343.1" width="12.2" height="24.65" shape-rendering="crispEdges"/><rect fill="#1e1e1e" x="402.6" y="343.1" width="12.2" height="24.65" shape-rendering="crispEdges"/><rect fill="#1e1e1e" x="414.8" y="343.1" width="146.4" height="24.65" shape-rendering="crispEdges"/><rect fill="#1e1e1e" x="561.2" y="343.1" width="610" height="24.65" shape-rendering="crispEdges"/><rect fill="#1e1e1e" x="1171.2" y="343.1" width="12.2" height="24.65" shape-rendering="crispEdges"/><rect fill="#1e1e1e" x="1183.4" y="343.1" width="12.2" height="24.65" shape-rendering="crispEdges"/><rect fill="#24292f" x="0" y="367.5" width="390.4" height="24.65" shape-rendering="crispEdges"/><rect fill="#0178d4" x="390.4" y="367.5" width="12.2" height="24.65" shape-rendering="crispEdges"/><rect fill="#1e1e1e" x="402.6" y="367.5" width="12.2" height="24.65" shape-rendering="crispEdges"/><rect fill="#1e1e1e" x="414.8" y="367.5" width="244" height="24.65" shape-rendering="crispEdges"/><rect fill="#1e1e1e" x="658.8" y="367.5" width="512.4" height="24.65" shape-rendering="crispEdges"/><rect fill="#1e1e1e" x="1171.2" y="367.5" width="12.2" height="24.65" shape-rendering="crispEdges"/><rect fill="#1e1e1e" x="1183.4" y="367.5" width="12.2" height="24.65" shape-rendering="crispEdges"/><rect fill="#24292f" x="0" y="391.9" width="390.4" height="24.65" shape-rendering="crispEdges"/><rect fill="#0178d4" x="390.4" y="391.9" width="12.2" height="24.65" shape-rendering="crispEdges"/><rect fill="#1e1e1e" x="402.6" y="391.9" width="12.2" height="24.65" shape-rendering="crispEdges"/><rect fill="#1e1e1e" x="414.8" y="391.9" width="744.2" height="24.65" shape-rendering="crispEdges"/><rect fill="#1e1e1e" x="1159" y="391.9" width="12.2" height="24.65" shape-rendering="crispEdges"/><rect fill="#1e1e1e" x="1171.2" y="391.9" width="12.2" height="24.65" shape-rendering="crispEdges"/><rect fill="#1e1e1e" x="1183.4" y="391.9" width="12.2" height="24.65" shape-rendering="crispEdges"/><rect fill="#24292f" x="0" y="416.3" width="390.4" height="24.65" shape-rendering="crispEdges"/><rect fill="#0178d4" x="390.4" y="416.3" width="12.2" height="24.65" shape-rendering="crispEdges"/><rect fill="#1e1e1e" x="402.6" y="416.3" width="12.2" height="24.65" shape-rendering="crispEdges"/><rect fill="#1e1e1e" x="414.8" y="416.3" width="146.4" height="24.65" shape-rendering="crispEdges"/><rect fill="#1e1e1e" x="561.2" y="416.3" width="610" height="24.65" shape-rendering="crispEdges"/><rect fill="#1e1e1e" x="1171.2" y="416.3" width="12.2" height="24.65" shape-rendering="crispEdges"/><rect fill="#1e1e1e" x="1183.4" y="416.3" width="12.2" height="24.65" shape-rendering="crispEdges"/><rect fill="#24292f" x="0" y="440.7" width="390.4" height="24.65" shape-rendering="crispEdges"/><rect fill="#0178d4" x="390.4" y="440.7" width="12.2" height="24.65" shape-rendering="crispEdges"/><rect fill="#1e1e1e" x="402.6" y="440.7" width="12.2" height="24.65" shape-rendering="crispEdges"/><rect fill="#1e1e1e" x="414.8" y="440.7" width="756.4" height="24.65" shape-rendering="crispEdges"/><rect fill="#1e1e1e" x="1171.2" y="440.7" width="12.2" height="24.65" shape-rendering="crispEdges"/><rect fill="#1e1e1e" x="1183.4" y="440.7" width="12.2" height="24.65" shape-rendering="crispEdges"/><rect fill="#24292f" x="0" y="465.1" width="390.4" height="24.65" shape-rendering="crispEdges"/><rect fill="#0178d4" x="390.4" y="465.1" width="12.2" height="24.65" shape-rendering="crispEdges"/><rect fill="#1e1e1e" x="402.6" y="465.1" width="12.2" height="24.65" shape-rendering="crispEdges"/><rect fill="#1e1e1e" x="414.8" y="465.1" width="756.4" height="24.65" shape-rendering="crispEdges"/><rect fill="#1e1e1e" x="1171.2" y="465.1" width="12.2" height="24.65" shape-rendering="crispEdges"/><rect fill="#1e1e1e" x="1183.4" y="465.1" width="12.2" height="24.65" shape-rendering="crispEdges"/><rect fill="#24292f" x="0" y="489.5" width="390.4" height="24.65" shape-rendering="crispEdges"/><rect fill="#0178d4" x="390.4" y="489.5" width="12.2" height="24.65" shape-rendering="crispEdges"/><rect fill="#1e1e1e" x="402.6" y="489.5" width="12.2" height="24.65" shape-rendering="crispEdges"/><rect fill="#1e1e1e" x="414.8" y="489.5" width="756.4" height="24.65" shape-rendering="crispEdges"/><rect fill="#1e1e1e" x="1171.2" y="489.5" width="12.2" height="24.65" shape-rendering="crispEdges"/><rect fill="#1e1e1e" x="1183.4" y="489.5" width="12.2" height="24.65" shape-rendering="crispEdges"/><rect fill="#24292f" x="0" y="513.9" width="390.4" height="24.65" shape-rendering="crispEdges"/><rect fill="#0178d4" x="390.4" y="513.9" width="12.2" height="24.65" shape-rendering="crispEdges"/><rect fill="#1e1e1e" x="402.6" y="513.9" width="12.2" height="24.65" shape-rendering="crispEdges"/><rect fill="#1e1e1e" x="414.8" y="513.9" width="756.4" height="24.65" shape-rendering="crispEdges"/><rect fill="#1e1e1e" x="1171.2" y="513.9" width="12.2" height="24.65" shape-rendering="crispEdges"/><rect fill="#1e1e1e" x="1183.4" y="513.9" width="12.2" height="24.65" shape-rendering="crispEdges"/><rect fill="#24292f" x="0" y="538.3" width="390.4" height="24.65" shape-rendering="crispEdges"/><rect fill="#0178d4" x="390.4" y="538.3" width="12.2" height="24.65" shape-rendering="crispEdges"/><rect fill="#1e1e1e" x="402.6" y="538.3" width="12.2" height="24.65" shape-rendering="crispEdges"/><rect fill="#1e1e1e" x="414.8" y="538.3" width="756.4" height="24.65" shape-rendering="crispEdges"/><rect fill="#1e1e1e" x="1171.2" y="538.3" width="12.2" height="24.65" shape-rendering="crispEdges"/><rect fill="#1e1e1e" x="1183.4" y="538.3" width="12.2" height="24.65" shape-rendering="crispEdges"/><rect fill="#24292f" x="0" y="562.7" width="390.4" height="24.65" shape-rendering="crispEdges"/><rect fill="#0178d4" x="390.4" y="562.7" width="12.2" height="24.65" shape-rendering="crispEdges"/><rect fill="#1e1e1e" x="402.6" y="562.7" width="12.2" height="24.65" shape-rendering="crispEdges"/><rect fill="#1e1e1e" x="414.8" y="562.7" width="756.4" height="24.65" shape-rendering="crispEdges"/><rect fill="#1e1e1e" x="1171.2" y="562.7" width="12.2" height="24.65" shape-rendering="crispEdges"/><rect fill="#1e1e1e" x="1183.4" y="562.7" width="12.2" height="24.65" shape-rendering="crispEdges"/><rect fill="#24292f" x="0" y="587.1" width="390.4" height="24.65" shape-rendering="crispEdges"/><rect fill="#0178d4" x="390.4" y="587.1" width="12.2" height="24.65" shape-rendering="crispEdges"/><rect fill="#1e1e1e" x="402.6" y="587.1" width="780.8" height="24.65" shape-rendering="crispEdges"/><rect fill="#1e1e1e" x="1183.4" y="587.1" width="12.2" height="24.65" shape-rendering="crispEdges"/><rect fill="#24292f" x="0" y="611.5" width="48.8" height="24.65" shape-rendering="crispEdges"/><rect fill="#24292f" x="48.8" y="611.5" width="158.6" height="24.65" shape-rendering="crispEdges"/><rect fill="#24292f" x="207.4" y="611.5" width="48.8" height="24.65" shape-rendering="crispEdges"/><rect fill="#24292f" x="256.2" y="611.5" width="183" height="24.65" shape-rendering="crispEdges"/><rect fill="#24292f" x="439.2" y="611.5" width="73.2" height="24.65" shape-rendering="crispEdges"/><rect fill="#24292f" x="512.4" y="611.5" width="207.4" height="24.65" shape-rendering="crispEdges"/><rect fill="#24292f" x="719.8" y="611.5" width="48.8" height="24.65" shape-rendering="crispEdges"/><rect fill="#24292f" x="768.6" y="611.5" width="219.6" height="24.65" shape-rendering="crispEdges"/><rect fill="#24292f" x="988.2" y="611.5" width="48.8" height="24.65" shape-rendering="crispEdges"/><rect fill="#24292f" x="1037" y="611.5" width="12.2" height="24.65" shape-rendering="crispEdges"/><rect fill="#24292f" x="1049.2" y="611.5" width="12.2" height="24.65" shape-rendering="crispEdges"/><rect fill="#24292f" x="1061.4" y="611.5" width="24.4" height="24.65" shape-rendering="crispEdges"/><rect fill="#24292f" x="1085.8" y="611.5" width="12.2" height="24.65" shape-rendering="crispEdges"/><rect fill="#24292f" x="1098" y="611.5" width="85.4" height="24.65" shape-rendering="crispEdges"/><rect fill="#24292f" x="1183.4" y="611.5" width="12.2" height="24.65" shape-rendering="crispEdges"/>
    <g class="terminal-1031983630-matrix">
    <text class="terminal-1031983630-r1" x="0" y="20" textLength="183" clip-path="url(#terminal-1031983630-line-0)">F:Template&#160;Edit</text><text class="terminal-1031983630-r2" x="1195.6" y="20" textLength="12.2" clip-path="url(#terminal-1031983630-line-0)">
</text><text class="terminal-1031983630-r3" x="24.4" y="44.4" textLength="231.8" clip-path="url(#terminal-1031983630-line-1)">F:Enter&#160;Filter&#160;here</text><text class="terminal-1031983630-r5" x="390.4" y="44.4" textLength="12.2" clip-path="url(#terminal-1031983630-line-1)">▊</text><text class="terminal-1031983630-r6" x="402.6" y="44.4" textLength="780.8" clip-path="url(#terminal-1031983630-line-1)">▔▔▔▔▔▔▔▔▔▔▔▔▔▔▔▔▔▔▔▔▔▔▔▔▔▔▔▔▔▔▔▔▔▔▔▔▔▔▔▔▔▔▔▔▔▔▔▔▔▔▔▔▔▔▔▔▔▔▔▔▔▔▔▔</text><text class="terminal-1031983630-r6" x="1183.4" y="44.4" textLength="12.2" clip-path="url(#terminal-1031983630-line-1)">▎</text><text class="terminal-1031983630-r2" x="1195.6" y="44.4" textLength="12.2" clip-path="url(#terminal-1031983630-line-1)">
</text><text class="terminal-1031983630-r7" x="0" y="68.8" textLength="170.8" clip-path="url(#terminal-1031983630-line-2)">ESO-Gold&#160;Road&#160;</text><text class="terminal-1031983630-r5" x="390.4" y="68.8" textLength="12.2" clip-path="url(#terminal-1031983630-line-2)">▊</text><text class="terminal-1031983630-r8" x="427" y="68.8" textLength="158.6" clip-path="url(#terminal-1031983630-line-2)">ESO-Gold&#160;Road</text><text class="terminal-1031983630-r6" x="1183.4" y="68.8" textLength="12.2" clip-path="url(#terminal-1031983630-line-2)">▎</text><text class="terminal-1031983630-r2" x="1195.6" y="68.8" textLength="12.2" clip-path="url(#terminal-1031983630-line-2)">
</text><text class="terminal-1031983630-r4" x="0" y="93.2" textLength="170.8" clip-path="url(#terminal-1031983630-line-3)">EldenRing-DLC&#160;</text><text class="terminal-1031983630-r5" x="390.4" y="93.2" textLength="12.2" clip-path="url(#terminal-1031983630-line-3)">▊</text><text class="terminal-1031983630-r6" x="402.6" y="93.2" textLength="780.8" clip-path="url(#terminal-1031983630-line-3)">▁▁▁▁▁▁▁▁▁▁▁▁▁▁▁▁▁▁▁▁▁▁▁▁▁▁▁▁▁▁▁▁▁▁▁▁▁▁▁▁▁▁▁▁▁▁▁▁▁▁▁▁▁▁▁▁▁▁▁▁▁▁▁▁</text><text class="terminal-1031983630-r6" x="1183.4" y="93.2" textLength="12.2" clip-path="url(#terminal-1031983630-line-3)">▎</text><text class="terminal-1031983630-r2" x="1195.6" y="93.2" textLength="12.2" clip-path="url(#terminal-1031983630-line-3)">
</text><text class="terminal-1031983630-r5" x="390.4" y="117.6" textLength="12.2" clip-path="url(#terminal-1031983630-line-4)">▊</text><text class="terminal-1031983630-r9" x="402.6" y="117.6" textLength="780.8" clip-path="url(#terminal-1031983630-line-4)">▔▔▔▔▔▔▔▔▔▔▔▔▔▔▔▔▔▔▔▔▔▔▔▔▔▔▔▔▔▔▔▔▔▔▔▔▔▔▔▔▔▔▔▔▔▔▔▔▔▔▔▔▔▔▔▔▔▔▔▔▔▔▔▔</text><text class="terminal-1031983630-r9" x="1183.4" y="117.6" textLength="12.2" clip-path="url(#terminal-1031983630-line-4)">▎</text><text class="terminal-1031983630-r2" x="1195.6" y="117.6" textLength="12.2" clip-path="url(#terminal-1031983630-line-4)">
</text><text class="terminal-1031983630-r5" x="390.4" y="142" textLength="12.2" clip-path="url(#terminal-1031983630-line-5)">▊</text><text class="terminal-1031983630-r10" x="414.8" y="142" textLength="12.2" clip-path="url(#terminal-1031983630-line-5)">E</text><text class="terminal-1031983630-r8" x="427" y="142" textLength="744.2" clip-path="url(#terminal-1031983630-line-5)">pisode&#160;$$counter2$$&#160;des&#160;Gold&#160;Road&#160;DLCs&#160;-&#160;$$session$$&#160;&#160;&#160;&#160;&#160;&#160;&#160;&#160;&#160;</text><text class="terminal-1031983630-r9" x="1183.4" y="142" textLength="12.2" clip-path="url(#terminal-1031983630-line-5)">▎</text><text class="terminal-1031983630-r2" x="1195.6" y="142" textLength="12.2" clip-path="url(#terminal-1031983630-line-5)">
</text><text class="terminal-1031983630-r5" x="390.4" y="166.4" textLength="12.2" clip-path="url(#terminal-1031983630-line-6)">▊</text><text class="terminal-1031983630-r9" x="1183.4" y="166.4" textLength="12.2" clip-path="url(#terminal-1031983630-line-6)">▎</text><text class="terminal-1031983630-r2" x="1195.6" y="166.4" textLength="12.2" clip-path="url(#terminal-1031983630-line-6)">
</text><text class="terminal-1031983630-r5" x="390.4" y="190.8" textLength="12.2" clip-path="url(#terminal-1031983630-line-7)">▊</text><text class="terminal-1031983630-r1" x="414.8" y="190.8" textLength="683.2" clip-path="url(#terminal-1031983630-line-7)">Let&#x27;s&#160;Play&#160;ESO&#160;#$$counter1$$&#160;##$$counter2$$&#160;-&#160;$$title$$&#160;</text><text class="terminal-1031983630-r9" x="1183.4" y="190.8" textLength="12.2" clip-path="url(#terminal-1031983630-line-7)">▎</text><text class="terminal-1031983630-r2" x="1195.6" y="190.8" textLength="12.2" clip-path="url(#terminal-1031983630-line-7)">
</text><text class="terminal-1031983630-r5" x="390.4" y="215.2" textLength="12.2" clip-path="url(#terminal-1031983630-line-8)">▊</text><text class="terminal-1031983630-r1" x="414.8" y="215.2" textLength="146.4" clip-path="url(#terminal-1031983630-line-8)">[Gold&#160;Road]&#160;</text><text class="terminal-1031983630-r9" x="1183.4" y="215.2" textLength="12.2" clip-path="url(#terminal-1031983630-line-8)">▎</text><text class="terminal-1031983630-r2" x="1195.6" y="215.2" textLength="12.2" clip-path="url(#terminal-1031983630-line-8)">
</text><text class="terminal-1031983630-r5" x="390.4" y="239.6" textLength="12.2" clip-path="url(#terminal-1031983630-line-9)">▊</text><text class="terminal-1031983630-r9" x="1183.4" y="239.6" textLength="12.2" clip-path="url(#terminal-1031983630-line-9)">▎</text><text class="terminal-1031983630-r2" x="1195.6" y="239.6" textLength="12.2" clip-path="url(#terminal-1031983630-line-9)">
</text><text class="terminal-1031983630-r5" x="390.4" y="264" textLength="12.2" clip-path="url(#terminal-1031983630-line-10)">▊</text><text class="terminal-1031983630-r1" x="414.8" y="264" textLength="390.4" clip-path="url(#terminal-1031983630-line-10)">Mo-Do,&#160;So&#160;auch&#160;Live&#160;auf&#160;Twitch:&#160;</text><text class="terminal-1031983630-r9" x="1183.4" y="264" textLength="12.2" clip-path="url(#terminal-1031983630-line-10)">▎</text><text class="terminal-1031983630-r2" x="1195.6" y="264" textLength="12.2" clip-path="url(#terminal-1031983630-line-10)">
</text><text class="terminal-1031983630-r5" x="390.4" y="288.4" textLength="12.2" clip-path="url(#terminal-1031983630-line-11)">▊</text><text class="terminal-1031983630-r1" x="414.8" y="288.4" textLength="512.4" clip-path="url(#terminal-1031983630-line-11)">https://www.twitch.tv/burnoutdv&#160;17-20&#160;Uhr&#160;</text><text class="terminal-1031983630-r9" x="1183.4" y="288.4" textLength="12.2" clip-path="url(#terminal-1031983630-line-11)">▎</text><text class="terminal-1031983630-r2" x="1195.6" y="288.4" textLength="12.2" clip-path="url(#terminal-1031983630-line-11)">
</text><text class="terminal-1031983630-r5" x="390.4" y="312.8" textLength="12.2" clip-path="url(#terminal-1031983630-line-12)">▊</text><text class="terminal-1031983630-r1" x="414.8" y="312.8" textLength="122" clip-path="url(#terminal-1031983630-line-12)">Playlist:&#160;</text><text class="terminal-1031983630-r9" x="1183.4" y="312.8" textLength="12.2" clip-path="url(#terminal-1031983630-line-12)">▎</text><text class="terminal-1031983630-r2" x="1195.6" y="312.8" textLength="12.2" clip-path="url(#terminal-1031983630-line-12)">
</text><text class="terminal-1031983630-r5" x="390.4" y="337.2" textLength="12.2" clip-path="url(#terminal-1031983630-line-13)">▊</text><text class="terminal-1031983630-r1" x="414.8" y="337.2" textLength="744.2" clip-path="url(#terminal-1031983630-line-13)">https://www.youtube.com/playlist?list=PLAFz5ZZJ21wO_nLvLprFRA</text><text class="terminal-1031983630-r9" x="1183.4" y="337.2" textLength="12.2" clip-path="url(#terminal-1031983630-line-13)">▎</text><text class="terminal-1031983630-r2" x="1195.6" y="337.2" textLength="12.2" clip-path="url(#terminal-1031983630-line-13)">
</text><text class="terminal-1031983630-r5" x="390.4" y="361.6" textLength="12.2" clip-path="url(#terminal-1031983630-line-14)">▊</text><text class="terminal-1031983630-r1" x="414.8" y="361.6" textLength="146.4" clip-path="url(#terminal-1031983630-line-14)">yxN3YilrARe&#160;</text><text class="terminal-1031983630-r9" x="1183.4" y="361.6" textLength="12.2" clip-path="url(#terminal-1031983630-line-14)">▎</text><text class="terminal-1031983630-r2" x="1195.6" y="361.6" textLength="12.2" clip-path="url(#terminal-1031983630-line-14)">
</text><text class="terminal-1031983630-r5" x="390.4" y="386" textLength="12.2" clip-path="url(#terminal-1031983630-line-15)">▊</text><text class="terminal-1031983630-r1" x="414.8" y="386" textLength="244" clip-path="url(#terminal-1031983630-line-15)">Gold&#160;Road&#160;Playlist:&#160;</text><text class="terminal-1031983630-r9" x="1183.4" y="386" textLength="12.2" clip-path="url(#terminal-1031983630-line-15)">▎</text><text class="terminal-1031983630-r2" x="1195.6" y="386" textLength="12.2" clip-path="url(#terminal-1031983630-line-15)">
</text><text class="terminal-1031983630-r5" x="390.4" y="410.4" textLength="12.2" clip-path="url(#terminal-1031983630-line-16)">▊</text><text class="terminal-1031983630-r1" x="414.8" y="410.4" textLength="744.2" clip-path="url(#terminal-1031983630-line-16)">https://www.youtube.com/playlist?list=PLAFz5ZZJ21wN4zSdcr2GqP</text><text class="terminal-1031983630-r9" x="1183.4" y="410.4" textLength="12.2" clip-path="url(#terminal-1031983630-line-16)">▎</text><text class="terminal-1031983630-r2" x="1195.6" y="410.4" textLength="12.2" clip-path="url(#terminal-1031983630-line-16)">
</text><text class="terminal-1031983630-r5" x="390.4" y="434.8" textLength="12.2" clip-path="url(#terminal-1031983630-line-17)">▊</text><text class="terminal-1031983630-r1" x="414.8" y="434.8" textLength="146.4" clip-path="url(#terminal-1031983630-line-17)">esmrdQ--7gj&#160;</text><text class="terminal-1031983630-r9" x="1183.4" y="434.8" textLength="12.2" clip-path="url(#terminal-1031983630-line-17)">▎</text><text class="terminal-1031983630-r2" x="1195.6" y="434.8" textLength="12.2" clip-path="url(#terminal-1031983630-line-17)">
</text><text class="terminal-1031983630-r5" x="390.4" y="459.2" textLength="12.2" clip-path="url(#terminal-1031983630-line-18)">▊</text><text class="terminal-1031983630-r1" x="414.8" y="459.2" textLength="756.4" clip-path="url(#terminal-1031983630-line-18)">Aufnahme&#160;vom&#160;$$record_date$$&#160;-&#160;#$$counter1$$&#160;-&#160;##$$counter2$$&#160;</text><text class="terminal-1031983630-r9" x="1183.4" y="459.2" textLength="12.2" clip-path="url(#terminal-1031983630-line-18)">▎</text><text class="terminal-1031983630-r2" x="1195.6" y="459.2" textLength="12.2" clip-path="url(#terminal-1031983630-line-18)">
</text><text class="terminal-1031983630-r5" x="390.4" y="483.6" textLength="12.2" clip-path="url(#terminal-1031983630-line-19)">▊</text><text class="terminal-1031983630-r9" x="1183.4" y="483.6" textLength="12.2" clip-path="url(#terminal-1031983630-line-19)">▎</text><text class="terminal-1031983630-r2" x="1195.6" y="483.6" textLength="12.2" clip-path="url(#terminal-1031983630-line-19)">
</text><text class="terminal-1031983630-r5" x="390.4" y="508" textLength="12.2" clip-path="url(#terminal-1031983630-line-20)">▊</text><text class="terminal-1031983630-r9" x="1183.4" y="508" textLength="12.2" clip-path="url(#terminal-1031983630-line-20)">▎</text><text class="terminal-1031983630-r2" x="1195.6" y="508" textLength="12.2" clip-path="url(#terminal-1031983630-line-20)">
</text><text class="terminal-1031983630-r5" x="390.4" y="532.4" textLength="12.2" clip-path="url(#terminal-1031983630-line-21)">▊</text><text class="terminal-1031983630-r9" x="1183.4" y="532.4" textLength="12.2" clip-path="url(#terminal-1031983630-line-21)">▎</text><text class="terminal-1031983630-r2" x="1195.6" y="532.4" textLength="12.2" clip-path="url(#terminal-1031983630-line-21)">
</text><text class="terminal-1031983630-r5" x="390.4" y="556.8" textLength="12.2" clip-path="url(#terminal-1031983630-line-22)">▊</text><text class="terminal-1031983630-r9" x="1183.4" y="556.8" textLength="12.2" clip-path="url(#terminal-1031983630-line-22)">▎</text><text class="terminal-1031983630-r2" x="1195.6" y="556.8" textLength="12.2" clip-path="url(#terminal-1031983630-line-22)">
</text><text class="terminal-1031983630-r5" x="390.4" y="581.2" textLength="12.2" clip-path="url(#terminal-1031983630-line-23)">▊</text><text class="terminal-1031983630-r9" x="1183.4" y="581.2" textLength="12.2" clip-path="url(#terminal-1031983630-line-23)">▎</text><text class="terminal-1031983630-r2" x="1195.6" y="581.2" textLength="12.2" clip-path="url(#terminal-1031983630-line-23)">
</text><text class="terminal-1031983630-r5" x="390.4" y="605.6" textLength="12.2" clip-path="url(#terminal-1031983630-line-24)">▊</text><text class="terminal-1031983630-r9" x="402.6" y="605.6" textLength="780.8" clip-path="url(#terminal-1031983630-line-24)">▁▁▁▁▁▁▁▁▁▁▁▁▁▁▁▁▁▁▁▁▁▁▁▁▁▁▁▁▁▁▁▁▁▁▁▁▁▁▁▁▁▁▁▁▁▁▁▁▁▁▁▁▁▁▁▁▁▁▁▁▁▁▁▁</text><text class="terminal-1031983630-r9" x="1183.4" y="605.6" textLength="12.2" clip-path="url(#terminal-1031983630-line-24)">▎</text><text class="terminal-1031983630-r2" x="1195.6" y="605.6" textLength="12.2" clip-path="url(#terminal-1031983630-line-24)">
</text><text class="terminal-1031983630-r11" x="0" y="630" textLength="48.8" clip-path="url(#terminal-1031983630-line-25)">&#160;^n&#160;</text><text class="terminal-1031983630-r12" x="48.8" y="630" textLength="158.6" clip-path="url(#terminal-1031983630-line-25)">F:Create&#160;New&#160;</text><text class="terminal-1031983630-r11" x="207.4" y="630" textLength="48.8" clip-path="url(#terminal-1031983630-line-25)">&#160;^s&#160;</text><text class="terminal-1031983630-r12" x="256.2" y="630" textLength="183" clip-path="url(#terminal-1031983630-line-25)">F:Save&#160;Current&#160;</text><text class="terminal-1031983630-r11" x="439.2" y="630" textLength="73.2" clip-path="url(#terminal-1031983630-line-25)">&#160;^del&#160;</text><text class="terminal-1031983630-r12" x="512.4" y="630" textLength="207.4" clip-path="url(#terminal-1031983630-line-25)">F:Delete&#160;Current&#160;</text><text class="terminal-1031983630-r11" x="719.8" y="630" textLength="48.8" clip-path="url(#terminal-1031983630-line-25)">&#160;^⌫&#160;</text><text class="terminal-1031983630-r12" x="768.6" y="630" textLength="219.6" clip-path="url(#terminal-1031983630-line-25)">F:Discard&#160;Current&#160;</text><text class="terminal-1031983630-r11" x="988.2" y="630" textLength="48.8" clip-path="url(#terminal-1031983630-line-25)">&#160;^c&#160;</text><text class="terminal-1031983630-r12" x="1037" y="630" textLength="12.2" clip-path="url(#terminal-1031983630-line-25)">Q</text><text class="terminal-1031983630-r13" x="1049.2" y="630" textLength="12.2" clip-path="url(#terminal-1031983630-line-25)">▏</text><text class="terminal-1031983630-r11" x="1061.4" y="630" textLength="24.4" clip-path="url(#terminal-1031983630-line-25)">^p</text><text class="terminal-1031983630-r12" x="1098" y="630" textLength="85.4" clip-path="url(#terminal-1031983630-line-25)">palette</text>
    </g>
    </g>
</svg>
