<?xml version="1.0" encoding="UTF-8" standalone="no"?>
<!-- Created with Inkscape (http://www.inkscape.org/) -->

<svg
   id="svg2"
   viewBox="0 0 900.00003 900.00002"
   version="1.0"
   width="900"
   height="900"
   xmlns="http://www.w3.org/2000/svg"
   xmlns:svg="http://www.w3.org/2000/svg"
   xmlns:rdf="http://www.w3.org/1999/02/22-rdf-syntax-ns#"
   xmlns:cc="http://creativecommons.org/ns#"
   xmlns:dc="http://purl.org/dc/elements/1.1/">
  <title
     id="title781">T-Shirt back</title>
  <defs
     id="defs10" />
  <g
     id="layer1"
     transform="translate(0.23762,-131.81)">
    <path
       id="path2825"
       style="fill:#0000ff;fill-opacity:1;stroke:#000000;stroke-width:1.0055px"
       d="m 811.61703,588.37999 -53.00049,-234.70603 -42.97852,-92.0672 -66.303,-25.81677 -42.565,-13.157 -61.188,-28.944 -21.283,-2.6313 -63.848,15.788 -47.886,2.6313 -58.527,-10.525 -13.302,-2.6313 -34.584,23.682 -66.508,15.788 -55.867,31.576 -23.943,31.576 -2.6603,23.682 -15.962,49.995 -7.981,26.313 -2.6603,23.682 -42.564996,152.62 77.149996,31.576 37.245,13.157 h 26.603 l 2.6603,81.571 7.981,47.364 -13.302,31.576 21.283,57.889 -13.302,26.313 5.3206,47.364 c 0,0 -2.6603,-5.2626 0,0 l 2.6603,5.2626 53.207,10.525 55.867,21.05 58.527,15.788 63.848,7.8939 85.131,-15.788 47.886,-10.525 h 58.527 l 13.302,-52.626 -2.6603,-36.838 7.981,-28.944 -7.981,-28.944 7.981,-39.47 5.3206,-18.419 -7.981,-10.525 -2.6603,-13.157 5.3207,-21.05 -5.3207,-44.732 -7.981,-26.313 15.962,-15.788 61.188,-2.6313 34.584,-5.2626 29.26401,-13.157 z" />
    <path
       id="path1951"
       style="fill:#808080;fill-opacity:0.071066"
       d="m 534.07376,193.80805 c 3.24,-0.01 16.74915,7.10946 23.11914,12.18945 3.61,2.88 41.35104,17.27016 67.29102,25.66016 29.32997,9.47999 37.739,11.7993 53.45898,14.77929 24.61998,4.67 38.65092,15.47073 50.00391,38.47071 3.21499,6.50999 7.03275,16.93946 8.46875,23.18945 1.435,6.23999 3.295,12.06039 4.125,12.90039 0.829,0.85 1.5,4.55 1.5,8.25 0,6.46999 0.68726,7.84947 10.53125,21.18945 1.386,1.88 3.1005,8.24017 3.8125,14.16016 0.941,7.80999 2.30225,11.87125 5.03125,14.78125 3.15599,3.36 4.005,6.67947 5.25,20.68945 1.606,18.06998 2.36551,21.18043 13.4375,56.40039 8.52299,27.10998 15.50325,53.84003 20.15625,77 3.5552,17.69999 6.50105,43.80962 5.40625,48.09961 -0.3792,1.48 -3.7305,3.80039 -7.4375,5.15039 -3.707,1.35 -10.82751,3.94 -15.8125,5.75 -27.92498,10.15999 -36.86628,11.8793 -65.15625,12.5293 l -27.2168,0.63086 -5.68945,5.67969 c -4.96,4.96999 -6.68071,5.68945 -13.72071,5.68945 -4.42999,0 -8.05859,0.51945 -8.05859,1.18945 0,3.28 8.67,35.69126 10.5,39.28125 3.3,6.48 4.47859,27.04931 2.30859,39.7793 -2.90999,17.06998 -2.53874,22.88947 2.53125,39.68945 5.38,17.79999 4.8489,23.68057 -3.87109,43.56055 -5.81999,13.24999 -6.16875,19.78032 -1.71875,31.07031 3.7,9.38999 4.14875,18.07095 1.21875,23.21094 -1.38,2.42 -2.33,16.17003 -3,43.25 -1,40.14996 -3.90891,62.9293 -8.62891,67.7793 -1.56999,1.62 -4.2611,1.76961 -11.62109,0.59961 -10.81999,-1.73 -47.06962,0.13984 -59.84961,3.08984 -4.45999,1.03 -16.88985,4.32125 -27.58984,7.28125 -19.49998,5.40999 -47.81072,11.3782 -59.97071,12.6582 -3.56999,0.37 -22.19916,0.49 -41.36914,0.25 -28.24997,-0.35 -38.09087,-1.11875 -51.88086,-3.96875 -28.82997,-5.95999 -43.26948,-10.54126 -74.68945,-23.78125 -34.55996,-14.55998 -59.88057,-22.27859 -79.81055,-24.30859 -8.14999,-0.83 -11.40859,-1.88125 -12.55859,-4.03125 -2.07,-3.86 -1.99086,-38.56002 0.11914,-54.5 0.93,-6.97999 3.21961,-17.15891 5.09961,-22.62891 l 3.40039,-9.90039 -5.95898,-13.93945 c -11.52999,-26.84997 -13.22101,-48.04072 -4.79102,-60.4707 3.15,-4.63 3.86102,-7.17001 3.04102,-11 -9.55999,-44.50996 -11.0814,-81.85894 -4.69141,-115.87891 l 1.03125,-5.4707 -11.16016,1.25976 c -20.14998,2.27 -28.74001,-0.009 -38.5,-10.28906 -3.49999,-3.68 -6.68071,-5.18125 -12.9707,-6.03125 -19.81998,-2.68 -45.879,-9.44985 -66.70898,-17.33984 -19.359976,-7.34 -19.020306,-6.72893 -13.820316,-23.87891 1.77,-5.81999 5.468756,-18.62165 8.218746,-28.43164 6.64,-23.65998 16.21087,-54.51948 26.13086,-84.18945 7.26,-21.71998 7.9793,-25.17017 7.0293,-33.41016 -1.36,-11.68999 1.12126,-20.94876 7.03125,-26.21875 4.26,-3.8 4.71875,-5.28056 5.71875,-19.31055 1.02,-14.36998 7.30125,-43.66016 10.78125,-50.16015 0.87,-1.63 1.58984,-4.7893 1.58984,-7.0293 0,-2.23 1.96962,-9.32001 4.34961,-15.75 6.56,-17.69998 18.94041,-30.1504 40.15039,-40.40039 8.97999,-4.34 26.17877,-11.25086 38.21875,-15.38086 65.38994,-22.41998 78.47088,-27.7704 94.88086,-38.65039 7.66,-5.09 9.9993,-5.92961 12.7793,-4.59961 14.60999,7.01999 56.57074,13.25 89.2207,13.25 32.68997,0 55.62057,-4.5104 79.56055,-15.65039 4.46,-2.08 9.76,-3.77906 11.75,-3.78906 z m 2.75977,5.79492 c -62.49314,27.64729 -111.1897,25.96886 -185.52344,5.38867 -0.20995,0.11244 -0.39242,0.21818 -0.60156,0.33008 l -0.60547,-0.91406 -6.72071,4.43945 c -1.01758,0.67288 -1.95867,1.36238 -2.82617,2.03711 -5.1574,2.96281 -9.81906,6.07292 -13.74609,9.69922 -0.1132,-0.14839 -0.54802,-0.86524 -0.57617,-0.86524 -0.25,0 -5.49087,2.09891 -11.63086,4.62891 -6.14,2.53 -15.56016,6.10094 -20.91016,7.96094 -5.34999,1.87 -23.49986,8.16 -40.33984,14 -36.03997,12.50998 -54.19915,20.95016 -64.36914,29.91015 -7.87,6.93 -16.21071,20.93001 -19.22071,32.25 -2.05999,7.73 -1.43928,9.43018 10.22071,27.91016 l 6.55859,10.40039 2.25,-5.56055 c 3.5,-8.66999 6.61055,-11.2207 13.56055,-11.2207 4.97999,0 7.50946,1.21961 12.68945,6.09961 7.45999,7.01999 8.97985,11.79128 14.58984,45.78125 1.99,12.03999 3.9,22.18859 4.25,22.55859 0.35,0.37 0.63086,-9.3186 0.63086,-21.55859 0,-38.30996 6.62071,-73.9707 13.72071,-73.9707 4.04999,0 5.99898,32.75948 3.70898,62.43945 -0.95,12.40999 -1.98914,25.21986 -3.61914,44.58984 -3.87,46.08996 -2.38984,92.87059 4.16016,131.31055 5.04999,29.68997 6.32901,34.20024 33.95898,117.41016 12.46999,37.53996 23.40102,70.51 24.29102,73.25 1.93999,6.00999 2.12859,13.65015 0.30859,13.66015 -3.34,0 -12.29893,-12.34909 -34.12891,-47.03906 l -3.56054,-5.65039 1.08984,4.83984 c 1.79,7.81 9.30032,28.82058 20.57031,57.56055 12.07999,30.83997 18.99056,45.95001 26.56055,58 5.91999,9.42999 6.62914,12.9682 2.86914,14.4082 -4.39999,1.69 -8.98931,-4.60861 -20.2793,-27.80859 -12.78998,-26.29997 -21.30056,-47.78076 -39.56054,-99.7207 -2.98,-8.47 -5.93055,-16.66071 -6.56055,-18.22071 -1.38,-3.39999 -4.06859,-2.1882 -4.05859,1.8418 0,1.59 -2.32087,7.49891 -5.13086,13.12891 -5.56,11.11999 -5.56054,11.42002 0.18945,39.75 2.85,14.08998 36.22128,76.41058 62.78125,117.31054 9.01999,13.89999 10.22859,18.87891 4.55859,18.87891 -2.23999,0 -6.00914,-4.17931 -12.36914,-13.7793 -13.14998,-19.82998 -35.61962,-58.74963 -48.84961,-84.59961 -6.26999,-12.25998 -11.98039,-21.95125 -12.65039,-21.53125 -2.52999,1.56 -3.33,13.88072 -1.5,22.97071 3.82,19.00998 13.76931,42.82071 22.5293,53.9707 11.93999,15.20998 25.19141,29.31915 33.69141,35.86914 6.39999,4.94 8.65859,7.73946 8.30859,10.18945 -0.27,1.86 -1.59945,3.5918 -2.93945,3.8418 -3.71,0.71 -21.95947,-15.36056 -36.43946,-32.06055 l -12.92968,-14.93945 -1.88086,4.62891 c -2.99,7.47999 -5.81071,35.83072 -5.22071,52.4707 l 0.53125,15.40039 4.87891,0.43945 c 21.36998,1.91 52.38058,11.22057 87.56055,26.31055 23.45997,10.06999 49.07932,18.01821 73.02929,22.6582 19.97998,3.87 68.81143,5.6718 89.94141,3.3418 17.01998,-1.87 43.41986,-7.44001 61.58984,-13 20.30998,-6.20999 39.83963,-9.75125 54.09961,-9.78125 6.36,-0.01 13.05985,-0.42039 14.83985,-0.90039 4.10999,-1.11 26.31085,-44.48891 24.38086,-47.62891 -1.91,-3.07999 -12.33105,-1.37944 -43.04102,7.06055 -21.92998,6.03999 -57.22931,14.88946 -70.5293,17.68945 -10.94999,2.3 -19.18111,3.91876 -38.12109,7.46875 -21.76998,4.08 -84.87002,9.8818 -107,9.8418 -15.81998,-0.02 -50.81,-4.15125 -55.25,-6.53125 -2.62,-1.4 -3.01961,-2.33 -1.59961,-3.75 2.19,-2.18 21.07946,-1.80039 29.43945,0.59961 7.44,2.13 24.03072,1.99093 33.47071,-0.28906 25.46997,-6.14 74.15089,-24.32971 109.63086,-40.92969 8.76999,-4.11 16.24914,-7.4707 16.61914,-7.4707 1.49,0 32.52087,-18.43931 43.38086,-25.7793 17.78998,-12.03999 37.30001,-33.53002 49.5,-54.5 5.68999,-9.79999 14.22899,-24.41071 18.95898,-32.4707 20.59998,-35.08997 26.5496,-60.72071 14.09961,-60.72071 -3.52,0 -7.47931,3.07072 -18.2793,14.22071 -11.43999,11.79998 -16.10087,18.37002 -27.38086,38.5 -17.28998,30.85997 -31.68946,52.55072 -45.43945,68.4707 -11.52999,13.34999 -18,16.83968 -18,9.67969 0,-2.15 1.58071,-5.3 3.4707,-7 4.2,-3.76 17.62891,-21.0304 17.62891,-22.65039 0,-0.64 -3.82,2.45109 -8.5,6.87109 -38.67996,36.52996 -102.74865,66.98931 -162.55859,77.2793 -39.92996,6.87999 -42.97071,7.10999 -42.97071,3.5 0,-1.33 0.37985,-2.42969 0.83985,-2.42969 2.99999,0 26.92055,-7.21071 33.06054,-9.9707 18.83998,-8.46 33.65891,-16.58055 36.62891,-20.06055 1.78,-2.1 8.34985,-7.23016 14.58984,-11.41016 59.16994,-39.65996 129.33129,-120.32882 166.28125,-191.21875 5.58,-10.69999 11.73876,-21.0307 13.71875,-22.9707 7.39,-7.21999 22.39126,-62.20973 29.78125,-109.17969 10.29999,-65.44993 12.16961,-146.86039 5.34961,-231.82031 -1.01,-12.51999 -1.46016,-13.90969 -5.16015,-15.67969 -2.23,-1.08 -22.62917,-7.98961 -45.36914,-15.34961 -1.86536,-0.60347 -73.71613,-53.8862 -75.55729,-54.48639 -1.24648,-8.17788 58.51334,4.53004 8.1569,-7.62884 z m 151.20898,97.39453 c -2.27,-0.4 -2.37859,2.45962 -0.0586,8.34961 2.85999,7.27999 6.61969,8.78164 10.42968,4.18164 1.88,-2.26 1.31875,-3.34 -4.03125,-8.25 -2.84999,-2.61 -4.97984,-4.04125 -6.33984,-4.28125 z m 16.56055,20 c -0.71,0 -3.22055,1.66946 -5.56055,3.68945 l -4.25,3.66016 2.4707,10.53125 c 1.35,5.78999 2.87039,13.24985 3.40039,16.58984 0.53,3.35 1.53875,6.09961 2.21875,6.09961 1.53,0 11.59571,-10.28961 11.59571,-11.84961 0,-0.63 -1.00714,-1.12109 -2.24414,-1.12109 -3.09,0 -4.32016,-3.75892 -5.41016,-16.62891 -0.51,-6.01999 -1.5107,-10.9707 -2.2207,-10.9707 z m -539.7793,14.59961 c -2.13,0 -6.54071,20.73166 -8.7207,40.93164 -1.87,17.36998 -2.39985,19.21836 -6.33985,22.31836 -5.58999,4.38999 -7.59945,11.98095 -5.93945,22.46094 1.16,7.37999 0.62984,10.37071 -4.41016,24.9707 -14.72998,42.67996 -34.87054,110.24875 -33.31054,111.71875 1.66,1.57 15.48073,5.59962 43.9707,12.84961 13.74999,3.49 25.97016,6.37109 27.16016,6.37109 2.63999,0 2.76913,-8.13112 0.61914,-41.62109 -0.85,-13.22999 -1.91914,-60.38004 -2.36914,-104.75 l -0.85157,-80.68945 -4.25,-7.2793 c -2.34999,-4.01 -4.84859,-7.28125 -5.55859,-7.28125 z m 37.75,8.43164 c -4.16,0.03 -5.32086,2.58821 -5.13086,9.4082 0.14,4.8 1.77962,7.17181 10.59961,15.3418 l 10.40039,9.6582 -1.0293,-7.21875 c -0.56,-3.97999 -1.60984,-9.41984 -2.33984,-12.08984 -0.73,-2.68 -1.78055,-6.84 -2.31055,-9.25 -0.77,-3.48 -2.19031,-4.63 -6.82031,-5.5 -1.29,-0.25 -2.40914,-0.34961 -3.36914,-0.34961 z m 517.16016,17.68945 c -1.133,-0.01 -3.48901,1.77946 -8.125,5.93946 l -8.56055,7.68945 1.86914,6.46094 c 1.93,6.72999 1.37031,40.68912 -1.67969,103.78906 -0.83,16.93998 -2.26945,49.26057 -3.18945,71.81055 -0.92,22.54997 -2.08961,41.6507 -2.59961,42.4707 -0.5,0.81 0.53906,2.24945 2.28906,3.18945 7.75999,4.15 54.3064,-0.53016 58.77539,-5.91015 1.051,-1.27 1.87571,-5.72016 1.84571,-9.91016 -0.033,-4.57 0.9535,-8.75875 2.4375,-10.46875 2.10399,-2.42 2.16649,-3.85094 0.4375,-9.71094 -4.238,-14.37998 -16.24727,-28.63977 -33.03125,-39.25976 -5.179,-3.27 -9.82346,-6.9993 -10.31446,-8.2793 -2.14399,-5.57999 1.88722,-11.88111 17.28321,-26.87109 l 16.0625,-15.62891 -1.6875,-6.25 c -0.932,-3.44 -3.81721,-13.8604 -6.40821,-23.15039 -2.59099,-9.29999 -4.71679,-18.81086 -4.71679,-21.13086 0,-6.16999 -4.28176,-11.29 -12.34375,-14.75 -7.925,-3.39 -8.85545,-6.41876 -4.56446,-14.71875 2.292,-4.43 2.2782,-6.1704 0.0332,-18.15039 -1.367,-7.28999 -2.6865,-14.52031 -2.9375,-16.07031 -0.113,-0.69 -0.36,-1.07985 -0.875,-1.08985 z m -534.46094,4.93946 c -0.11,0 -0.23031,0.0411 -0.32031,0.12109 -1.38,1.38 2.76101,211.43946 4.29101,217.18945 1.73,6.55 8.4886,13.13055 17.3086,16.81055 3.11999,1.31 7.08054,2.37891 8.81054,2.37891 3.08,0 3.13055,-1.23005 2.06055,-51.5 -0.93,-43.81996 -1.57055,-53.27892 -4.31055,-63.62891 -4.92999,-18.63998 -7.10984,-27.5111 -9.33984,-38.12109 -1.13,-5.35 -2.61031,-11.91962 -3.32031,-14.59961 -0.7,-2.67 -2.48899,-11.77025 -3.95899,-20.24024 -1.48,-8.47999 -3.3907,-18.4807 -4.2207,-22.2207 -0.84,-3.74 -1.5293,-9.04836 -1.5293,-11.81836 0,-4.54 -3.8407,-14.32109 -5.4707,-14.37109 z m 13.2207,5.43945 0.89844,4.87109 c 0.5,2.68 1.38141,8.14016 1.94141,12.16016 1.83999,13.14999 13.20859,68.08969 14.30859,69.17969 0.35,0.35 1.07086,-1.6011 1.63086,-4.3711 0.55,-2.76999 1.72914,-4.57929 2.61914,-4.02929 0.89,0.55 2.30086,3.32945 3.13086,6.18945 1.98,6.85999 2.19929,-27.22908 0.2793,-43.78906 -1.18,-10.17999 -2.28017,-13.0004 -8.66016,-21.90039 -4.02,-5.62 -9.32,-12.02001 -11.75,-14.25 z m -94.54101,195.93164 c -1.43,-0.11 -2.41,0.97836 -3,3.31836 -0.54,2.17 -1.409686,5.04039 -1.929686,6.40039 -0.63,1.64 0.64,3.30016 3.749996,4.91016 7.75999,4.00999 34.20056,12.3593 52.31055,16.52929 19.52998,4.49 25.93945,4.93 25.93945,1.75 0,-1.21 -0.46,-5.46875 -1,-9.46875 -0.9,-6.53999 -1.3593,-7.19125 -4.7793,-6.53125 -3.54999,0.68 -22.85142,-2.85875 -33.9414,-6.21875 -2.68,-0.81 -11.44876,-3.33109 -19.46875,-5.62109 -8.03,-2.3 -15.79001,-4.54875 -17.25,-4.96875 -0.22,-0.07 -0.42086,-0.0796 -0.63086,-0.0996 z m 579.13086,1.2793 c -0.03,-0.01 -0.0598,-9.4e-4 -0.0898,0.0391 -0.63,0.57 -3.70156,10.04056 -6.85156,21.06055 -3.14,11.01999 -6.11984,21.31109 -6.58984,22.87109 -0.61,2.02 0.0613,2.84961 2.28125,2.84961 5.75999,0 8.88859,-3.84141 9.30859,-11.44141 0.22,-3.95999 0.98141,-13.7886 1.69141,-21.80859 0.66999,-7.52999 0.75,-13.34031 0.25,-13.57031 z m -492.14844,35.15429 c -0.12625,0.0312 -0.19141,0.0953 -0.19141,0.19532 0,2.59999 8.34985,11.5207 13.08985,13.9707 5.48999,2.83 13.82945,3.1 15.43945,0.5 1.27,-2.07 -3.51016,-6.25 -7.16016,-6.25 -1.28,0 -6.60985,-2.17961 -11.83984,-4.84961 -3.93,-1.99 -7.3293,-3.35055 -8.7793,-3.56055 -0.245,-0.035 -0.43234,-0.0371 -0.55859,-0.006 z m 470.14844,38.53516 c -0.39,0.04 -0.79086,0.90055 -1.38086,2.31055 -2.61,6.30999 -8.1293,21.48906 -9.2793,25.53906 -0.56,2 -0.78,3.62984 -0.5,3.58984 0.29,-0.04 4.03961,-3.3093 8.34961,-7.27929 l 7.83984,-7.22071 -2.36914,-9.33984 c -1.39,-5.46 -2.01016,-7.64961 -2.66015,-7.59961 z m -26.94141,40.68945 c -0.61,0.21 -3.4893,4.54056 -7.2793,11.06055 -22.20998,38.25996 -43.92932,63.80948 -74.52929,87.68945 -17.48999,13.64999 -30.81055,26.66087 -30.81055,30.13086 0,6.3 14.67072,1.29999 35.2207,-12 16.34999,-10.58999 24.27931,-19.52033 38.7793,-43.57031 7.19999,-11.93999 16.16039,-26.67001 19.90039,-32.75 6.57999,-10.67999 16.42,-31.70931 18.75,-40.0293 0.12,-0.42 0.10875,-0.58125 -0.0312,-0.53125 z m 41.56055,71.06055 -3.06055,7.32031 c -17.96998,42.90996 -40.35931,78.9897 -57.5293,92.67969 -7.06999,5.63999 -52.04016,28.89016 -55.91015,28.91016 -1.61,0.01 -22.98931,8.78016 -29.0293,11.91015 -2.65,1.37 -5.77969,3.6293 -6.92969,5.0293 -3.05,3.66 -0.70099,3.13983 24.20899,-5.16016 19.20998,-6.39999 63.92018,-25.25931 93.66015,-39.52929 10.91999,-5.24 20.8293,-9.5293 22.0293,-9.5293 1.2,0 3.5407,-4.05001 5.2207,-9 3.05,-8.97999 3.0707,-9.03032 -0.52929,-19.07031 -5,-13.93999 -4.6714,-22.79986 1.30859,-35.58985 2.7,-5.77999 5.2607,-14.4207 5.7207,-19.2207 z m -10.42969,99.7207 c -0.4,0 -10.11033,4.58946 -21.57031,10.18946 -11.45999,5.59999 -26.31001,12.86109 -33,16.12109 -14.04999,6.86999 -13.82053,6.9489 5.68945,2.12891 21.96998,-5.43 35.42087,-7.69961 42.38086,-7.09961 l 6.25,0.57031 0.5,-10.9707 c 0.26,-6.02 0.14,-10.93946 -0.25,-10.93946 z" />
    <path
       id="path1949"
       style="fill:#000000"
       d="m 533.14212,184.10102 c 0.34,-0.02 0.69055,0.001 1.06055,0.0312 h 0.0605 c 0.29,0 0.61875,0.0591 0.96875,0.11914 0.04,0.01 0.0909,-0.01 0.13086,0 4.45,0.71 11.09056,3.91 22.31055,10.5 21.08998,12.39998 87.24948,35.8 119.43945,42.25 18.59998,3.72999 30.51981,8.61 40.3418,16.5 7.49399,6.02999 18.8145,22.48087 23.8125,34.63086 5.12799,12.45998 11.78125,35.58039 11.78125,40.90039 0,2.94999 2.12225,7.4882 5.53125,11.9082 5.76799,7.47999 9.0475,16.61071 9.0625,25.2207 0.005,2.79 1.02625,5.93071 2.28125,6.97071 4.95199,4.10999 7.6395,13.30876 8.3125,28.46875 0.54,12.17998 2.01925,19.35071 7.15625,35.2207 14.43699,44.56995 24.44576,83.17971 26.84375,103.42969 0.341,2.88999 0.87775,10.44032 1.34375,18.82031 0.0205,0.36 0.0422,0.69055 0.0625,1.06055 0.24278,3.66999 0.47317,7.31039 0.59375,10.65039 0.13922,3.85999 0.20692,6.87945 0.25,9.43945 0.0981,5.82999 -0.086,8.8093 -0.75,10.5293 -0.0109,0.04 -0.0201,0.0909 -0.0312,0.13086 -1.0654,3.60999 -3.35325,4.47914 -7.65625,5.36914 -2.83629,0.59 -9.15781,2.76031 -14.0625,4.82031 -9.10999,3.79999 -25.87451,9.02039 -38.9375,12.15039 -4.013,0.96 -18.58326,2.17945 -32.40625,2.68945 -23.49898,0.87 -25.42,1.18001 -29.25,4.75 -2.26,2.1 -6.53,4.68071 -9.5,5.72071 -1.6,0.55 -2.70875,0.93945 -3.46875,1.43945 -0.01,0 -0.0213,0.0193 -0.0312,0.0293 -0.46,0.35 -0.80984,0.79125 -1.08984,1.28125 -0.43,1.07999 -0.21,2.68859 0.25,5.55859 0.56,3.54 2.55039,10.5618 4.40039,15.5918 1.85999,5.03999 4.05015,13.52891 4.91015,18.8789 1.71,10.66999 0.58984,32.29931 -2.16015,41.5293 -1.44,4.84999 -1.1893,7.4018 1.4707,14.5918 8.49999,23.03997 8.1189,38.70908 -1.37109,58.78906 -5.58,11.76999 -5.80875,16.0304 -1.46875,26.15039 3.64999,8.52999 4.24874,21.9493 1.21875,27.2793 -1.38,2.41999 -2.33001,16.41034 -3,44.07031 -0.84,34.20996 -1.53891,42.91095 -4.62891,55.71094 -2.92,12.12998 -4.01071,17.3289 -9.4707,19.3789 l -0.0899,0.0293 c -1.55,0.77 -3.39945,1.07125 -5.68945,1.03125 -4.27,0.29 -10.06985,0.0287 -18.33984,-0.28125 -29.39997,-1.11 -44.99144,0.81141 -74.69141,9.19141 -22.44998,6.32999 -32.88861,8.54039 -52.30859,11.15039 -1.84,0.25 -5.21016,0.49875 -9.41016,0.71875 -1.02,0.23 -1.75109,0.44031 -1.87109,0.57031 -0.53,0.52 -11.39947,0.55055 -25.43946,0.31055 h -0.38086 c -2.49999,0.04 -5.01,0.0386 -7.5,0.0586 -57.91994,0.4 -82.90865,-4.45916 -137.80859,-26.86914 -42.73996,-17.44998 -57.49018,-21.87086 -82.16016,-24.63086 -7.15999,-0.8 -13.75109,-2.1593 -14.62109,-3.0293 -7.15999,-7.15999 -5.31015,-71.35931 2.58984,-90.27929 2.26,-5.41 2.14125,-6.36017 -2.21875,-16.91016 -8.12999,-19.71998 -10.42039,-29.39072 -10.40039,-43.9707 0.01,-11.16999 0.70071,-15.13876 3.72071,-20.96875 4.08999,-7.91 4.04913,-9.75097 -0.88086,-34.96094 -2.16,-11.04999 -2.89071,-23.16909 -2.97071,-49.78906 l -0.0898,-35.06055 -1.55859,-0.0898 h -8.38086 c -11.82999,0 -20.4304,-3.25017 -28.15039,-10.66016 -5.04,-4.83 -7.70908,-5.8411 -23.78907,-8.87109 -32.02996,-6.05 -70.669996,-19.15876 -77.249996,-26.21875 -0.8,-0.86 -1.38125,-1.57016 -1.78125,-2.41016 l -0.0293,-0.0606 c -0.63,-0.96 -0.93946,-1.9189 -0.93946,-2.8789 0,-0.77 0.35016,-2.6504 0.91016,-5.15039 0.43,-2.73 1.12891,-6.26001 2.12891,-11.25 2.95999,-14.83999 25.199846,-88.22965 36.839836,-121.59961 4.93999,-14.16999 5.52109,-17.46126 4.62109,-26.03125 -1.24,-11.83999 0.92892,-20.72931 7.12891,-29.2793 3.57,-4.93 4.83016,-8.87946 5.66016,-17.68945 1.95999,-20.91998 14.42969,-69.82111 21.17968,-83.1211 12.34999,-24.30997 30.80077,-35.50018 94.72071,-57.41015 45.81995,-15.69999 64.27087,-23.30001 76.88086,-31.75 6.48999,-4.34 13.10875,-8.4 14.71875,-9 1.66999,-0.61 6.87039,0.58125 12.15039,2.78125 18.20998,7.59999 48.84019,12.20906 81.41015,12.28906 34.79997,0.07 53.82058,-4.26033 87.06055,-19.82031 0.81,-0.38 1.69875,-0.60039 2.71875,-0.65039 z m 3.12109,14.06054 c -0.01,0 -0.0113,-0.01 -0.0312,0 -0.01,0 -0.0193,0.0293 -0.0293,0.0293 -3.64381,4.09583 -10.25269,5.46791 -14.73047,7.16211 -2.26094,0.56514 -5.92838,1.71916 -9.99024,3.17969 -9.67584,3.49405 -16.82719,5.7447 -24.29687,7.21289 -0.37122,0.0788 -0.74229,0.15384 -1.11328,0.23047 -7.76383,1.43636 -16.01948,2.03766 -27.92969,2.24609 -9.31999,0.97 -15.28876,0.97 -26.71875,0 -9.30643,-0.16606 -17.42191,-0.54902 -24.7832,-1.1582 -10.84149,-2.87868 -50.85645,-7.76478 -55.1875,-13.0918 l -6.71289,4.26172 c -12.0716,8.59262 -23.03982,13.3096 -35.97657,18.33787 -8.46999,3.28 -30.99056,11.3304 -50.06054,17.90039 -63.45994,21.88998 -78.44931,32.33878 -87.7793,61.21875 l -3.16016,9.7207 c -0.02,0.34 -0.0312,0.69 -0.0312,1 0,0.23 0.0609,0.50985 0.13086,0.83985 l 7.15039,12.82031 c 4.18,7.43999 9.32946,15.64094 11.43946,18.21094 3.72999,4.56999 3.85015,4.59874 3.91015,0.96875 0.06,-4.18 4.4004,-13.49055 7.15039,-15.31055 2.85,-1.88 11.52016,-1.4193 13.66016,0.7207 4.08,4.07 2.21984,6.24945 -4.41016,5.18946 -5.30999,-0.85 -6.59984,-0.47945 -8.08984,2.31054 -2.67,4.98 -2.2907,16.5 0.5293,16.5 1.26999,0 6.6607,4.79946 11.9707,10.68946 5.30999,5.87999 10.0493,10.08054 10.5293,9.31054 0.85,-1.38 -0.40001,-8.74002 -4.5,-26.5 -1.13,-4.90999 -1.6993,-9.4907 -1.2793,-10.2207 1.83,-3.15 6.3886,4.43056 8.30859,13.81055 4.9,23.95997 5.64141,28.64033 7.69141,48.07031 0.91,8.58999 3.62,74.18975 5.5,133.17969 0.9,28.08997 2.17891,55.83086 2.87891,61.63086 0.71999,6.02999 7.24,28.20916 15.25,51.86914 7.68999,22.73997 16.34094,48.65032 19.21093,57.57031 12.60999,39.14996 34.62947,93.12916 45.43946,111.36914 3.52999,5.94999 6.41015,11.2718 6.41015,11.8418 0,0.58 -1.5607,0.81906 -3.4707,0.53906 -7.69999,-1.15 -30.01987,-51.14953 -54.83984,-122.93945 -2.01,-5.8 -6.09032,-16.73056 -9.07032,-24.31055 -2.97999,-7.57999 -7.72859,-20.52001 -10.55859,-28.75 -2.83,-8.23999 -5.78055,-14.57961 -6.56055,-14.09961 -2,1.24 -1.77945,45.50877 0.31055,62.21875 4.65999,37.23996 7.72947,48.01057 21.18945,74.31055 13.07999,25.55997 28.20041,52.02018 46.40039,81.16015 7.16,11.44999 9.94836,17.29946 8.81836,18.43946 -0.92,0.90999 -2.41961,1.19109 -3.34961,0.62109 -4.22999,-2.61 -43.09986,-68.99042 -59.83984,-102.15039 -9.56999,-18.96998 -10.7893,-20.65945 -12.7793,-17.93945 -3.65999,4.99999 -3.44124,20.6686 0.46875,34.80859 4.11,14.88998 13.66056,35.98017 20.56055,45.41016 3.59,4.89999 14.46946,16.75985 24.18945,26.33984 16.91999,16.67998 21.40999,24.17085 10.75,17.88086 -5.21999,-3.09 -29.31876,-27.41962 -38.96875,-39.34961 l -5.91015,-7.31055 -1.81055,4.6211 c -3.25,8.39999 -5.77016,30.69962 -6.41016,48.34961 v 0.43945 c 0.02,1.34 0.0596,2.6793 0.0996,4.0293 l 0.40039,15.53125 v 0.0293 c 0.31,1.89 0.72,3.19071 1.25,3.72071 1.07,1.06999 4.40087,1.93945 7.38086,1.93945 15.18999,0 45.29879,9.09056 84.71875,25.56055 36.17997,15.11998 64.90058,22.8393 97.56055,26.27929 14.13999,1.49 46.86072,1.81985 59.7207,0.58985 20.68998,-1.96 47.51878,-7.5204 73.21875,-15.15039 20.69998,-6.15 48.93112,-9.92961 71.6211,-9.59961 9.65999,0.15 18.17015,-0.3804 18.91015,-1.15039 3.12,-3.29 6.45985,-34.08933 7.08985,-65.5293 0.54,-26.87997 1.2389,-34.92087 3.6289,-41.63086 1.39,-3.93 2.1311,-6.0493 2.1211,-8.2793 -0.01,-0.32 -0.0406,-0.6507 -0.0606,-0.9707 -0.01,-0.07 -0.0293,-0.14875 -0.0293,-0.21875 -0.25,-2.14 -1.12945,-4.6911 -2.68945,-9.12109 -5.03,-14.32999 -4.65109,-22.83963 1.62891,-36.34961 7.06999,-15.22999 7.24108,-28.23932 0.62109,-48.0293 l -4.7207,-14.15039 2.68945,-11.2207 c 3.98,-16.47999 3.52015,-32.85947 -1.33984,-48.18946 -2.23,-7.01999 -4.48907,-15.15055 -5.03907,-18.06054 -1.15,-6.15 -3.13109,-6.90016 -4.37109,-1.66016 -2.41,10.16999 -21.08946,61.03002 -28.18945,76.75 -14.06999,31.16997 -39.54986,75.10073 -56.83985,97.9707 -7.20999,9.52999 -21.35,24.31055 -23.25,24.31055 -3.49999,0 -0.95069,-5.29985 6.7793,-14.08984 4.54999,-5.18 11.39946,-13.78087 15.18945,-19.13086 16.89999,-23.85998 50.42041,-87.91918 63.65039,-121.61914 5.43,-13.82999 15.84001,-45.61058 25.5,-77.81055 2.41,-8.02999 5.02125,-16.43016 5.78125,-18.66016 5.65,-16.43998 13.97961,-66.71001 12.34961,-74.5 -0.48,-2.29 0.13914,-10.35946 1.36914,-17.93945 5.93,-36.51996 7.01961,-75.94003 3.09961,-110.25 -4.35999,-38.03996 -4.4889,-45.26126 -1.1289,-54.28125 2.30999,-6.17999 4.7193,-9.18914 10.27929,-12.86914 4,-2.65 7.82125,-5.77946 8.53125,-6.93945 1.91,-3.12 8.89875,-2.56016 10.71875,0.83984 0.869,1.62 1.82491,7.63891 2.12891,13.37891 0.304,5.73999 1.257,10.37984 2.125,10.33984 2.448,-0.1 14.15625,-20.3793 14.15625,-24.5293 0,-5.67999 -6.79551,-21.38016 -13.6875,-31.66015 -9.83199,-14.65999 -18.91143,-20.37056 -39.44141,-24.81055 -29.52997,-6.38999 -82.79127,-23.31915 -106.53125,-33.86914 l -20.72203,-9.75201 c -10.47345,-8.28549 -5.90911,-5.02702 -15.74672,-10.65815 z m 169.56836,118.68946 c -4.04999,0.15 -12.41891,9.58985 -14.3789,16.58984 -1.88,6.72999 -1.2211,25.04016 1.1289,31.16016 0.45,1.17999 1.3011,2.14109 1.8711,2.12109 2.96999,-0.09 16.61045,-10.18985 21.06445,-15.58984 6.28399,-7.63 6.63949,-10.78086 1.0625,-9.38086 -4.847,1.22 -5.4068,0.10959 -6.9668,-13.90039 -0.63,-5.65 -2.00125,-10.57016 -3.03125,-10.91016 -0.23,-0.08 -0.48,-0.0998 -0.75,-0.0898 z m -540.25,12 c -0.59,0.03 -0.96,0.90984 -1.5,2.33984 -3.02999,8.00999 -7.5682,31.90087 -8.6582,45.63086 -1.02,12.76999 -1.54071,14.50094 -5.7207,18.21094 -5.74,5.11999 -6.97985,9.86946 -5.83985,22.43945 0.81,8.93999 0.0393,12.33018 -7.9707,35.91016 -7.67999,22.60997 -31.01891,98.37859 -31.37891,101.80859 0.02,0.1 0.009,0.19125 0.0391,0.28125 1.31999,1.46 22.75985,8.39875 35.58984,11.46875 5.79999,1.39 13.10071,3.20125 16.2207,4.03125 3.12,0.83 9.13915,2.37945 13.36914,3.43945 7.92,1.99 10.76086,6.3711 4.13086,6.3711 -4.67999,0 -33.52127,-7.10001 -53.78125,-13.25 -8.80999,-2.66 -16.52945,-4.24 -17.18945,-3.5 -0.66,0.74 -2.07891,3.90906 -3.128906,7.03906 -1.7,5.05999 -1.53054,5.94914 1.439456,8.36914 4.52999,3.69 34.20072,13.4118 55.9707,18.3418 9.80999,2.22999 19.87891,4.05836 22.37891,4.06836 l 4.56054,0.0312 -0.88086,-13.38086 c -2.04999,-31.71997 -3.07,-70.73048 -4,-153.65039 l -1,-87.93946 c -0.16,-0.39 -0.34859,-0.8 -0.55859,-1.25 l -5.75,-8.81054 c -3.82,-5.81 -5.3718,-8.06 -6.3418,-8 z m 573.28125,2.25 c -0.671,0 -3.022,3.45164 -5.25,7.68164 -4.05099,7.69999 -21.47931,25.56946 -33.52929,34.43945 l -6.37891,4.71875 1.41016,13.4707 c 1.56999,14.86999 0.24984,68.16072 -2.16016,87.22071 -0.84,6.68999 -2.18,21.65001 -3,33.25 -0.82,11.58998 -2.25039,25.45859 -3.15039,30.80859 -1.93,11.37999 -10.18071,43.64072 -14.9707,58.4707 -1.84,5.68 -2.87836,11.08 -2.31836,12 2.17999,3.52 8.04875,1.43929 13.96875,-4.9707 6.57999,-7.11999 7.44087,-7.33875 23.38086,-5.46875 0.83999,0.1 1.71984,0.18 2.58984,0.25 l 7.2207,-0.0606 c 3.694,-0.04 6.80226,-0.10015 9.65625,-0.16015 19.17698,-1.67 42.68878,-7.79915 66.46875,-17.61914 7.991,-3.3 9.79676,-4.78001 10.21876,-8.25 0.302,-2.49 -0.40775,-4.56055 -1.71875,-5.06055 -1.226,-0.47 -9.75677,1.76094 -18.96876,4.96094 -11.93099,4.15999 -17.261,5.3396 -18.5,4.09961 -3.15699,-3.16 4.13327,-8.00001 20.65625,-13.75 8.14499,-2.84 15.03651,-5.37141 16.18751,-5.94141 0.121,-0.19 0.2255,-0.38984 0.3125,-0.58984 0.043,-4.1 -5.58126,-34.69877 -9.15626,-49.46875 -4.46499,-18.43999 -17.32525,-62.26017 -21.03125,-71.66016 -3.57999,-9.07999 -7.992,-33.26056 -8,-43.81055 -0.004,-5.68999 -1.02225,-8.76984 -4.03125,-12.33984 -5.34499,-6.35999 -7.34375,-12.04087 -7.34375,-20.88086 0,-6.03999 -0.98325,-8.50876 -5.65625,-13.96875 -4.01499,-4.69 -5.6875,-8.19 -5.6875,-12 0,-2.96 -0.54875,-5.37109 -1.21875,-5.37109 z m -553.75,29.2207 c -0.11,0.01 -0.20125,0.0391 -0.28125,0.11914 -1.2,1.2 1.96055,207.66126 3.31055,216.28125 1.49,9.58999 4.9611,14.39001 14.62109,20.25 6.69,4.06 11.16001,5.45891 19.5,6.12891 l 10.81836,0.87109 -1.09961,-6.31055 c -2.21999,-12.80998 -4.21914,-72.63895 -4.11914,-123.8789 0.09,-50.14995 -1.35945,-72.51001 -5.18945,-79.75 -2.96,-5.58 -21.03071,-27.28125 -22.7207,-27.28125 -1.17,0 -1.38946,2.86125 -0.68946,8.53125 3.1,24.98997 15.07016,82.20837 19.41016,92.81836 1.09,2.66999 3.34,10.1511 5,16.62109 2.43,9.46999 2.65,12.1593 1,13.7793 -1.63,1.60999 -2.4611,1.4707 -4.12109,-0.7793 -1.72,-2.32 -8.36072,-27.46129 -17.22071,-65.28125 -2.53999,-10.82999 -5.9993,-30.03986 -8.02929,-44.58984 -1.07,-7.58 -2.23961,-15.2493 -2.59961,-17.0293 -0.77,-3.77 -5.90985,-10.7 -7.58985,-10.5 z m 6.83985,238.31055 c -5.92,0 5.54946,15.26914 14.18945,18.86914 5.10999,2.13999 10.95001,2.54015 17.5,1.16015 1.78,-0.38 4.90016,-1.0407 6.91016,-1.4707 6.29999,-1.34 4.41929,-5.58984 -2.47071,-5.58984 -6.76999,0 -20.20946,-4.47892 -28.93945,-9.62891 -3.12,-1.84 -6.34945,-3.33984 -7.18945,-3.33984 z m 430.93945,39.11914 c 3.49,-0.18 2.28015,4.32032 -4.58984,18.07031 -37.47997,74.96992 -107.39898,156.07098 -174.12891,201.96094 -11.28999,7.76999 -20.53125,9.31819 -15.78125,2.6582 0.65,-0.92 8.68985,-6.97876 17.83984,-13.46875 21.95998,-15.55999 33.24073,-25.00986 54.47071,-45.58984 41.04996,-39.80996 82.44057,-94.6413 108.31054,-143.53125 6.28,-11.86999 11.36961,-19.67 13.09961,-20 0.27,-0.06 0.5493,-0.0796 0.7793,-0.0996 z m 40.9707,208.66015 c 1.21,0.1 1.61914,0.8 1.61914,2 0,1.83 -25.54041,14.78056 -52.40039,26.56055 -10.85999,4.75999 -24.84961,11.0893 -31.09961,14.0293 -6.23999,2.94999 -19.00915,8.06016 -28.36914,11.41015 -17.30998,6.18 -26.75,7.34 -26.75,3.25 0,-0.43 0.78914,-1.05055 2.11914,-1.81054 0.02,-0.02 0.0403,-0.0484 0.0703,-0.0684 0.58,-0.48 1.36968,-0.8911 2.17968,-1.1211 0.04,-0.01 0.0596,-0.0193 0.0996,-0.0293 3.46,-1.62 8.80056,-3.65001 15.81055,-6 23.10998,-7.76 61.19948,-23.65002 93.43945,-39 14.10999,-6.72 20.60126,-9.44071 23.28125,-9.22071 z" />
  </g>
  <metadata
     id="metadata7">
    <rdf:RDF>
      <cc:Work>
        <dc:format>image/svg+xml</dc:format>
        <dc:type
           rdf:resource="http://purl.org/dc/dcmitype/StillImage" />
        <cc:license
           rdf:resource="http://creativecommons.org/publicdomain/zero/1.0/" />
        <dc:description>Based on https://openclipart.org/detail/73735/t-shirt_black_01-by-asrafil by  asrafil</dc:description>
        <dc:subject>
          <rdf:Bag>
            <rdf:li>Shirt</rdf:li>
            <rdf:li>T-Shirt</rdf:li>
          </rdf:Bag>
        </dc:subject>
        <dc:title>T-Shirt back</dc:title>
        <dc:creator>
          <cc:Agent>
            <dc:title>Hartmut Goebel, asrafil</dc:title>
          </cc:Agent>
        </dc:creator>
      </cc:Work>
      <cc:License
         rdf:about="http://creativecommons.org/publicdomain/zero/1.0/">
        <cc:permits
           rdf:resource="http://creativecommons.org/ns#Reproduction" />
        <cc:permits
           rdf:resource="http://creativecommons.org/ns#Distribution" />
        <cc:permits
           rdf:resource="http://creativecommons.org/ns#DerivativeWorks" />
      </cc:License>
    </rdf:RDF>
  </metadata>
</svg>
