<?xml version="1.0" encoding="UTF-8" standalone="no"?>
<!-- Created with Inkscape (http://www.inkscape.org/) -->

<svg
   width="100mm"
   height="40.000004mm"
   viewBox="0 0 99.999998 40.000003"
   version="1.1"
   id="svg1"
   xml:space="preserve"
   xmlns="http://www.w3.org/2000/svg"
   xmlns:svg="http://www.w3.org/2000/svg"><defs
     id="defs1" /><g
     id="layer1"><path
       fill="#6354ab"
       d="M 5.7449842,11.062618 C 5.6483893,10.917725 5.6483893,10.676238 5.9623229,10.579643 6.3970003,10.43475 17.094894,6.8607362 17.094894,6.8607362 c 0,0 -0.38638,0.2173387 -0.144893,0.6278673 0.241488,0.4105287 7.027285,12.2675615 7.027285,12.2675615 0,0 0.289785,0.507366 0.265636,0.797151 0,0.265636 -0.120744,0.434677 -0.289785,0.748611 -0.144892,0.289785 -7.148028,12.219264 -7.148028,12.219264 0,0 -0.338082,0.507365 0.120744,0.676406 0,0 -10.8910838,-3.815743 -11.0842738,-3.888189 C 5.575943,30.213055 5.479348,30.019623 5.6966867,29.705689 6.0347692,29.198324 11.58898,21.012142 11.58898,21.012142 c 0,0 0.19319,-0.289785 0.217339,-0.410529 0.0483,-0.313934 -0.0483,-0.458585 -0.217339,-0.724462 -0.169041,-0.265878 -5.723252,-8.621343 -5.8439958,-8.814533 z"
       id="path10"
       style="stroke-width:0.241487" /><path
       fill="#63625d"
       d="m 26.054078,30.937034 1.762858,-3.670609 c 0,0 0.120744,-0.289785 0.313934,-0.289785 0.169041,0 0.241487,0.217339 0.313934,0.362231 0.169041,0.338083 2.221684,4.346774 2.221684,4.346774 0,0 0.0966,0.289785 0.362231,0.362231 z"
       id="path11"
       style="stroke-width:0.241487" /><path
       fill="#63625d"
       d="m 26.150673,10.120817 1.714561,3.598162 c 0,0 0.120743,0.289785 0.289785,0.289785 0.241487,0 0.313933,-0.217338 0.38638,-0.338082 0.169041,-0.338082 2.197535,-4.2018815 2.197535,-4.2018815 0,0 0.0966,-0.3139336 0.38638,-0.3622311 z"
       id="path12"
       style="stroke-width:0.241487" /><path
       style="font-weight:600;font-size:16.9333px;line-height:1.25;font-family:'Cascadia Mono';-inkscape-font-specification:'Cascadia Mono Semi-Bold';fill:#ffffff;fill-opacity:1;stroke-width:0.264583"
       d="m 37.413704,29.00446 -0.08268,-1.810738 2.811192,-0.08268 q 1.223696,-0.04134 1.777666,-0.686262 0.55397,-0.636652 0.562238,-1.885153 v -6.399596 l 0.165365,-1.85208 h 1.876884 v 7.987094 q 0,2.339904 -1.091404,3.447844 -1.083136,1.116209 -3.456113,1.198891 z m 2.670633,-3.786841 q -1.670179,0 -2.571415,-1.15755 -0.892967,-1.15755 -0.892967,-3.348626 0,-2.224149 0.892967,-3.406504 0.901236,-1.182354 2.579683,-1.182354 1.008722,0 1.57096,0.446483 0.570507,0.446484 0.702798,1.306378 h 0.661457 l -0.545702,2.678901 q 0,-1.306378 -0.471288,-1.934762 -0.471288,-0.636652 -1.397328,-0.636652 -0.917771,0 -1.405596,0.702798 -0.479556,0.702798 -0.479556,2.025712 0,1.306377 0.479556,1.976103 0.479556,0.669725 1.405596,0.669725 0.992186,0 1.430401,-0.628384 0.438215,-0.628384 0.438215,-1.934762 l 0.595312,2.670633 h -0.768944 q -0.115755,0.859894 -0.69453,1.306377 -0.578775,0.446484 -1.529619,0.446484 z m 12.807462,-0.165364 v -6.242501 q 0,-0.909504 -0.587043,-0.909504 -0.702798,0 -0.702798,1.0666 l -0.595312,-1.587497 h 0.719335 q 0.05788,-0.55397 0.429947,-0.901235 0.380338,-0.355533 1.041795,-0.355533 0.892967,0 1.298109,0.487824 0.413411,0.487825 0.413411,1.579229 v 6.862617 z m -6.217696,0 v -8.764306 h 1.827275 l 0.198437,1.85208 v 6.912226 z m 3.33209,0 V 18.64439 q 0,-0.74414 -0.595312,-0.74414 -0.711066,0 -0.711066,1.0666 l -0.512629,-1.587497 h 0.603579 q 0.148828,-1.256768 1.397328,-1.256768 0.661457,0 1.033527,0.471288 0.380338,0.471288 0.380338,1.430401 v 7.027981 z m 9.996269,0.165364 q -0.934308,0 -1.71152,-0.107487 -0.777212,-0.107487 -1.380791,-0.289387 l 0.206705,-1.918226 q 0.520898,0.14056 1.174086,0.297656 0.653189,0.157096 1.645375,0.157096 1.174086,0 1.810738,-0.429947 0.644921,-0.438215 0.644921,-1.223696 0,-0.570506 -0.380338,-0.967381 -0.372069,-0.396874 -1.099672,-0.603579 -0.719335,-0.206705 -1.752861,-0.206705 h -0.264583 l -0.198437,-1.570961 2.447391,0.611848 q 1.48001,0.04961 2.397782,0.818553 0.926039,0.768944 0.926039,2.124931 0,1.57096 -1.165818,2.439123 -1.165818,0.868162 -3.299017,0.868162 z m -1.10794,-5.291656 -0.198437,-1.570961 q 1.215427,-0.157096 1.976103,-0.46302 0.760675,-0.305924 1.116208,-0.735871 0.355534,-0.429947 0.355534,-0.967381 0,-0.562238 -0.37207,-0.87643 -0.37207,-0.314192 -1.083136,-0.314192 -0.653189,0 -1.413864,0.289387 -0.752408,0.281119 -1.430401,0.843358 l -1.141013,-1.463474 q 0.777212,-0.802016 1.794202,-1.15755 1.025258,-0.363801 2.282026,-0.363801 1.645375,0 2.538342,0.686262 0.901235,0.677993 0.901235,1.94303 0,1.091404 -0.727603,1.89342 -0.719334,0.793749 -1.885152,1.099673 v 0.909503 z m 10.955382,5.291656 q -1.670179,0 -2.571414,-1.15755 -0.892967,-1.15755 -0.892967,-3.348626 0,-2.224149 0.892967,-3.406504 0.901235,-1.182354 2.579683,-1.182354 0.967381,0 1.513083,0.446483 0.545702,0.446484 0.677993,1.306378 h 0.711066 l -0.512629,2.678901 q 0,-1.306378 -0.471288,-1.934762 -0.471288,-0.636652 -1.397328,-0.636652 -0.917772,0 -1.405596,0.702798 -0.479556,0.702798 -0.479556,2.025712 0,1.306377 0.479556,1.976103 0.479556,0.669725 1.405596,0.669725 0.992186,0 1.430401,-0.628384 0.438215,-0.628384 0.438215,-1.934762 l 0.595312,2.670633 h -0.768944 q -0.115755,0.859894 -0.69453,1.306377 -0.578775,0.446484 -1.52962,0.446484 z m 2.662365,-0.08268 -0.264583,-1.728057 V 12.649935 h 2.042249 v 12.40232 z"
       id="path5" /><path
       style="font-weight:300;font-size:16.9333px;line-height:1.25;font-family:'Cascadia Mono';-inkscape-font-specification:'Cascadia Mono Light';fill:#ffffff;fill-opacity:1;stroke-width:0.264583"
       d="m 82.897145,25.052255 v -5.729872 q 0,-1.050063 -0.55397,-1.62057 -0.553971,-0.578775 -1.537888,-0.578775 -2.587951,0 -2.587951,2.976557 l -0.520897,-2.224149 h 0.620116 q 0.190169,-0.884699 0.826821,-1.314646 0.636653,-0.438215 1.752861,-0.438215 1.48001,0 2.290295,0.843357 0.810285,0.843358 0.810285,2.381246 v 5.705067 z m -5.779481,0 v -12.40232 h 1.099672 v 12.40232 z m 13.477188,0.165364 q -1.835544,0 -2.844266,-0.901235 -1.000453,-0.909504 -1.000453,-2.554878 h 1.091404 q 0,1.15755 0.719334,1.810738 0.719335,0.644921 2.050517,0.644921 1.306378,0 2.017444,-0.768944 0.711066,-0.777212 0.711066,-2.182808 0,-1.289841 -0.669725,-2.000907 -0.661457,-0.711067 -1.868616,-0.711067 -1.364255,0 -2.554878,0.876431 l -0.181901,-0.802017 q 0.752408,-0.628384 1.488279,-0.843358 0.744139,-0.223241 1.496546,-0.223241 1.612302,0 2.488732,0.967381 0.884699,0.967381 0.884699,2.736778 0,1.256768 -0.454752,2.141467 -0.446483,0.884699 -1.298109,1.347719 -0.851626,0.46302 -2.075321,0.46302 z m -3.117117,-5.787749 0.148828,-6.118478 h 1.058331 l -0.165364,5.36607 -0.272851,0.752408 z m 0.802017,-5.118024 -0.148828,-1.000454 h 5.547971 v 1.000454 z"
       id="path6" /></g></svg>
