<?xml version="1.0" encoding="UTF-8" standalone="no"?>
<!-- Created with Inkscape (http://www.inkscape.org/) -->

<svg
   width="100mm"
   height="40mm"
   viewBox="0 0 99.999998 39.999999"
   version="1.1"
   id="svg1"
   xml:space="preserve"
   inkscape:version="1.3.2 (091e20e, 2023-11-25, custom)"
   sodipodi:docname="logo.svg"
   xmlns:inkscape="http://www.inkscape.org/namespaces/inkscape"
   xmlns:sodipodi="http://sodipodi.sourceforge.net/DTD/sodipodi-0.dtd"
   xmlns="http://www.w3.org/2000/svg"
   xmlns:svg="http://www.w3.org/2000/svg"><sodipodi:namedview
     id="namedview1"
     pagecolor="#ffffff"
     bordercolor="#666666"
     borderopacity="1.0"
     inkscape:showpageshadow="2"
     inkscape:pageopacity="0.0"
     inkscape:pagecheckerboard="0"
     inkscape:deskcolor="#d1d1d1"
     inkscape:document-units="mm"
     inkscape:zoom="1.6587682"
     inkscape:cx="204.06709"
     inkscape:cy="166.0871"
     inkscape:window-width="1920"
     inkscape:window-height="1129"
     inkscape:window-x="-8"
     inkscape:window-y="-8"
     inkscape:window-maximized="1"
     inkscape:current-layer="layer1" /><defs
     id="defs1"><rect
       x="262.54092"
       y="613.51306"
       width="119.30942"
       height="20.672667"
       id="rect4" /></defs><g
     inkscape:label="Layer 1"
     inkscape:groupmode="layer"
     id="layer1"><g
       id="g5"
       transform="translate(0.55787602,0.29803)"><g
         id="g1"
         transform="matrix(0.24148744,0,0,0.24148744,-22.052675,-5.0024366)"><path
           fill="#6354ab"
           d="m 112.8,63.1 c -0.4,-0.6 -0.4,-1.6 0.9,-2 1.8,-0.6 46.1,-15.4 46.1,-15.4 0,0 -1.6,0.9 -0.6,2.6 1,1.7 29.1,50.8 29.1,50.8 0,0 1.2,2.101 1.1,3.301 0,1.1 -0.5,1.8 -1.2,3.1 -0.6,1.2 -29.6,50.6 -29.6,50.6 0,0 -1.4,2.101 0.5,2.801 0,0 -45.1,-15.801 -45.9,-16.101 -1.1,-0.399 -1.5,-1.2 -0.6,-2.5 1.4,-2.101 24.4,-36 24.4,-36 0,0 0.8,-1.2 0.9,-1.7 0.2,-1.3 -0.2,-1.899 -0.9,-3 C 136.3,98.5 113.3,63.9 112.8,63.1 Z"
           id="path10" /><path
           fill="#63625d"
           d="m 196.9,145.4 7.3,-15.2 c 0,0 0.5,-1.2 1.3,-1.2 0.7,0 1,0.9 1.3,1.5 0.7,1.4 9.2,18 9.2,18 0,0 0.4,1.2 1.5,1.5 z"
           id="path11" /><path
           fill="#63625d"
           d="m 197.3,59.2 7.1,14.9 c 0,0 0.5,1.2 1.2,1.2 1,0 1.3,-0.9 1.6,-1.4 0.7,-1.4 9.1,-17.4 9.1,-17.4 0,0 0.4,-1.3 1.6,-1.5 z"
           id="path12" /></g><text
         xml:space="preserve"
         style="font-size:16.9333px;line-height:1.25;font-family:sans-serif;stroke-width:0.264583"
         x="35.351013"
         y="24.225058"
         id="text1"><tspan
           sodipodi:role="line"
           id="tspan1"
           style="font-style:normal;font-variant:normal;font-weight:normal;font-stretch:normal;font-size:16.9333px;font-family:'Cascadia Mono';-inkscape-font-specification:'Cascadia Mono';stroke-width:0.264583"
           x="35.351013"
           y="24.225058"><tspan
             style="font-style:normal;font-variant:normal;font-weight:600;font-stretch:normal;font-size:16.9333px;font-family:'Cascadia Mono';-inkscape-font-specification:'Cascadia Mono Semi-Bold'"
             id="tspan4">gm3d</tspan><tspan
             style="font-style:normal;font-variant:normal;font-weight:300;font-stretch:normal;font-size:16.9333px;font-family:'Cascadia Mono';-inkscape-font-specification:'Cascadia Mono Light'"
             id="tspan3">h5</tspan></tspan></text></g><text
       xml:space="preserve"
       transform="scale(0.26458333)"
       id="text4"
       style="font-size:16px;line-height:1.25;font-family:sans-serif;white-space:pre;shape-inside:url(#rect4)" /></g></svg>
