<?xml version="1.0" encoding="UTF-8"?>
<!-- Generator: Adobe Illustrator 16.0.0, SVG Export Plug-In . SVG Version: 6.00 Build 0)  -->
<!DOCTYPE svg PUBLIC "-//W3C//DTD SVG 1.1//EN" "http://www.w3.org/Graphics/SVG/1.1/DTD/svg11.dtd">
<svg version="1.1" id="Layer_1" xmlns="http://www.w3.org/2000/svg" xmlns:xlink="http://www.w3.org/1999/xlink" x="0px" y="0px" width="649.596px" height="113.2px" viewBox="112.104 45.7 649.596 113.2" enable-background="new 112.104 45.7 649.596 113.2" xml:space="preserve">
<path fill="#1C1A14" d="M295.7,111.4c0,0-17.9-33.3-18.4-34.3c-0.4-0.7-0.2-1.7,1.1-1.7h14.4l11.7,24.8l12.2-24.8h14.1  c1.101,0,1.601,0.8,1.2,1.6c-0.4,0.7-18.6,34.4-18.6,34.4s19,36.5,19.399,37.1c0.5,1,0.101,1.8-1.1,1.8h-14.3L304.3,122.6  l-13.1,27.7h-14c-1.2,0-1.6-0.8-1-1.8C276.7,147.4,295.7,111.4,295.7,111.4L295.7,111.4z"/>
<path fill="#1C1A14" d="M342.6,75.4h13v8.7h0.4c3.8-6.7,10.9-10.7,19.2-10.7c11.5,0,18.7,5.2,18.7,20.3v56.6H380  c-0.5,0-1.1-0.399-1.1-1V98.9c0-10-2.7-13.5-10.5-13.5c-6.101,0-12,4.6-12,14.6v50.3H342.6c-0.5,0-1.199-0.399-1.199-1.2V76.6  C341.4,75.8,341.9,75.4,342.6,75.4L342.6,75.4z"/>
<path fill="#1C1A14" d="M430.5,141.1c11,0,13-9.199,13-28.3c0-16.6-2-28.3-13-28.3c-10.7,0-12.8,11.7-12.8,28.3  C417.7,131.9,419.8,141.1,430.5,141.1 M402.7,112.8c0-23.4,6.1-39.4,27.8-39.4c21.8,0,28,16,28,39.4c0,23.4-7.2,39.5-28,39.5  C409.9,152.3,402.7,136.2,402.7,112.8z"/>
<path fill="#1C1A14" d="M461.8,75.4H476.4l13.1,59h0.2l11.7-57.9c0,0,0.199-1.1,1.199-1.1h15l-19.8,74.9h-16.6  c-0.9,0-1.2-1.2-1.2-1.2l-19.4-72.3C460.6,76.8,460.1,75.4,461.8,75.4L461.8,75.4z"/>
<path fill="#1C1A14" d="M548,141.1c11,0,12.9-9.199,12.9-28.3c0-16.6-1.9-28.3-12.9-28.3c-10.8,0-12.8,11.7-12.8,28.3  C535.2,131.9,537.2,141.1,548,141.1 M520.1,112.8c0-23.4,6.101-39.4,27.9-39.4c21.7,0,28,16,28,39.4c0,23.4-7.3,39.5-28,39.5  C527.4,152.3,520.1,136.2,520.1,112.8z"/>
<path fill="#1C1A14" d="M591.2,80.9h-9.4v-2.5h9.4V56.1h2.7v22.3h12.3v2.5h-12.3V139c0,6.7,1.899,8.8,8,8.8c2.1,0,3.6,0,5.399-0.399  v2.5c-2.1,0.399-4,0.399-5.5,0.399c-6.6,0-10.6-2.5-10.6-11V80.9z"/>
<path fill="#1C1A14" d="M653,110.3V105.4c0-11-3.3-26.101-18.8-26.101c-15.3,0-19.8,14.7-20.2,31H653z M614,112.8  c0,21.5,4.6,36.7,20.2,36.7c13.5,0,17.8-14,18.3-22.6h2.8c-0.7,14.1-8.8,25.1-21.1,25.1c-16.3,0-23-13.4-23-39.7  c0-22,7-35.6,23-35.6c16.6,0,21.6,14.8,21.6,31.1v5H614z"/>
<path fill="#1C1A14" d="M706,98.3c-0.5-9.6-6.3-19-17.6-19c-11.601,0-20.2,7.9-20.2,35.101c0,26.699,8.6,35.1,20.2,35.1  c13.5,0,17.8-14,18.3-22.6h2.7c-0.7,14.1-8.7,25.1-21,25.1c-16.301,0-23-13.4-23-39.7c0-22,7-35.6,23-35.6  c12.3,0,20.3,10.5,20.3,21.6H706z"/>
<path fill="#1C1A14" d="M721.7,56.4h2.8v35h0.3c1.101-6.3,8.2-14.7,18.4-14.7c13.7,0,18.5,9.1,18.5,21.899v51.7h-2.8V98.9  c0-15.9-7.2-19.601-15.7-19.601c-6.3,0-18.7,4.7-18.7,25.2v45.8h-2.8V56.4z"/>
<path fill="#6354AB" d="M112.8,63.1c-0.4-0.6-0.4-1.6,0.9-2c1.8-0.6,46.1-15.4,46.1-15.4s-1.6,0.9-0.6,2.6  c1,1.7,29.1,50.8,29.1,50.8s1.2,2.101,1.1,3.301c0,1.1-0.5,1.8-1.2,3.1c-0.6,1.2-29.6,50.6-29.6,50.6s-1.4,2.101,0.5,2.801  c0,0-45.1-15.801-45.9-16.101c-1.1-0.399-1.5-1.2-0.6-2.5c1.4-2.101,24.4-36,24.4-36s0.8-1.2,0.9-1.7c0.2-1.3-0.2-1.899-0.9-3  C136.3,98.5,113.3,63.9,112.8,63.1z"/>
<path fill="#63625D" d="M196.9,145.4l7.3-15.2c0,0,0.5-1.2,1.3-1.2c0.7,0,1,0.9,1.3,1.5c0.7,1.4,9.2,18,9.2,18s0.4,1.2,1.5,1.5  L196.9,145.4z"/>
<path fill="#63625D" d="M197.3,59.2l7.1,14.9c0,0,0.5,1.2,1.2,1.2c1,0,1.3-0.9,1.6-1.4c0.7-1.4,9.1-17.4,9.1-17.4s0.4-1.3,1.6-1.5  L197.3,59.2z"/>
</svg>