<svg class="rich-terminal" viewBox="0 0 1214 684.4" xmlns="http://www.w3.org/2000/svg">
    <!-- Generated with Rich https://www.textualize.io -->
    <style>

    @font-face {
        font-family: "Fira Code";
        src: local("FiraCode-Regular"),
                url("https://cdnjs.cloudflare.com/ajax/libs/firacode/6.2.0/woff2/FiraCode-Regular.woff2") format("woff2"),
                url("https://cdnjs.cloudflare.com/ajax/libs/firacode/6.2.0/woff/FiraCode-Regular.woff") format("woff");
        font-style: normal;
        font-weight: 400;
    }
    @font-face {
        font-family: "Fira Code";
        src: local("FiraCode-Bold"),
                url("https://cdnjs.cloudflare.com/ajax/libs/firacode/6.2.0/woff2/FiraCode-Bold.woff2") format("woff2"),
                url("https://cdnjs.cloudflare.com/ajax/libs/firacode/6.2.0/woff/FiraCode-Bold.woff") format("woff");
        font-style: bold;
        font-weight: 700;
    }

    .terminal-289590482-matrix {
        font-family: Fira Code, monospace;
        font-size: 20px;
        line-height: 24.4px;
        font-variant-east-asian: full-width;
    }

    .terminal-289590482-title {
        font-size: 18px;
        font-weight: bold;
        font-family: arial;
    }

    .terminal-289590482-r1 { fill: #e2e3e3 }
.terminal-289590482-r2 { fill: #dde6ed;font-weight: bold }
.terminal-289590482-r3 { fill: #c5c8c6 }
.terminal-289590482-r4 { fill: #008139 }
.terminal-289590482-r5 { fill: #e1e2e3 }
.terminal-289590482-r6 { fill: #1a1000;font-weight: bold }
.terminal-289590482-r7 { fill: #e1e1e1 }
.terminal-289590482-r8 { fill: #211505 }
.terminal-289590482-r9 { fill: #56c278 }
.terminal-289590482-r10 { fill: #40ae66;font-weight: bold }
.terminal-289590482-r11 { fill: #e3e4e4 }
.terminal-289590482-r12 { fill: #1e1e1e }
.terminal-289590482-r13 { fill: #fea62b;font-weight: bold }
.terminal-289590482-r14 { fill: #a7a9ab }
.terminal-289590482-r15 { fill: #4c5055 }
    </style>

    <defs>
    <clipPath id="terminal-289590482-clip-terminal">
      <rect x="0" y="0" width="1194.6" height="633.4" />
    </clipPath>
    <clipPath id="terminal-289590482-line-0">
    <rect x="0" y="1.5" width="1195.6" height="24.65"/>
            </clipPath>
<clipPath id="terminal-289590482-line-1">
    <rect x="0" y="25.9" width="1195.6" height="24.65"/>
            </clipPath>
<clipPath id="terminal-289590482-line-2">
    <rect x="0" y="50.3" width="1195.6" height="24.65"/>
            </clipPath>
<clipPath id="terminal-289590482-line-3">
    <rect x="0" y="74.7" width="1195.6" height="24.65"/>
            </clipPath>
<clipPath id="terminal-289590482-line-4">
    <rect x="0" y="99.1" width="1195.6" height="24.65"/>
            </clipPath>
<clipPath id="terminal-289590482-line-5">
    <rect x="0" y="123.5" width="1195.6" height="24.65"/>
            </clipPath>
<clipPath id="terminal-289590482-line-6">
    <rect x="0" y="147.9" width="1195.6" height="24.65"/>
            </clipPath>
<clipPath id="terminal-289590482-line-7">
    <rect x="0" y="172.3" width="1195.6" height="24.65"/>
            </clipPath>
<clipPath id="terminal-289590482-line-8">
    <rect x="0" y="196.7" width="1195.6" height="24.65"/>
            </clipPath>
<clipPath id="terminal-289590482-line-9">
    <rect x="0" y="221.1" width="1195.6" height="24.65"/>
            </clipPath>
<clipPath id="terminal-289590482-line-10">
    <rect x="0" y="245.5" width="1195.6" height="24.65"/>
            </clipPath>
<clipPath id="terminal-289590482-line-11">
    <rect x="0" y="269.9" width="1195.6" height="24.65"/>
            </clipPath>
<clipPath id="terminal-289590482-line-12">
    <rect x="0" y="294.3" width="1195.6" height="24.65"/>
            </clipPath>
<clipPath id="terminal-289590482-line-13">
    <rect x="0" y="318.7" width="1195.6" height="24.65"/>
            </clipPath>
<clipPath id="terminal-289590482-line-14">
    <rect x="0" y="343.1" width="1195.6" height="24.65"/>
            </clipPath>
<clipPath id="terminal-289590482-line-15">
    <rect x="0" y="367.5" width="1195.6" height="24.65"/>
            </clipPath>
<clipPath id="terminal-289590482-line-16">
    <rect x="0" y="391.9" width="1195.6" height="24.65"/>
            </clipPath>
<clipPath id="terminal-289590482-line-17">
    <rect x="0" y="416.3" width="1195.6" height="24.65"/>
            </clipPath>
<clipPath id="terminal-289590482-line-18">
    <rect x="0" y="440.7" width="1195.6" height="24.65"/>
            </clipPath>
<clipPath id="terminal-289590482-line-19">
    <rect x="0" y="465.1" width="1195.6" height="24.65"/>
            </clipPath>
<clipPath id="terminal-289590482-line-20">
    <rect x="0" y="489.5" width="1195.6" height="24.65"/>
            </clipPath>
<clipPath id="terminal-289590482-line-21">
    <rect x="0" y="513.9" width="1195.6" height="24.65"/>
            </clipPath>
<clipPath id="terminal-289590482-line-22">
    <rect x="0" y="538.3" width="1195.6" height="24.65"/>
            </clipPath>
<clipPath id="terminal-289590482-line-23">
    <rect x="0" y="562.7" width="1195.6" height="24.65"/>
            </clipPath>
<clipPath id="terminal-289590482-line-24">
    <rect x="0" y="587.1" width="1195.6" height="24.65"/>
            </clipPath>
    </defs>

    <rect fill="#292929" stroke="rgba(255,255,255,0.35)" stroke-width="1" x="1" y="1" width="1212" height="682.4" rx="8"/><text class="terminal-289590482-title" fill="#c5c8c6" text-anchor="middle" x="606" y="27">EpisodeNames</text>
            <g transform="translate(26,22)">
            <circle cx="0" cy="0" r="7" fill="#ff5f57"/>
            <circle cx="22" cy="0" r="7" fill="#febc2e"/>
            <circle cx="44" cy="0" r="7" fill="#28c840"/>
            </g>
        
    <g transform="translate(9, 41)" clip-path="url(#terminal-289590482-clip-terminal)">
    <rect fill="#24292f" x="0" y="1.5" width="24.4" height="24.65" shape-rendering="crispEdges"/><rect fill="#24292f" x="24.4" y="1.5" width="85.4" height="24.65" shape-rendering="crispEdges"/><rect fill="#24292f" x="109.8" y="1.5" width="280.6" height="24.65" shape-rendering="crispEdges"/><rect fill="#004578" x="390.4" y="1.5" width="73.2" height="24.65" shape-rendering="crispEdges"/><rect fill="#004578" x="463.6" y="1.5" width="48.8" height="24.65" shape-rendering="crispEdges"/><rect fill="#004578" x="512.4" y="1.5" width="134.2" height="24.65" shape-rendering="crispEdges"/><rect fill="#004578" x="646.6" y="1.5" width="158.6" height="24.65" shape-rendering="crispEdges"/><rect fill="#004578" x="805.2" y="1.5" width="390.4" height="24.65" shape-rendering="crispEdges"/><rect fill="#24292f" x="0" y="25.9" width="48.8" height="24.65" shape-rendering="crispEdges"/><rect fill="#24292f" x="48.8" y="25.9" width="244" height="24.65" shape-rendering="crispEdges"/><rect fill="#24292f" x="292.8" y="25.9" width="97.6" height="24.65" shape-rendering="crispEdges"/><rect fill="#19232b" x="390.4" y="25.9" width="73.2" height="24.65" shape-rendering="crispEdges"/><rect fill="#19232b" x="463.6" y="25.9" width="48.8" height="24.65" shape-rendering="crispEdges"/><rect fill="#19232b" x="512.4" y="25.9" width="134.2" height="24.65" shape-rendering="crispEdges"/><rect fill="#19232b" x="646.6" y="25.9" width="158.6" height="24.65" shape-rendering="crispEdges"/><rect fill="#19232b" x="805.2" y="25.9" width="390.4" height="24.65" shape-rendering="crispEdges"/><rect fill="#24292f" x="0" y="50.3" width="48.8" height="24.65" shape-rendering="crispEdges"/><rect fill="#cf7e00" x="48.8" y="50.3" width="170.8" height="24.65" shape-rendering="crispEdges"/><rect fill="#24292f" x="219.6" y="50.3" width="170.8" height="24.65" shape-rendering="crispEdges"/><rect fill="#1e1e1e" x="390.4" y="50.3" width="73.2" height="24.65" shape-rendering="crispEdges"/><rect fill="#1e1e1e" x="463.6" y="50.3" width="48.8" height="24.65" shape-rendering="crispEdges"/><rect fill="#1e1e1e" x="512.4" y="50.3" width="134.2" height="24.65" shape-rendering="crispEdges"/><rect fill="#1e1e1e" x="646.6" y="50.3" width="158.6" height="24.65" shape-rendering="crispEdges"/><rect fill="#1e1e1e" x="805.2" y="50.3" width="390.4" height="24.65" shape-rendering="crispEdges"/><rect fill="#24292f" x="0" y="74.7" width="48.8" height="24.65" shape-rendering="crispEdges"/><rect fill="#24292f" x="48.8" y="74.7" width="146.4" height="24.65" shape-rendering="crispEdges"/><rect fill="#24292f" x="195.2" y="74.7" width="195.2" height="24.65" shape-rendering="crispEdges"/><rect fill="#19232b" x="390.4" y="74.7" width="73.2" height="24.65" shape-rendering="crispEdges"/><rect fill="#19232b" x="463.6" y="74.7" width="48.8" height="24.65" shape-rendering="crispEdges"/><rect fill="#19232b" x="512.4" y="74.7" width="134.2" height="24.65" shape-rendering="crispEdges"/><rect fill="#19232b" x="646.6" y="74.7" width="158.6" height="24.65" shape-rendering="crispEdges"/><rect fill="#19232b" x="805.2" y="74.7" width="390.4" height="24.65" shape-rendering="crispEdges"/><rect fill="#24292f" x="0" y="99.1" width="24.4" height="24.65" shape-rendering="crispEdges"/><rect fill="#24292f" x="24.4" y="99.1" width="73.2" height="24.65" shape-rendering="crispEdges"/><rect fill="#24292f" x="97.6" y="99.1" width="292.8" height="24.65" shape-rendering="crispEdges"/><rect fill="#1e1e1e" x="390.4" y="99.1" width="73.2" height="24.65" shape-rendering="crispEdges"/><rect fill="#1e1e1e" x="463.6" y="99.1" width="48.8" height="24.65" shape-rendering="crispEdges"/><rect fill="#1e1e1e" x="512.4" y="99.1" width="134.2" height="24.65" shape-rendering="crispEdges"/><rect fill="#1e1e1e" x="646.6" y="99.1" width="158.6" height="24.65" shape-rendering="crispEdges"/><rect fill="#1e1e1e" x="805.2" y="99.1" width="390.4" height="24.65" shape-rendering="crispEdges"/><rect fill="#24292f" x="0" y="123.5" width="24.4" height="24.65" shape-rendering="crispEdges"/><rect fill="#24292f" x="24.4" y="123.5" width="97.6" height="24.65" shape-rendering="crispEdges"/><rect fill="#24292f" x="122" y="123.5" width="268.4" height="24.65" shape-rendering="crispEdges"/><rect fill="#19232b" x="390.4" y="123.5" width="73.2" height="24.65" shape-rendering="crispEdges"/><rect fill="#19232b" x="463.6" y="123.5" width="48.8" height="24.65" shape-rendering="crispEdges"/><rect fill="#19232b" x="512.4" y="123.5" width="134.2" height="24.65" shape-rendering="crispEdges"/><rect fill="#19232b" x="646.6" y="123.5" width="158.6" height="24.65" shape-rendering="crispEdges"/><rect fill="#19232b" x="805.2" y="123.5" width="390.4" height="24.65" shape-rendering="crispEdges"/><rect fill="#24292f" x="0" y="147.9" width="24.4" height="24.65" shape-rendering="crispEdges"/><rect fill="#24292f" x="24.4" y="147.9" width="73.2" height="24.65" shape-rendering="crispEdges"/><rect fill="#24292f" x="97.6" y="147.9" width="292.8" height="24.65" shape-rendering="crispEdges"/><rect fill="#fea62b" x="390.4" y="147.9" width="73.2" height="24.65" shape-rendering="crispEdges"/><rect fill="#fea62b" x="463.6" y="147.9" width="48.8" height="24.65" shape-rendering="crispEdges"/><rect fill="#fea62b" x="512.4" y="147.9" width="134.2" height="24.65" shape-rendering="crispEdges"/><rect fill="#fea62b" x="646.6" y="147.9" width="158.6" height="24.65" shape-rendering="crispEdges"/><rect fill="#fea62b" x="805.2" y="147.9" width="390.4" height="24.65" shape-rendering="crispEdges"/><rect fill="#24292f" x="0" y="172.3" width="390.4" height="24.65" shape-rendering="crispEdges"/><rect fill="#19232b" x="390.4" y="172.3" width="73.2" height="24.65" shape-rendering="crispEdges"/><rect fill="#19232b" x="463.6" y="172.3" width="48.8" height="24.65" shape-rendering="crispEdges"/><rect fill="#19232b" x="512.4" y="172.3" width="134.2" height="24.65" shape-rendering="crispEdges"/><rect fill="#19232b" x="646.6" y="172.3" width="158.6" height="24.65" shape-rendering="crispEdges"/><rect fill="#19232b" x="805.2" y="172.3" width="390.4" height="24.65" shape-rendering="crispEdges"/><rect fill="#24292f" x="0" y="196.7" width="390.4" height="24.65" shape-rendering="crispEdges"/><rect fill="#1e1e1e" x="390.4" y="196.7" width="73.2" height="24.65" shape-rendering="crispEdges"/><rect fill="#1e1e1e" x="463.6" y="196.7" width="48.8" height="24.65" shape-rendering="crispEdges"/><rect fill="#1e1e1e" x="512.4" y="196.7" width="73.2" height="24.65" shape-rendering="crispEdges"/><rect fill="#2e3339" x="585.6" y="196.7" width="12.2" height="24.65" shape-rendering="crispEdges"/><rect fill="#2e3339" x="597.8" y="196.7" width="573.4" height="24.65" shape-rendering="crispEdges"/><rect fill="#1e1e1e" x="1171.2" y="196.7" width="24.4" height="24.65" shape-rendering="crispEdges"/><rect fill="#24292f" x="0" y="221.1" width="390.4" height="24.65" shape-rendering="crispEdges"/><rect fill="#19232b" x="390.4" y="221.1" width="73.2" height="24.65" shape-rendering="crispEdges"/><rect fill="#19232b" x="463.6" y="221.1" width="48.8" height="24.65" shape-rendering="crispEdges"/><rect fill="#19232b" x="512.4" y="221.1" width="73.2" height="24.65" shape-rendering="crispEdges"/><rect fill="#2e3339" x="585.6" y="221.1" width="12.2" height="24.65" shape-rendering="crispEdges"/><rect fill="#2e3339" x="597.8" y="221.1" width="12.2" height="24.65" shape-rendering="crispEdges"/><rect fill="#2e3339" x="610" y="221.1" width="378.2" height="24.65" shape-rendering="crispEdges"/><rect fill="#2e3339" x="988.2" y="221.1" width="170.8" height="24.65" shape-rendering="crispEdges"/><rect fill="#2e3339" x="1159" y="221.1" width="12.2" height="24.65" shape-rendering="crispEdges"/><rect fill="#19232b" x="1171.2" y="221.1" width="24.4" height="24.65" shape-rendering="crispEdges"/><rect fill="#24292f" x="0" y="245.5" width="390.4" height="24.65" shape-rendering="crispEdges"/><rect fill="#1e1e1e" x="390.4" y="245.5" width="73.2" height="24.65" shape-rendering="crispEdges"/><rect fill="#1e1e1e" x="463.6" y="245.5" width="48.8" height="24.65" shape-rendering="crispEdges"/><rect fill="#1e1e1e" x="512.4" y="245.5" width="73.2" height="24.65" shape-rendering="crispEdges"/><rect fill="#2e3339" x="585.6" y="245.5" width="12.2" height="24.65" shape-rendering="crispEdges"/><rect fill="#2e3339" x="597.8" y="245.5" width="12.2" height="24.65" shape-rendering="crispEdges"/><rect fill="#2e3339" x="610" y="245.5" width="488" height="24.65" shape-rendering="crispEdges"/><rect fill="#2e3339" x="1098" y="245.5" width="61" height="24.65" shape-rendering="crispEdges"/><rect fill="#2e3339" x="1159" y="245.5" width="12.2" height="24.65" shape-rendering="crispEdges"/><rect fill="#1e1e1e" x="1171.2" y="245.5" width="24.4" height="24.65" shape-rendering="crispEdges"/><rect fill="#24292f" x="0" y="269.9" width="390.4" height="24.65" shape-rendering="crispEdges"/><rect fill="#19232b" x="390.4" y="269.9" width="73.2" height="24.65" shape-rendering="crispEdges"/><rect fill="#19232b" x="463.6" y="269.9" width="48.8" height="24.65" shape-rendering="crispEdges"/><rect fill="#19232b" x="512.4" y="269.9" width="73.2" height="24.65" shape-rendering="crispEdges"/><rect fill="#2e3339" x="585.6" y="269.9" width="12.2" height="24.65" shape-rendering="crispEdges"/><rect fill="#2e3339" x="597.8" y="269.9" width="12.2" height="24.65" shape-rendering="crispEdges"/><rect fill="#2e3339" x="610" y="269.9" width="549" height="24.65" shape-rendering="crispEdges"/><rect fill="#2e3339" x="1159" y="269.9" width="12.2" height="24.65" shape-rendering="crispEdges"/><rect fill="#19232b" x="1171.2" y="269.9" width="24.4" height="24.65" shape-rendering="crispEdges"/><rect fill="#24292f" x="0" y="294.3" width="390.4" height="24.65" shape-rendering="crispEdges"/><rect fill="#23568b" x="390.4" y="294.3" width="12.2" height="24.65" shape-rendering="crispEdges"/><rect fill="#23568b" x="402.6" y="294.3" width="12.2" height="24.65" shape-rendering="crispEdges"/><rect fill="#23568b" x="414.8" y="294.3" width="12.2" height="24.65" shape-rendering="crispEdges"/><rect fill="#23568b" x="427" y="294.3" width="12.2" height="24.65" shape-rendering="crispEdges"/><rect fill="#23568b" x="439.2" y="294.3" width="12.2" height="24.65" shape-rendering="crispEdges"/><rect fill="#23568b" x="451.4" y="294.3" width="12.2" height="24.65" shape-rendering="crispEdges"/><rect fill="#23568b" x="463.6" y="294.3" width="12.2" height="24.65" shape-rendering="crispEdges"/><rect fill="#23568b" x="475.8" y="294.3" width="12.2" height="24.65" shape-rendering="crispEdges"/><rect fill="#23568b" x="488" y="294.3" width="12.2" height="24.65" shape-rendering="crispEdges"/><rect fill="#23568b" x="500.2" y="294.3" width="12.2" height="24.65" shape-rendering="crispEdges"/><rect fill="#23568b" x="512.4" y="294.3" width="12.2" height="24.65" shape-rendering="crispEdges"/><rect fill="#23568b" x="524.6" y="294.3" width="12.2" height="24.65" shape-rendering="crispEdges"/><rect fill="#23568b" x="536.8" y="294.3" width="12.2" height="24.65" shape-rendering="crispEdges"/><rect fill="#23568b" x="549" y="294.3" width="12.2" height="24.65" shape-rendering="crispEdges"/><rect fill="#23568b" x="561.2" y="294.3" width="12.2" height="24.65" shape-rendering="crispEdges"/><rect fill="#23568b" x="573.4" y="294.3" width="12.2" height="24.65" shape-rendering="crispEdges"/><rect fill="#2e3339" x="585.6" y="294.3" width="12.2" height="24.65" shape-rendering="crispEdges"/><rect fill="#2e3339" x="597.8" y="294.3" width="12.2" height="24.65" shape-rendering="crispEdges"/><rect fill="#2e3339" x="610" y="294.3" width="475.8" height="24.65" shape-rendering="crispEdges"/><rect fill="#2e3339" x="1085.8" y="294.3" width="73.2" height="24.65" shape-rendering="crispEdges"/><rect fill="#2e3339" x="1159" y="294.3" width="12.2" height="24.65" shape-rendering="crispEdges"/><rect fill="#14191f" x="1171.2" y="294.3" width="12.2" height="24.65" shape-rendering="crispEdges"/><rect fill="#14191f" x="1183.4" y="294.3" width="12.2" height="24.65" shape-rendering="crispEdges"/><rect fill="#24292f" x="0" y="318.7" width="390.4" height="24.65" shape-rendering="crispEdges"/><rect fill="#1e1e1e" x="390.4" y="318.7" width="195.2" height="24.65" shape-rendering="crispEdges"/><rect fill="#2e3339" x="585.6" y="318.7" width="12.2" height="24.65" shape-rendering="crispEdges"/><rect fill="#2e3339" x="597.8" y="318.7" width="12.2" height="24.65" shape-rendering="crispEdges"/><rect fill="#2e3339" x="610" y="318.7" width="463.6" height="24.65" shape-rendering="crispEdges"/><rect fill="#2e3339" x="1073.6" y="318.7" width="85.4" height="24.65" shape-rendering="crispEdges"/><rect fill="#2e3339" x="1159" y="318.7" width="12.2" height="24.65" shape-rendering="crispEdges"/><rect fill="#1e1e1e" x="1171.2" y="318.7" width="24.4" height="24.65" shape-rendering="crispEdges"/><rect fill="#24292f" x="0" y="343.1" width="390.4" height="24.65" shape-rendering="crispEdges"/><rect fill="#1e1e1e" x="390.4" y="343.1" width="195.2" height="24.65" shape-rendering="crispEdges"/><rect fill="#2e3339" x="585.6" y="343.1" width="12.2" height="24.65" shape-rendering="crispEdges"/><rect fill="#2e3339" x="597.8" y="343.1" width="12.2" height="24.65" shape-rendering="crispEdges"/><rect fill="#2e3339" x="610" y="343.1" width="549" height="24.65" shape-rendering="crispEdges"/><rect fill="#2e3339" x="1159" y="343.1" width="12.2" height="24.65" shape-rendering="crispEdges"/><rect fill="#1e1e1e" x="1171.2" y="343.1" width="24.4" height="24.65" shape-rendering="crispEdges"/><rect fill="#24292f" x="0" y="367.5" width="390.4" height="24.65" shape-rendering="crispEdges"/><rect fill="#1e1e1e" x="390.4" y="367.5" width="195.2" height="24.65" shape-rendering="crispEdges"/><rect fill="#2e3339" x="585.6" y="367.5" width="12.2" height="24.65" shape-rendering="crispEdges"/><rect fill="#2e3339" x="597.8" y="367.5" width="12.2" height="24.65" shape-rendering="crispEdges"/><rect fill="#2e3339" x="610" y="367.5" width="390.4" height="24.65" shape-rendering="crispEdges"/><rect fill="#2e3339" x="1000.4" y="367.5" width="158.6" height="24.65" shape-rendering="crispEdges"/><rect fill="#2e3339" x="1159" y="367.5" width="12.2" height="24.65" shape-rendering="crispEdges"/><rect fill="#1e1e1e" x="1171.2" y="367.5" width="24.4" height="24.65" shape-rendering="crispEdges"/><rect fill="#24292f" x="0" y="391.9" width="390.4" height="24.65" shape-rendering="crispEdges"/><rect fill="#1e1e1e" x="390.4" y="391.9" width="195.2" height="24.65" shape-rendering="crispEdges"/><rect fill="#2e3339" x="585.6" y="391.9" width="12.2" height="24.65" shape-rendering="crispEdges"/><rect fill="#2e3339" x="597.8" y="391.9" width="12.2" height="24.65" shape-rendering="crispEdges"/><rect fill="#2e3339" x="610" y="391.9" width="500.2" height="24.65" shape-rendering="crispEdges"/><rect fill="#2e3339" x="1110.2" y="391.9" width="48.8" height="24.65" shape-rendering="crispEdges"/><rect fill="#2e3339" x="1159" y="391.9" width="12.2" height="24.65" shape-rendering="crispEdges"/><rect fill="#1e1e1e" x="1171.2" y="391.9" width="24.4" height="24.65" shape-rendering="crispEdges"/><rect fill="#24292f" x="0" y="416.3" width="390.4" height="24.65" shape-rendering="crispEdges"/><rect fill="#1e1e1e" x="390.4" y="416.3" width="195.2" height="24.65" shape-rendering="crispEdges"/><rect fill="#2e3339" x="585.6" y="416.3" width="12.2" height="24.65" shape-rendering="crispEdges"/><rect fill="#2e3339" x="597.8" y="416.3" width="12.2" height="24.65" shape-rendering="crispEdges"/><rect fill="#2e3339" x="610" y="416.3" width="122" height="24.65" shape-rendering="crispEdges"/><rect fill="#2e3339" x="732" y="416.3" width="427" height="24.65" shape-rendering="crispEdges"/><rect fill="#2e3339" x="1159" y="416.3" width="12.2" height="24.65" shape-rendering="crispEdges"/><rect fill="#1e1e1e" x="1171.2" y="416.3" width="24.4" height="24.65" shape-rendering="crispEdges"/><rect fill="#24292f" x="0" y="440.7" width="390.4" height="24.65" shape-rendering="crispEdges"/><rect fill="#1e1e1e" x="390.4" y="440.7" width="195.2" height="24.65" shape-rendering="crispEdges"/><rect fill="#2e3339" x="585.6" y="440.7" width="12.2" height="24.65" shape-rendering="crispEdges"/><rect fill="#2e3339" x="597.8" y="440.7" width="12.2" height="24.65" shape-rendering="crispEdges"/><rect fill="#2e3339" x="610" y="440.7" width="549" height="24.65" shape-rendering="crispEdges"/><rect fill="#2e3339" x="1159" y="440.7" width="12.2" height="24.65" shape-rendering="crispEdges"/><rect fill="#1e1e1e" x="1171.2" y="440.7" width="24.4" height="24.65" shape-rendering="crispEdges"/><rect fill="#24292f" x="0" y="465.1" width="390.4" height="24.65" shape-rendering="crispEdges"/><rect fill="#1e1e1e" x="390.4" y="465.1" width="195.2" height="24.65" shape-rendering="crispEdges"/><rect fill="#2e3339" x="585.6" y="465.1" width="12.2" height="24.65" shape-rendering="crispEdges"/><rect fill="#2e3339" x="597.8" y="465.1" width="12.2" height="24.65" shape-rendering="crispEdges"/><rect fill="#2e3339" x="610" y="465.1" width="329.4" height="24.65" shape-rendering="crispEdges"/><rect fill="#2e3339" x="939.4" y="465.1" width="219.6" height="24.65" shape-rendering="crispEdges"/><rect fill="#2e3339" x="1159" y="465.1" width="12.2" height="24.65" shape-rendering="crispEdges"/><rect fill="#1e1e1e" x="1171.2" y="465.1" width="24.4" height="24.65" shape-rendering="crispEdges"/><rect fill="#24292f" x="0" y="489.5" width="390.4" height="24.65" shape-rendering="crispEdges"/><rect fill="#1e1e1e" x="390.4" y="489.5" width="195.2" height="24.65" shape-rendering="crispEdges"/><rect fill="#2e3339" x="585.6" y="489.5" width="12.2" height="24.65" shape-rendering="crispEdges"/><rect fill="#2e3339" x="597.8" y="489.5" width="12.2" height="24.65" shape-rendering="crispEdges"/><rect fill="#2e3339" x="610" y="489.5" width="244" height="24.65" shape-rendering="crispEdges"/><rect fill="#2e3339" x="854" y="489.5" width="305" height="24.65" shape-rendering="crispEdges"/><rect fill="#2e3339" x="1159" y="489.5" width="12.2" height="24.65" shape-rendering="crispEdges"/><rect fill="#1e1e1e" x="1171.2" y="489.5" width="24.4" height="24.65" shape-rendering="crispEdges"/><rect fill="#24292f" x="0" y="513.9" width="390.4" height="24.65" shape-rendering="crispEdges"/><rect fill="#1e1e1e" x="390.4" y="513.9" width="195.2" height="24.65" shape-rendering="crispEdges"/><rect fill="#2e3339" x="585.6" y="513.9" width="12.2" height="24.65" shape-rendering="crispEdges"/><rect fill="#2e3339" x="597.8" y="513.9" width="12.2" height="24.65" shape-rendering="crispEdges"/><rect fill="#2e3339" x="610" y="513.9" width="549" height="24.65" shape-rendering="crispEdges"/><rect fill="#2e3339" x="1159" y="513.9" width="12.2" height="24.65" shape-rendering="crispEdges"/><rect fill="#1e1e1e" x="1171.2" y="513.9" width="24.4" height="24.65" shape-rendering="crispEdges"/><rect fill="#24292f" x="0" y="538.3" width="390.4" height="24.65" shape-rendering="crispEdges"/><rect fill="#1e1e1e" x="390.4" y="538.3" width="195.2" height="24.65" shape-rendering="crispEdges"/><rect fill="#2e3339" x="585.6" y="538.3" width="12.2" height="24.65" shape-rendering="crispEdges"/><rect fill="#2e3339" x="597.8" y="538.3" width="12.2" height="24.65" shape-rendering="crispEdges"/><rect fill="#2e3339" x="610" y="538.3" width="329.4" height="24.65" shape-rendering="crispEdges"/><rect fill="#2e3339" x="939.4" y="538.3" width="219.6" height="24.65" shape-rendering="crispEdges"/><rect fill="#2e3339" x="1159" y="538.3" width="12.2" height="24.65" shape-rendering="crispEdges"/><rect fill="#1e1e1e" x="1171.2" y="538.3" width="24.4" height="24.65" shape-rendering="crispEdges"/><rect fill="#24292f" x="0" y="562.7" width="390.4" height="24.65" shape-rendering="crispEdges"/><rect fill="#1e1e1e" x="390.4" y="562.7" width="195.2" height="24.65" shape-rendering="crispEdges"/><rect fill="#2e3339" x="585.6" y="562.7" width="12.2" height="24.65" shape-rendering="crispEdges"/><rect fill="#2e3339" x="597.8" y="562.7" width="12.2" height="24.65" shape-rendering="crispEdges"/><rect fill="#2e3339" x="610" y="562.7" width="451.4" height="24.65" shape-rendering="crispEdges"/><rect fill="#2e3339" x="1061.4" y="562.7" width="97.6" height="24.65" shape-rendering="crispEdges"/><rect fill="#2e3339" x="1159" y="562.7" width="12.2" height="24.65" shape-rendering="crispEdges"/><rect fill="#1e1e1e" x="1171.2" y="562.7" width="24.4" height="24.65" shape-rendering="crispEdges"/><rect fill="#24292f" x="0" y="587.1" width="390.4" height="24.65" shape-rendering="crispEdges"/><rect fill="#1e1e1e" x="390.4" y="587.1" width="195.2" height="24.65" shape-rendering="crispEdges"/><rect fill="#2e3339" x="585.6" y="587.1" width="12.2" height="24.65" shape-rendering="crispEdges"/><rect fill="#2e3339" x="597.8" y="587.1" width="573.4" height="24.65" shape-rendering="crispEdges"/><rect fill="#1e1e1e" x="1171.2" y="587.1" width="24.4" height="24.65" shape-rendering="crispEdges"/><rect fill="#24292f" x="0" y="611.5" width="48.8" height="24.65" shape-rendering="crispEdges"/><rect fill="#24292f" x="48.8" y="611.5" width="122" height="24.65" shape-rendering="crispEdges"/><rect fill="#24292f" x="170.8" y="611.5" width="48.8" height="24.65" shape-rendering="crispEdges"/><rect fill="#24292f" x="219.6" y="611.5" width="134.2" height="24.65" shape-rendering="crispEdges"/><rect fill="#24292f" x="353.8" y="611.5" width="48.8" height="24.65" shape-rendering="crispEdges"/><rect fill="#24292f" x="402.6" y="611.5" width="122" height="24.65" shape-rendering="crispEdges"/><rect fill="#24292f" x="524.6" y="611.5" width="48.8" height="24.65" shape-rendering="crispEdges"/><rect fill="#24292f" x="573.4" y="611.5" width="61" height="24.65" shape-rendering="crispEdges"/><rect fill="#24292f" x="634.4" y="611.5" width="48.8" height="24.65" shape-rendering="crispEdges"/><rect fill="#24292f" x="683.2" y="611.5" width="73.2" height="24.65" shape-rendering="crispEdges"/><rect fill="#24292f" x="756.4" y="611.5" width="48.8" height="24.65" shape-rendering="crispEdges"/><rect fill="#24292f" x="805.2" y="611.5" width="122" height="24.65" shape-rendering="crispEdges"/><rect fill="#24292f" x="927.2" y="611.5" width="48.8" height="24.65" shape-rendering="crispEdges"/><rect fill="#24292f" x="976" y="611.5" width="73.2" height="24.65" shape-rendering="crispEdges"/><rect fill="#24292f" x="1049.2" y="611.5" width="12.2" height="24.65" shape-rendering="crispEdges"/><rect fill="#24292f" x="1061.4" y="611.5" width="24.4" height="24.65" shape-rendering="crispEdges"/><rect fill="#24292f" x="1085.8" y="611.5" width="36.6" height="24.65" shape-rendering="crispEdges"/><rect fill="#24292f" x="1122.4" y="611.5" width="61" height="24.65" shape-rendering="crispEdges"/><rect fill="#24292f" x="1183.4" y="611.5" width="12.2" height="24.65" shape-rendering="crispEdges"/>
    <g class="terminal-289590482-matrix">
    <text class="terminal-289590482-r1" x="0" y="20" textLength="24.4" clip-path="url(#terminal-289590482-line-0)">▼&#160;</text><text class="terminal-289590482-r1" x="24.4" y="20" textLength="85.4" clip-path="url(#terminal-289590482-line-0)">Current</text><text class="terminal-289590482-r2" x="390.4" y="20" textLength="73.2" clip-path="url(#terminal-289590482-line-0)">&#160;#&#160;&#160;&#160;&#160;</text><text class="terminal-289590482-r2" x="463.6" y="20" textLength="48.8" clip-path="url(#terminal-289590482-line-0)">&#160;##&#160;</text><text class="terminal-289590482-r2" x="512.4" y="20" textLength="134.2" clip-path="url(#terminal-289590482-line-0)">&#160;Session&#160;&#160;&#160;</text><text class="terminal-289590482-r2" x="646.6" y="20" textLength="158.6" clip-path="url(#terminal-289590482-line-0)">&#160;Record&#160;Date&#160;</text><text class="terminal-289590482-r2" x="805.2" y="20" textLength="390.4" clip-path="url(#terminal-289590482-line-0)">&#160;Title&#160;&#160;&#160;&#160;&#160;&#160;&#160;&#160;&#160;&#160;&#160;&#160;&#160;&#160;&#160;&#160;&#160;&#160;&#160;&#160;&#160;&#160;&#160;&#160;&#160;&#160;</text><text class="terminal-289590482-r3" x="1195.6" y="20" textLength="12.2" clip-path="url(#terminal-289590482-line-0)">
</text><text class="terminal-289590482-r1" x="48.8" y="44.4" textLength="244" clip-path="url(#terminal-289590482-line-1)">Elder&#160;Scrolls&#160;Online</text><text class="terminal-289590482-r5" x="390.4" y="44.4" textLength="73.2" clip-path="url(#terminal-289590482-line-1)">&#160;1924&#160;</text><text class="terminal-289590482-r5" x="463.6" y="44.4" textLength="48.8" clip-path="url(#terminal-289590482-line-1)">&#160;1&#160;&#160;</text><text class="terminal-289590482-r5" x="512.4" y="44.4" textLength="134.2" clip-path="url(#terminal-289590482-line-1)">&#160;Sitzung&#160;1&#160;</text><text class="terminal-289590482-r5" x="646.6" y="44.4" textLength="158.6" clip-path="url(#terminal-289590482-line-1)">&#160;09.09.2024&#160;&#160;</text><text class="terminal-289590482-r5" x="805.2" y="44.4" textLength="390.4" clip-path="url(#terminal-289590482-line-1)">&#160;Gefangene&#160;des&#160;Schicksals&#160;&#160;&#160;&#160;&#160;&#160;&#160;</text><text class="terminal-289590482-r3" x="1195.6" y="44.4" textLength="12.2" clip-path="url(#terminal-289590482-line-1)">
</text><text class="terminal-289590482-r6" x="48.8" y="68.8" textLength="170.8" clip-path="url(#terminal-289590482-line-2)">Elden&#160;Ring&#160;DLC</text><text class="terminal-289590482-r7" x="390.4" y="68.8" textLength="73.2" clip-path="url(#terminal-289590482-line-2)">&#160;1925&#160;</text><text class="terminal-289590482-r7" x="463.6" y="68.8" textLength="48.8" clip-path="url(#terminal-289590482-line-2)">&#160;2&#160;&#160;</text><text class="terminal-289590482-r7" x="512.4" y="68.8" textLength="134.2" clip-path="url(#terminal-289590482-line-2)">&#160;Sitzung&#160;1&#160;</text><text class="terminal-289590482-r7" x="646.6" y="68.8" textLength="158.6" clip-path="url(#terminal-289590482-line-2)">&#160;09.09.2024&#160;&#160;</text><text class="terminal-289590482-r7" x="805.2" y="68.8" textLength="390.4" clip-path="url(#terminal-289590482-line-2)">&#160;Mephalas&#160;Strang&#160;der&#160;Geheimnisse</text><text class="terminal-289590482-r3" x="1195.6" y="68.8" textLength="12.2" clip-path="url(#terminal-289590482-line-2)">
</text><text class="terminal-289590482-r1" x="48.8" y="93.2" textLength="146.4" clip-path="url(#terminal-289590482-line-3)">Spellforce&#160;3</text><text class="terminal-289590482-r5" x="390.4" y="93.2" textLength="73.2" clip-path="url(#terminal-289590482-line-3)">&#160;1926&#160;</text><text class="terminal-289590482-r5" x="463.6" y="93.2" textLength="48.8" clip-path="url(#terminal-289590482-line-3)">&#160;3&#160;&#160;</text><text class="terminal-289590482-r5" x="512.4" y="93.2" textLength="134.2" clip-path="url(#terminal-289590482-line-3)">&#160;Sitzung&#160;1&#160;</text><text class="terminal-289590482-r5" x="646.6" y="93.2" textLength="158.6" clip-path="url(#terminal-289590482-line-3)">&#160;09.09.2024&#160;&#160;</text><text class="terminal-289590482-r5" x="805.2" y="93.2" textLength="390.4" clip-path="url(#terminal-289590482-line-3)">&#160;Azuras&#160;Laterne&#160;&#160;&#160;&#160;&#160;&#160;&#160;&#160;&#160;&#160;&#160;&#160;&#160;&#160;&#160;&#160;&#160;</text><text class="terminal-289590482-r3" x="1195.6" y="93.2" textLength="12.2" clip-path="url(#terminal-289590482-line-3)">
</text><text class="terminal-289590482-r1" x="0" y="117.6" textLength="24.4" clip-path="url(#terminal-289590482-line-4)">▶&#160;</text><text class="terminal-289590482-r1" x="24.4" y="117.6" textLength="73.2" clip-path="url(#terminal-289590482-line-4)">legacy</text><text class="terminal-289590482-r7" x="390.4" y="117.6" textLength="73.2" clip-path="url(#terminal-289590482-line-4)">&#160;1927&#160;</text><text class="terminal-289590482-r7" x="463.6" y="117.6" textLength="48.8" clip-path="url(#terminal-289590482-line-4)">&#160;4&#160;&#160;</text><text class="terminal-289590482-r7" x="512.4" y="117.6" textLength="134.2" clip-path="url(#terminal-289590482-line-4)">&#160;Sitzung&#160;1&#160;</text><text class="terminal-289590482-r7" x="646.6" y="117.6" textLength="158.6" clip-path="url(#terminal-289590482-line-4)">&#160;09.09.2024&#160;&#160;</text><text class="terminal-289590482-r7" x="805.2" y="117.6" textLength="390.4" clip-path="url(#terminal-289590482-line-4)">&#160;Boethias&#160;Klinge&#160;&#160;&#160;&#160;&#160;&#160;&#160;&#160;&#160;&#160;&#160;&#160;&#160;&#160;&#160;&#160;</text><text class="terminal-289590482-r3" x="1195.6" y="117.6" textLength="12.2" clip-path="url(#terminal-289590482-line-4)">
</text><text class="terminal-289590482-r1" x="0" y="142" textLength="24.4" clip-path="url(#terminal-289590482-line-5)">▶&#160;</text><text class="terminal-289590482-r1" x="24.4" y="142" textLength="97.6" clip-path="url(#terminal-289590482-line-5)">disgrace</text><text class="terminal-289590482-r5" x="390.4" y="142" textLength="73.2" clip-path="url(#terminal-289590482-line-5)">&#160;1928&#160;</text><text class="terminal-289590482-r5" x="463.6" y="142" textLength="48.8" clip-path="url(#terminal-289590482-line-5)">&#160;5&#160;&#160;</text><text class="terminal-289590482-r5" x="512.4" y="142" textLength="134.2" clip-path="url(#terminal-289590482-line-5)">&#160;Sitzung&#160;1&#160;</text><text class="terminal-289590482-r5" x="646.6" y="142" textLength="158.6" clip-path="url(#terminal-289590482-line-5)">&#160;09.09.2024&#160;&#160;</text><text class="terminal-289590482-r5" x="805.2" y="142" textLength="390.4" clip-path="url(#terminal-289590482-line-5)">&#160;Holomagan-Kloster&#160;&#160;&#160;&#160;&#160;&#160;&#160;&#160;&#160;&#160;&#160;&#160;&#160;&#160;</text><text class="terminal-289590482-r3" x="1195.6" y="142" textLength="12.2" clip-path="url(#terminal-289590482-line-5)">
</text><text class="terminal-289590482-r1" x="0" y="166.4" textLength="24.4" clip-path="url(#terminal-289590482-line-6)">▶&#160;</text><text class="terminal-289590482-r1" x="24.4" y="166.4" textLength="73.2" clip-path="url(#terminal-289590482-line-6)">coming</text><text class="terminal-289590482-r8" x="390.4" y="166.4" textLength="73.2" clip-path="url(#terminal-289590482-line-6)">&#160;1929&#160;</text><text class="terminal-289590482-r8" x="463.6" y="166.4" textLength="48.8" clip-path="url(#terminal-289590482-line-6)">&#160;6&#160;&#160;</text><text class="terminal-289590482-r8" x="512.4" y="166.4" textLength="134.2" clip-path="url(#terminal-289590482-line-6)">&#160;Sitzung&#160;1&#160;</text><text class="terminal-289590482-r8" x="646.6" y="166.4" textLength="158.6" clip-path="url(#terminal-289590482-line-6)">&#160;09.09.2024&#160;&#160;</text><text class="terminal-289590482-r8" x="805.2" y="166.4" textLength="390.4" clip-path="url(#terminal-289590482-line-6)">&#160;Schrein&#160;der&#160;unweigerlichen&#160;Gehe</text><text class="terminal-289590482-r3" x="1195.6" y="166.4" textLength="12.2" clip-path="url(#terminal-289590482-line-6)">
</text><text class="terminal-289590482-r5" x="390.4" y="190.8" textLength="73.2" clip-path="url(#terminal-289590482-line-7)">&#160;1930&#160;</text><text class="terminal-289590482-r5" x="463.6" y="190.8" textLength="48.8" clip-path="url(#terminal-289590482-line-7)">&#160;7&#160;&#160;</text><text class="terminal-289590482-r5" x="512.4" y="190.8" textLength="134.2" clip-path="url(#terminal-289590482-line-7)">&#160;Sitzung&#160;1&#160;</text><text class="terminal-289590482-r5" x="646.6" y="190.8" textLength="158.6" clip-path="url(#terminal-289590482-line-7)">&#160;09.09.2024&#160;&#160;</text><text class="terminal-289590482-r5" x="805.2" y="190.8" textLength="390.4" clip-path="url(#terminal-289590482-line-7)">&#160;Ereignisse&#160;auf&#160;Schienen&#160;&#160;&#160;&#160;&#160;&#160;&#160;&#160;</text><text class="terminal-289590482-r3" x="1195.6" y="190.8" textLength="12.2" clip-path="url(#terminal-289590482-line-7)">
</text><text class="terminal-289590482-r7" x="390.4" y="215.2" textLength="73.2" clip-path="url(#terminal-289590482-line-8)">&#160;1931&#160;</text><text class="terminal-289590482-r7" x="463.6" y="215.2" textLength="48.8" clip-path="url(#terminal-289590482-line-8)">&#160;8&#160;&#160;</text><text class="terminal-289590482-r7" x="512.4" y="215.2" textLength="73.2" clip-path="url(#terminal-289590482-line-8)">&#160;Sitzu</text><text class="terminal-289590482-r9" x="585.6" y="215.2" textLength="12.2" clip-path="url(#terminal-289590482-line-8)">▌</text><text class="terminal-289590482-r3" x="1195.6" y="215.2" textLength="12.2" clip-path="url(#terminal-289590482-line-8)">
</text><text class="terminal-289590482-r5" x="390.4" y="239.6" textLength="73.2" clip-path="url(#terminal-289590482-line-9)">&#160;1960&#160;</text><text class="terminal-289590482-r5" x="463.6" y="239.6" textLength="48.8" clip-path="url(#terminal-289590482-line-9)">&#160;37&#160;</text><text class="terminal-289590482-r5" x="512.4" y="239.6" textLength="73.2" clip-path="url(#terminal-289590482-line-9)">&#160;Sitzu</text><text class="terminal-289590482-r9" x="585.6" y="239.6" textLength="12.2" clip-path="url(#terminal-289590482-line-9)">▌</text><text class="terminal-289590482-r10" x="610" y="239.6" textLength="378.2" clip-path="url(#terminal-289590482-line-9)">Description&#160;copied&#160;to&#160;clipboard</text><text class="terminal-289590482-r3" x="1195.6" y="239.6" textLength="12.2" clip-path="url(#terminal-289590482-line-9)">
</text><text class="terminal-289590482-r7" x="390.4" y="264" textLength="73.2" clip-path="url(#terminal-289590482-line-10)">&#160;1961&#160;</text><text class="terminal-289590482-r7" x="463.6" y="264" textLength="48.8" clip-path="url(#terminal-289590482-line-10)">&#160;38&#160;</text><text class="terminal-289590482-r7" x="512.4" y="264" textLength="73.2" clip-path="url(#terminal-289590482-line-10)">&#160;Sitzu</text><text class="terminal-289590482-r9" x="585.6" y="264" textLength="12.2" clip-path="url(#terminal-289590482-line-10)">▌</text><text class="terminal-289590482-r11" x="610" y="264" textLength="488" clip-path="url(#terminal-289590482-line-10)">Episode&#160;6&#160;des&#160;Gold&#160;Road&#160;DLCs&#160;-&#160;Sitzung&#160;1</text><text class="terminal-289590482-r7" x="1171.2" y="264" textLength="24.4" clip-path="url(#terminal-289590482-line-10)">ge</text><text class="terminal-289590482-r3" x="1195.6" y="264" textLength="12.2" clip-path="url(#terminal-289590482-line-10)">
</text><text class="terminal-289590482-r5" x="390.4" y="288.4" textLength="73.2" clip-path="url(#terminal-289590482-line-11)">&#160;1962&#160;</text><text class="terminal-289590482-r5" x="463.6" y="288.4" textLength="48.8" clip-path="url(#terminal-289590482-line-11)">&#160;39&#160;</text><text class="terminal-289590482-r5" x="512.4" y="288.4" textLength="73.2" clip-path="url(#terminal-289590482-line-11)">&#160;Sitzu</text><text class="terminal-289590482-r9" x="585.6" y="288.4" textLength="12.2" clip-path="url(#terminal-289590482-line-11)">▌</text><text class="terminal-289590482-r3" x="1195.6" y="288.4" textLength="12.2" clip-path="url(#terminal-289590482-line-11)">
</text><text class="terminal-289590482-r9" x="585.6" y="312.8" textLength="12.2" clip-path="url(#terminal-289590482-line-12)">▌</text><text class="terminal-289590482-r11" x="610" y="312.8" textLength="475.8" clip-path="url(#terminal-289590482-line-12)">Let&#x27;s&#160;Play&#160;ESO&#160;#1929&#160;##6&#160;-&#160;Schrein&#160;der&#160;</text><text class="terminal-289590482-r3" x="1195.6" y="312.8" textLength="12.2" clip-path="url(#terminal-289590482-line-12)">
</text><text class="terminal-289590482-r9" x="585.6" y="337.2" textLength="12.2" clip-path="url(#terminal-289590482-line-13)">▌</text><text class="terminal-289590482-r11" x="610" y="337.2" textLength="463.6" clip-path="url(#terminal-289590482-line-13)">unweigerlichen&#160;Geheimnisse&#160;[Gold&#160;Road]</text><text class="terminal-289590482-r3" x="1195.6" y="337.2" textLength="12.2" clip-path="url(#terminal-289590482-line-13)">
</text><text class="terminal-289590482-r9" x="585.6" y="361.6" textLength="12.2" clip-path="url(#terminal-289590482-line-14)">▌</text><text class="terminal-289590482-r3" x="1195.6" y="361.6" textLength="12.2" clip-path="url(#terminal-289590482-line-14)">
</text><text class="terminal-289590482-r9" x="585.6" y="386" textLength="12.2" clip-path="url(#terminal-289590482-line-15)">▌</text><text class="terminal-289590482-r11" x="610" y="386" textLength="390.4" clip-path="url(#terminal-289590482-line-15)">Mo-Do,&#160;So&#160;auch&#160;Live&#160;auf&#160;Twitch:&#160;</text><text class="terminal-289590482-r3" x="1195.6" y="386" textLength="12.2" clip-path="url(#terminal-289590482-line-15)">
</text><text class="terminal-289590482-r9" x="585.6" y="410.4" textLength="12.2" clip-path="url(#terminal-289590482-line-16)">▌</text><text class="terminal-289590482-r11" x="610" y="410.4" textLength="500.2" clip-path="url(#terminal-289590482-line-16)">https://www.twitch.tv/burnoutdv&#160;17-20&#160;Uhr</text><text class="terminal-289590482-r3" x="1195.6" y="410.4" textLength="12.2" clip-path="url(#terminal-289590482-line-16)">
</text><text class="terminal-289590482-r9" x="585.6" y="434.8" textLength="12.2" clip-path="url(#terminal-289590482-line-17)">▌</text><text class="terminal-289590482-r11" x="610" y="434.8" textLength="122" clip-path="url(#terminal-289590482-line-17)">Playlist:&#160;</text><text class="terminal-289590482-r3" x="1195.6" y="434.8" textLength="12.2" clip-path="url(#terminal-289590482-line-17)">
</text><text class="terminal-289590482-r9" x="585.6" y="459.2" textLength="12.2" clip-path="url(#terminal-289590482-line-18)">▌</text><text class="terminal-289590482-r11" x="610" y="459.2" textLength="549" clip-path="url(#terminal-289590482-line-18)">https://www.youtube.com/playlist?list=PLAFz5Z</text><text class="terminal-289590482-r3" x="1195.6" y="459.2" textLength="12.2" clip-path="url(#terminal-289590482-line-18)">
</text><text class="terminal-289590482-r9" x="585.6" y="483.6" textLength="12.2" clip-path="url(#terminal-289590482-line-19)">▌</text><text class="terminal-289590482-r11" x="610" y="483.6" textLength="329.4" clip-path="url(#terminal-289590482-line-19)">ZJ21wO_nLvLprFRAyxN3YilrARe</text><text class="terminal-289590482-r3" x="1195.6" y="483.6" textLength="12.2" clip-path="url(#terminal-289590482-line-19)">
</text><text class="terminal-289590482-r9" x="585.6" y="508" textLength="12.2" clip-path="url(#terminal-289590482-line-20)">▌</text><text class="terminal-289590482-r11" x="610" y="508" textLength="244" clip-path="url(#terminal-289590482-line-20)">Gold&#160;Road&#160;Playlist:&#160;</text><text class="terminal-289590482-r3" x="1195.6" y="508" textLength="12.2" clip-path="url(#terminal-289590482-line-20)">
</text><text class="terminal-289590482-r9" x="585.6" y="532.4" textLength="12.2" clip-path="url(#terminal-289590482-line-21)">▌</text><text class="terminal-289590482-r11" x="610" y="532.4" textLength="549" clip-path="url(#terminal-289590482-line-21)">https://www.youtube.com/playlist?list=PLAFz5Z</text><text class="terminal-289590482-r3" x="1195.6" y="532.4" textLength="12.2" clip-path="url(#terminal-289590482-line-21)">
</text><text class="terminal-289590482-r9" x="585.6" y="556.8" textLength="12.2" clip-path="url(#terminal-289590482-line-22)">▌</text><text class="terminal-289590482-r11" x="610" y="556.8" textLength="329.4" clip-path="url(#terminal-289590482-line-22)">ZJ21wN4zSdcr2GqPesmrdQ--7gj</text><text class="terminal-289590482-r3" x="1195.6" y="556.8" textLength="12.2" clip-path="url(#terminal-289590482-line-22)">
</text><text class="terminal-289590482-r9" x="585.6" y="581.2" textLength="12.2" clip-path="url(#terminal-289590482-line-23)">▌</text><text class="terminal-289590482-r11" x="610" y="581.2" textLength="451.4" clip-path="url(#terminal-289590482-line-23)">Aufnahme&#160;vom&#160;09.09.2024&#160;-&#160;#1929&#160;-&#160;##6</text><text class="terminal-289590482-r3" x="1195.6" y="581.2" textLength="12.2" clip-path="url(#terminal-289590482-line-23)">
</text><text class="terminal-289590482-r9" x="585.6" y="605.6" textLength="12.2" clip-path="url(#terminal-289590482-line-24)">▌</text><text class="terminal-289590482-r3" x="1195.6" y="605.6" textLength="12.2" clip-path="url(#terminal-289590482-line-24)">
</text><text class="terminal-289590482-r13" x="0" y="630" textLength="48.8" clip-path="url(#terminal-289590482-line-25)">&#160;^d&#160;</text><text class="terminal-289590482-r14" x="48.8" y="630" textLength="122" clip-path="url(#terminal-289590482-line-25)">New&#160;Entry&#160;</text><text class="terminal-289590482-r13" x="170.8" y="630" textLength="48.8" clip-path="url(#terminal-289590482-line-25)">&#160;^e&#160;</text><text class="terminal-289590482-r14" x="219.6" y="630" textLength="134.2" clip-path="url(#terminal-289590482-line-25)">Edit&#160;Entry&#160;</text><text class="terminal-289590482-r13" x="353.8" y="630" textLength="48.8" clip-path="url(#terminal-289590482-line-25)">&#160;^t&#160;</text><text class="terminal-289590482-r14" x="402.6" y="630" textLength="122" clip-path="url(#terminal-289590482-line-25)">Copy&#160;Text&#160;</text><text class="terminal-289590482-r13" x="524.6" y="630" textLength="48.8" clip-path="url(#terminal-289590482-line-25)">&#160;^c&#160;</text><text class="terminal-289590482-r14" x="573.4" y="630" textLength="61" clip-path="url(#terminal-289590482-line-25)">Quit&#160;</text><text class="terminal-289590482-r13" x="634.4" y="630" textLength="48.8" clip-path="url(#terminal-289590482-line-25)">&#160;f3&#160;</text><text class="terminal-289590482-r14" x="683.2" y="630" textLength="73.2" clip-path="url(#terminal-289590482-line-25)">Debug&#160;</text><text class="terminal-289590482-r13" x="756.4" y="630" textLength="48.8" clip-path="url(#terminal-289590482-line-25)">&#160;f1&#160;</text><text class="terminal-289590482-r14" x="805.2" y="630" textLength="122" clip-path="url(#terminal-289590482-line-25)">F:Episode&#160;</text><text class="terminal-289590482-r13" x="927.2" y="630" textLength="48.8" clip-path="url(#terminal-289590482-line-25)">&#160;f2&#160;</text><text class="terminal-289590482-r14" x="976" y="630" textLength="73.2" clip-path="url(#terminal-289590482-line-25)">F:Temp</text><text class="terminal-289590482-r15" x="1049.2" y="630" textLength="12.2" clip-path="url(#terminal-289590482-line-25)">▏</text><text class="terminal-289590482-r13" x="1061.4" y="630" textLength="24.4" clip-path="url(#terminal-289590482-line-25)">^p</text><text class="terminal-289590482-r14" x="1085.8" y="630" textLength="36.6" clip-path="url(#terminal-289590482-line-25)">&#160;pa</text><text class="terminal-289590482-r14" x="1122.4" y="630" textLength="61" clip-path="url(#terminal-289590482-line-25)">lette</text>
    </g>
    </g>
</svg>
